<?xml version="1.0" standalone="no"?>
<!DOCTYPE svg PUBLIC "-//W3C//DTD SVG 1.1//EN" "http://www.w3.org/Graphics/SVG/1.1/DTD/svg11.dtd" >
<svg xmlns="http://www.w3.org/2000/svg">
<metadata></metadata>
<defs>
<font id="threesix_11_ot072_regular" horiz-adv-x="1105" >
<font-face units-per-em="2048" ascent="1536" descent="-512" />
<missing-glyph horiz-adv-x="589" />
<glyph horiz-adv-x="0" />
<glyph horiz-adv-x="0" />
<glyph horiz-adv-x="682" />
<glyph unicode="&#xd;" horiz-adv-x="589" />
<glyph unicode=" "  horiz-adv-x="589" />
<glyph unicode="&#x09;" horiz-adv-x="589" />
<glyph unicode="&#xa0;" horiz-adv-x="589" />
<glyph unicode="!" horiz-adv-x="442" d="M147 74v73q0 31 21.5 52.5t52.5 21.5t52.5 -21.5t21.5 -52.5v-73q0 -31 -21.5 -52.5t-52.5 -21.5t-52.5 21.5t-21.5 52.5zM147 479v774q0 31 21.5 52.5t52.5 21.5t52.5 -21.5t21.5 -52.5v-774q0 -31 -21.5 -52t-52.5 -21t-52.5 21t-21.5 52z" />
<glyph unicode="&#x22;" horiz-adv-x="589" d="M74 1106v295q0 31 21 52.5t52 21.5t52.5 -21.5t21.5 -52.5v-295q0 -31 -21.5 -52.5t-52.5 -21.5t-52 21.5t-21 52.5zM369 1106v295q0 31 21 52.5t52 21.5t52.5 -21.5t21.5 -52.5v-295q0 -31 -21.5 -52.5t-52.5 -21.5t-52 21.5t-21 52.5z" />
<glyph unicode="#" horiz-adv-x="1585" d="M147 406q0 31 21.5 52t52.5 21h1032q31 0 52.5 -21t21.5 -52t-21.5 -52.5t-52.5 -21.5h-1032q-31 0 -52.5 21.5t-21.5 52.5zM258 922q0 31 21.5 52t52.5 21h1032q31 0 52.5 -21t21.5 -52t-21.5 -52.5t-52.5 -21.5h-1032q-31 0 -52.5 21.5t-21.5 52.5zM406 74v110 q0 31 21 52.5t52 21.5t52.5 -21.5t21.5 -52.5v-110q0 -31 -21.5 -52.5t-52.5 -21.5t-52 21.5t-21 52.5zM498 627v73q0 31 21 52.5t52 21.5t52.5 -21.5t21.5 -52.5v-73q0 -31 -21.5 -52.5t-52.5 -21.5t-52 21.5t-21 52.5zM590 1143v110q0 31 21.5 52.5t52.5 21.5t52 -21.5 t21 -52.5v-110q0 -31 -21 -52.5t-52 -21.5t-52.5 21.5t-21.5 52.5zM848 74v110q0 31 21.5 52.5t52.5 21.5t52 -21.5t21 -52.5v-110q0 -31 -21 -52.5t-52 -21.5t-52.5 21.5t-21.5 52.5zM940 627v73q0 31 21.5 52.5t52.5 21.5t52 -21.5t21 -52.5v-73q0 -31 -21 -52.5 t-52 -21.5t-52.5 21.5t-21.5 52.5zM1032 1143v110q0 31 21.5 52.5t52.5 21.5t52.5 -21.5t21.5 -52.5v-110q0 -31 -21.5 -52.5t-52.5 -21.5t-52.5 21.5t-21.5 52.5z" />
<glyph unicode="$" d="M111 811v295q0 31 21 52.5t52 21.5t52.5 21t21.5 52t21.5 52.5t52.5 21.5h516q31 0 52.5 -21.5t21.5 -52.5t-21.5 -52t-52.5 -21h-516q-31 0 -52.5 -21.5t-21.5 -52.5v-295q0 -31 21.5 -52.5t52.5 -21.5h442q31 0 52.5 -21t21.5 -52t21.5 -52.5t52.5 -21.5t52 -21.5 t21 -52.5v-295q0 -31 -21 -52.5t-52 -21.5t-52.5 -21t-21.5 -52t-21.5 -52.5t-52.5 -21.5h-516q-31 0 -52.5 21.5t-21.5 52.5t21.5 52t52.5 21h516q31 0 52.5 21.5t21.5 52.5v295q0 31 -21.5 52.5t-52.5 21.5h-442q-31 0 -52.5 21.5t-21.5 52.5t-21.5 52t-52.5 21t-52 21.5 t-21 52.5zM479 -147q0 31 21.5 52t52.5 21t52.5 -21t21.5 -52v-74q0 -31 -21.5 -52.5t-52.5 -21.5t-52.5 21.5t-21.5 52.5v74zM479 1475v73q0 31 21.5 52.5t52.5 21.5t52.5 -21.5t21.5 -52.5v-73q0 -31 -21.5 -52.5t-52.5 -21.5t-52.5 21.5t-21.5 52.5z" />
<glyph unicode="%" horiz-adv-x="1769" d="M74 995v258q0 31 21 52.5t52 21.5t52.5 21.5t21.5 52.5t21.5 52.5t52.5 21.5h184q31 0 52.5 -21.5t21.5 -52.5t21.5 -52.5t52.5 -21.5t52 -21.5t21 -52.5v-258q0 -31 -21 -52t-52 -21t-52.5 -21.5t-21.5 -52.5t-21.5 -52.5t-52.5 -21.5h-184q-31 0 -52.5 21.5t-21.5 52.5 t-21.5 52.5t-52.5 21.5t-52 21t-21 52zM221 995q0 -31 21.5 -52t52.5 -21h184q31 0 52.5 21t21.5 52v258q0 31 -21.5 52.5t-52.5 21.5h-184q-31 0 -52.5 -21.5t-21.5 -52.5v-258zM516 74v147q0 31 21.5 52.5t52.5 21.5t52.5 21.5t21.5 52.5v147q0 31 21 52.5t52 21.5 t52.5 21.5t21.5 52.5v147q0 31 21.5 52.5t52.5 21.5t52 21t21 52v148q0 31 21.5 52.5t52.5 21.5t52.5 21t21.5 52v148q0 31 21.5 52.5t52.5 21.5t52 -21.5t21 -52.5v-148q0 -31 -21 -52t-52 -21t-52.5 -21.5t-21.5 -52.5v-148q0 -31 -21.5 -52t-52.5 -21t-52.5 -21.5 t-21.5 -52.5v-147q0 -31 -21 -52.5t-52 -21.5t-52.5 -21.5t-21.5 -52.5v-147q0 -31 -21.5 -52.5t-52.5 -21.5t-52 -21.5t-21 -52.5v-147q0 -31 -21.5 -52.5t-52.5 -21.5t-52.5 21.5t-21.5 52.5zM1069 221v258q0 31 21.5 52.5t52.5 21.5t52.5 21.5t21.5 52.5t21 52t52 21h185 q31 0 52 -21t21 -52t21.5 -52.5t52.5 -21.5t52.5 -21.5t21.5 -52.5v-258q0 -31 -21.5 -52.5t-52.5 -21.5t-52.5 -21t-21.5 -52t-21 -52.5t-52 -21.5h-185q-31 0 -52 21.5t-21 52.5t-21.5 52t-52.5 21t-52.5 21.5t-21.5 52.5zM1217 221q0 -31 21 -52.5t52 -21.5h185 q31 0 52 21.5t21 52.5v258q0 31 -21 52.5t-52 21.5h-185q-31 0 -52 -21.5t-21 -52.5v-258z" />
<glyph unicode="&#x26;" horiz-adv-x="1179" d="M147 221v295q0 31 21.5 52.5t52.5 21.5t52.5 21.5t21.5 52.5t-21.5 52t-52.5 21t-52.5 21.5t-21.5 52.5v295q0 31 21.5 52.5t52.5 21.5t52.5 21t21.5 52t21.5 52.5t52.5 21.5h442q31 0 52.5 -21.5t21.5 -52.5t-21.5 -52t-52.5 -21h-442q-31 0 -52.5 -21.5t-21.5 -52.5 v-295q0 -31 21.5 -52.5t52.5 -21.5h663q31 0 52.5 -21t21.5 -52t-21.5 -52.5t-52.5 -21.5h-663q-31 0 -52.5 -21.5t-21.5 -52.5v-295q0 -31 21.5 -52.5t52.5 -21.5h295q31 0 52 -21t21 -52t-21 -52.5t-52 -21.5h-295q-31 0 -52.5 21.5t-21.5 52.5t-21.5 52t-52.5 21 t-52.5 21.5t-21.5 52.5zM811 74v368q0 31 21.5 52.5t52.5 21.5t52 -21.5t21 -52.5v-368q0 -31 -21 -52.5t-52 -21.5t-52.5 21.5t-21.5 52.5z" />
<glyph unicode="'" horiz-adv-x="294" d="M74 1106v295q0 31 21 52.5t52 21.5t52.5 -21.5t21.5 -52.5v-295q0 -31 -21.5 -52.5t-52.5 -21.5t-52 21.5t-21 52.5z" />
<glyph unicode="(" horiz-adv-x="663" d="M147 369v589q0 31 21.5 52.5t52.5 21.5t52.5 21.5t21.5 52.5v147q0 31 21.5 52.5t52.5 21.5t52 21.5t21 52.5t21.5 52.5t52.5 21.5t52.5 -21.5t21.5 -52.5t-21.5 -52.5t-52.5 -21.5t-52.5 -21.5t-21.5 -52.5v-147q0 -31 -21 -52.5t-52 -21.5t-52.5 -21.5t-21.5 -52.5 v-589q0 -31 21.5 -52.5t52.5 -21.5t52 -21.5t21 -52.5v-147q0 -31 21.5 -52.5t52.5 -21.5t52.5 -21.5t21.5 -52.5t-21.5 -52t-52.5 -21t-52.5 21t-21.5 52t-21 52.5t-52 21.5t-52.5 21.5t-21.5 52.5v147q0 31 -21.5 52.5t-52.5 21.5t-52.5 21.5t-21.5 52.5z" />
<glyph unicode=")" horiz-adv-x="663" d="M74 -74q0 31 21 52.5t52 21.5t52.5 21.5t21.5 52.5v147q0 31 21.5 52.5t52.5 21.5t52.5 21.5t21.5 52.5v589q0 31 -21.5 52.5t-52.5 21.5t-52.5 21.5t-21.5 52.5v147q0 31 -21.5 52.5t-52.5 21.5t-52 21.5t-21 52.5t21 52.5t52 21.5t52.5 -21.5t21.5 -52.5t21.5 -52.5 t52.5 -21.5t52.5 -21.5t21.5 -52.5v-147q0 -31 21 -52.5t52 -21.5t52.5 -21.5t21.5 -52.5v-589q0 -31 -21.5 -52.5t-52.5 -21.5t-52 -21.5t-21 -52.5v-147q0 -31 -21.5 -52.5t-52.5 -21.5t-52.5 -21.5t-21.5 -52.5t-21.5 -52t-52.5 -21t-52 21t-21 52z" />
<glyph unicode="*" horiz-adv-x="884" d="M74 1106q0 31 21 52.5t52 21.5t52.5 -21.5t21.5 -52.5t-21.5 -52.5t-52.5 -21.5t-52 21.5t-21 52.5zM111 848q0 31 21 52.5t52 21.5t52.5 21t21.5 52t21.5 52.5t52.5 21.5t52.5 -21.5t21.5 -52.5t-21.5 -52t-52.5 -21t-52.5 -21.5t-21.5 -52.5t-21.5 -52.5t-52.5 -21.5 t-52 21.5t-21 52.5zM111 1364q0 31 21 52.5t52 21.5t52.5 -21.5t21.5 -52.5t21.5 -52.5t52.5 -21.5t52.5 -21t21.5 -52t-21.5 -52.5t-52.5 -21.5t-52.5 21.5t-21.5 52.5t-21.5 52t-52.5 21t-52 21.5t-21 52.5zM369 811q0 31 21 52.5t52 21.5t52.5 -21.5t21.5 -52.5 t-21.5 -52.5t-52.5 -21.5t-52 21.5t-21 52.5zM369 1401q0 31 21 52.5t52 21.5t52.5 -21.5t21.5 -52.5t-21.5 -52.5t-52.5 -21.5t-52 21.5t-21 52.5zM479 995q0 31 21.5 52.5t52.5 21.5t52.5 -21.5t21.5 -52.5t21 -52t52 -21t52.5 -21.5t21.5 -52.5t-21.5 -52.5t-52.5 -21.5 t-52 21.5t-21 52.5t-21.5 52.5t-52.5 21.5t-52.5 21t-21.5 52zM479 1217q0 31 21.5 52t52.5 21t52.5 21.5t21.5 52.5t21 52.5t52 21.5t52.5 -21.5t21.5 -52.5t-21.5 -52.5t-52.5 -21.5t-52 -21t-21 -52t-21.5 -52.5t-52.5 -21.5t-52.5 21.5t-21.5 52.5zM664 1106 q0 31 21 52.5t52 21.5t52.5 -21.5t21.5 -52.5t-21.5 -52.5t-52.5 -21.5t-52 21.5t-21 52.5z" />
<glyph unicode="+" horiz-adv-x="1179" d="M147 664q0 31 21.5 52t52.5 21h148q31 0 52 -21t21 -52t-21 -52.5t-52 -21.5h-148q-31 0 -52.5 21.5t-21.5 52.5zM516 295v737q0 31 21.5 52.5t52.5 21.5t52.5 -21.5t21.5 -52.5v-737q0 -31 -21.5 -52.5t-52.5 -21.5t-52.5 21.5t-21.5 52.5zM737 664q0 31 21.5 52 t52.5 21h147q31 0 52.5 -21t21.5 -52t-21.5 -52.5t-52.5 -21.5h-147q-31 0 -52.5 21.5t-21.5 52.5z" />
<glyph unicode="," horiz-adv-x="516" d="M74 -74q0 31 21 52.5t52 21.5t52.5 21.5t21.5 52.5v73q0 31 21.5 52.5t52.5 21.5t52.5 -21.5t21.5 -52.5v-73q0 -31 -21.5 -52.5t-52.5 -21.5t-52.5 -21.5t-21.5 -52.5v-73q0 -31 -21.5 -52.5t-52.5 -21.5t-52 21.5t-21 52.5v73z" />
<glyph unicode="-" horiz-adv-x="811" d="M147 664q0 31 21.5 52t52.5 21h369q31 0 52.5 -21t21.5 -52t-21.5 -52.5t-52.5 -21.5h-369q-31 0 -52.5 21.5t-21.5 52.5z" />
<glyph unicode="." horiz-adv-x="442" d="M147 74v73q0 31 21.5 52.5t52.5 21.5t52.5 -21.5t21.5 -52.5v-73q0 -31 -21.5 -52.5t-52.5 -21.5t-52.5 21.5t-21.5 52.5z" />
<glyph unicode="/" horiz-adv-x="1032" d="M147 74v147q0 31 21.5 52.5t52.5 21.5t52.5 21.5t21.5 52.5v147q0 31 21.5 52.5t52.5 21.5t52 21.5t21 52.5v147q0 31 21.5 52.5t52.5 21.5t52.5 21t21.5 52v148q0 31 21.5 52.5t52.5 21.5t52 21t21 52v148q0 31 21.5 52.5t52.5 21.5t52.5 -21.5t21.5 -52.5v-148 q0 -31 -21.5 -52t-52.5 -21t-52.5 -21.5t-21.5 -52.5v-148q0 -31 -21 -52t-52 -21t-52.5 -21.5t-21.5 -52.5v-147q0 -31 -21.5 -52.5t-52.5 -21.5t-52.5 -21.5t-21.5 -52.5v-147q0 -31 -21 -52.5t-52 -21.5t-52.5 -21.5t-21.5 -52.5v-147q0 -31 -21.5 -52.5t-52.5 -21.5 t-52.5 21.5t-21.5 52.5z" />
<glyph unicode="0" horiz-adv-x="1179" d="M147 221v885q0 31 21.5 52.5t52.5 21.5t52.5 21t21.5 52t21.5 52.5t52.5 21.5h442q31 0 52.5 -21.5t21.5 -52.5t21 -52t52 -21t52.5 -21.5t21.5 -52.5v-885q0 -31 -21.5 -52.5t-52.5 -21.5t-52 -21t-21 -52t-21.5 -52.5t-52.5 -21.5h-442q-31 0 -52.5 21.5t-21.5 52.5 t-21.5 52t-52.5 21t-52.5 21.5t-21.5 52.5zM295 221q0 -31 21.5 -52.5t52.5 -21.5h442q31 0 52.5 22.5t21.5 57.5v879q0 31 -21.5 52.5t-52.5 21.5h-442q-31 0 -52.5 -21.5t-21.5 -52.5v-885z" />
<glyph unicode="1" horiz-adv-x="1179" d="M203 1253q0 31 21 52.5t52 21.5h203q31 0 52.5 -21.5t21.5 -52.5t-21.5 -52t-52.5 -21h-203q-31 0 -52 21t-21 52zM627 74v1179q0 31 21 52.5t52 21.5t52.5 -21.5t21.5 -52.5v-1179q0 -31 -21.5 -52.5t-52.5 -21.5t-52 21.5t-21 52.5z" />
<glyph unicode="2" horiz-adv-x="1179" d="M166 74v332q0 31 21.5 52t52.5 21t52 21.5t21 52.5t21.5 52.5t52.5 21.5h129q31 0 52.5 21t21.5 52t21.5 52.5t52.5 21.5h147q31 0 52.5 21.5t21.5 52.5v258q0 31 -21.5 52.5t-52.5 21.5h-571q-31 0 -52.5 21t-21.5 52t21.5 52.5t52.5 21.5h571q31 0 52.5 -21.5 t21.5 -52.5t21 -52t52 -21t52.5 -21.5t21.5 -52.5v-258q0 -31 -21.5 -52.5t-52.5 -21.5t-52 -21.5t-21 -52.5t-21.5 -52t-52.5 -21h-147q-31 0 -52.5 -21.5t-21.5 -52.5t-21.5 -52.5t-52.5 -21.5h-129q-31 0 -52.5 -21t-21.5 -52v-332q0 -31 -21 -52.5t-52 -21.5t-52.5 21.5 t-21.5 52.5zM387 74q0 31 21.5 52t52.5 21h497q31 0 52.5 -21t21.5 -52t-21.5 -52.5t-52.5 -21.5h-497q-31 0 -52.5 21.5t-21.5 52.5z" />
<glyph unicode="3" horiz-adv-x="1179" d="M129 74q0 31 21.5 52t52.5 21h571q31 0 52.5 21.5t21.5 52.5v295q0 31 -21.5 52.5t-52.5 21.5h-368q-31 0 -52.5 21.5t-21.5 52.5t21.5 52t52.5 21h368q31 0 52.5 21.5t21.5 52.5v295q0 31 -21.5 52.5t-52.5 21.5h-571q-31 0 -52.5 21t-21.5 52t21.5 52.5t52.5 21.5h571 q31 0 52.5 -21.5t21.5 -52.5t21.5 -52t52.5 -21t52 -21.5t21 -52.5v-295q0 -31 -21 -52.5t-52 -21.5t-52.5 -21t-21.5 -52t21.5 -52.5t52.5 -21.5t52 -21.5t21 -52.5v-295q0 -31 -21 -52.5t-52 -21.5t-52.5 -21t-21.5 -52t-21.5 -52.5t-52.5 -21.5h-571q-31 0 -52.5 21.5 t-21.5 52.5z" />
<glyph unicode="4" horiz-adv-x="1179" d="M129 406v387q0 31 21.5 52t52.5 21t52 21.5t21 52.5v313q0 31 21.5 52.5t52.5 21.5t52.5 -21.5t21.5 -52.5v-313q0 -31 -21.5 -52.5t-52.5 -21.5t-52.5 -21t-21.5 -52v-387q0 -31 -21 -52.5t-52 -21.5t-52.5 21.5t-21.5 52.5zM350 406q0 31 21.5 52t52.5 21h313v774 q0 31 21.5 52.5t52.5 21.5t52.5 -21.5t21.5 -52.5v-774h166q31 0 52 -21t21 -52t-21 -52.5t-52 -21.5h-166v-258q0 -31 -21.5 -52.5t-52.5 -21.5t-52.5 21.5t-21.5 52.5v258h-313q-31 0 -52.5 21.5t-21.5 52.5z" />
<glyph unicode="5" horiz-adv-x="1179" d="M166 74q0 31 21.5 52t52.5 21h571q31 0 52.5 21.5t21.5 52.5v295q0 31 -21.5 52.5t-52.5 21.5h-350q-31 0 -52.5 21.5t-21.5 52.5t21.5 52t52.5 21h350q31 0 52.5 -21t21.5 -52t21 -52.5t52 -21.5t52.5 -21.5t21.5 -52.5v-295q0 -31 -21.5 -52.5t-52.5 -21.5t-52 -21 t-21 -52t-21.5 -52.5t-52.5 -21.5h-571q-31 0 -52.5 21.5t-21.5 52.5zM166 664v589q0 31 21.5 52.5t52.5 21.5h645q31 0 52 -21.5t21 -52.5t-21 -52t-52 -21h-572v-516q0 -31 -21 -52.5t-52 -21.5t-52.5 21.5t-21.5 52.5z" />
<glyph unicode="6" horiz-adv-x="1179" d="M147 221v885q0 31 21.5 52.5t52.5 21.5t52.5 21t21.5 52t21.5 52.5t52.5 21.5h534q31 0 52.5 -21.5t21.5 -52.5t-21.5 -52t-52.5 -21h-534q-31 0 -52.5 -21.5t-21.5 -52.5v-885q0 -31 21.5 -52.5t52.5 -21.5h460q31 0 52.5 21.5t21.5 52.5v369q0 31 -21.5 52.5 t-52.5 21.5h-387q-31 0 -52 21t-21 52t21 52.5t52 21.5h387q31 0 52.5 -21.5t21.5 -52.5t21.5 -52t52.5 -21t52.5 -21.5t21.5 -52.5v-369q0 -31 -21.5 -52.5t-52.5 -21.5t-52.5 -21t-21.5 -52t-21.5 -52.5t-52.5 -21.5h-460q-31 0 -52.5 21.5t-21.5 52.5t-21.5 52t-52.5 21 t-52.5 21.5t-21.5 52.5z" />
<glyph unicode="7" horiz-adv-x="1179" d="M111 1253q0 31 21 52.5t52 21.5h553q31 0 52.5 -21.5t21.5 -52.5t-21.5 -52t-52.5 -21h-553q-31 0 -52 21t-21 52zM442 74v368q0 31 21.5 52.5t52.5 21.5t52.5 21.5t21.5 52.5t21.5 52.5t52.5 21.5t52 21t21 52t21.5 52.5t52.5 21.5t52.5 21.5t21.5 52.5v368 q0 31 21 52.5t52 21.5t52.5 -21.5t21.5 -52.5v-368q0 -31 -21.5 -52.5t-52.5 -21.5t-52 -21.5t-21 -52.5t-21.5 -52t-52.5 -21t-52.5 -21.5t-21.5 -52.5t-21 -52.5t-52 -21.5t-52.5 -21.5t-21.5 -52.5v-368q0 -31 -21.5 -52.5t-52.5 -21.5t-52.5 21.5t-21.5 52.5z" />
<glyph unicode="8" horiz-adv-x="1179" d="M147 221v295q0 31 21.5 52.5t52.5 21.5t52.5 21.5t21.5 52.5t-21.5 52t-52.5 21t-52.5 21.5t-21.5 52.5v295q0 31 21.5 52.5t52.5 21.5t52.5 21t21.5 52t21.5 52.5t52.5 21.5h442q31 0 52.5 -21.5t21.5 -52.5t21 -52t52 -21t52.5 -21.5t21.5 -52.5v-295 q0 -31 -21.5 -52.5t-52.5 -21.5t-52 -21t-21 -52t21 -52.5t52 -21.5t52.5 -21.5t21.5 -52.5v-295q0 -31 -21.5 -52.5t-52.5 -21.5t-52 -21t-21 -52t-21.5 -52.5t-52.5 -21.5h-442q-31 0 -52.5 21.5t-21.5 52.5t-21.5 52t-52.5 21t-52.5 21.5t-21.5 52.5zM295 221 q0 -31 21.5 -52.5t52.5 -21.5h442q31 0 52.5 21.5t21.5 52.5v295q0 31 -21.5 52.5t-52.5 21.5h-442q-31 0 -52.5 -21.5t-21.5 -52.5v-295zM295 811q0 -31 21.5 -52.5t52.5 -21.5h442q31 0 52.5 21.5t21.5 52.5v295q0 31 -21.5 52.5t-52.5 21.5h-442q-31 0 -52.5 -21.5 t-21.5 -52.5v-295z" />
<glyph unicode="9" horiz-adv-x="1179" d="M129 737v369q0 31 21.5 52.5t52.5 21.5t52 21t21 52t21.5 52.5t52.5 21.5h461q31 0 52.5 -21.5t21.5 -52.5t21 -52t52 -21t52.5 -21.5t21.5 -52.5v-885q0 -31 -21.5 -52.5t-52.5 -21.5t-52 -21t-21 -52t-21.5 -52.5t-52.5 -21.5h-535q-31 0 -52 21.5t-21 52.5t21 52 t52 21h535q31 0 52.5 21.5t21.5 52.5v885q0 31 -21.5 52.5t-52.5 21.5h-461q-31 0 -52.5 -21.5t-21.5 -52.5v-369q0 -31 21.5 -52t52.5 -21h387q31 0 52.5 -21.5t21.5 -52.5t-21.5 -52.5t-52.5 -21.5h-387q-31 0 -52.5 21.5t-21.5 52.5t-21 52.5t-52 21.5t-52.5 21t-21.5 52 z" />
<glyph unicode=":" horiz-adv-x="442" d="M147 74v73q0 31 21.5 52.5t52.5 21.5t52.5 -21.5t21.5 -52.5v-73q0 -31 -21.5 -52.5t-52.5 -21.5t-52.5 21.5t-21.5 52.5zM147 885v73q0 31 21.5 52.5t52.5 21.5t52.5 -21.5t21.5 -52.5v-73q0 -31 -21.5 -52.5t-52.5 -21.5t-52.5 21.5t-21.5 52.5z" />
<glyph unicode=";" horiz-adv-x="516" d="M74 -74q0 31 21 52.5t52 21.5t52.5 21.5t21.5 52.5v73q0 31 21.5 52.5t52.5 21.5t52.5 -21.5t21.5 -52.5v-73q0 -31 -21.5 -52.5t-52.5 -21.5t-52.5 -21.5t-21.5 -52.5v-73q0 -31 -21.5 -52.5t-52.5 -21.5t-52 21.5t-21 52.5v73zM221 885v73q0 31 21.5 52.5t52.5 21.5 t52.5 -21.5t21.5 -52.5v-73q0 -31 -21.5 -52.5t-52.5 -21.5t-52.5 21.5t-21.5 52.5z" />
<glyph unicode="&#x3c;" d="M147 664q0 31 21.5 52t52.5 21h111q31 0 52.5 21.5t21.5 52.5t21 52.5t52 21.5h129q31 0 52.5 21t21.5 52t21.5 52.5t52.5 21.5h129q31 0 52 -21.5t21 -52.5t-21 -52t-52 -21h-129q-31 0 -52.5 -21.5t-21.5 -52.5t-21.5 -52.5t-52.5 -21.5h-129q-31 0 -52 -21t-21 -52 t21 -52.5t52 -21.5h129q31 0 52.5 -21.5t21.5 -52.5t21.5 -52.5t52.5 -21.5h129q31 0 52 -21t21 -52t-21 -52.5t-52 -21.5h-129q-31 0 -52.5 21.5t-21.5 52.5t-21.5 52t-52.5 21h-129q-31 0 -52 21.5t-21 52.5t-21.5 52.5t-52.5 21.5h-111q-31 0 -52.5 21.5t-21.5 52.5z" />
<glyph unicode="=" d="M147 442q0 31 21.5 52.5t52.5 21.5h664q31 0 52 -21.5t21 -52.5t-21 -52t-52 -21h-664q-31 0 -52.5 21t-21.5 52zM147 885q0 31 21.5 52t52.5 21h664q31 0 52 -21t21 -52t-21 -52.5t-52 -21.5h-664q-31 0 -52.5 21.5t-21.5 52.5z" />
<glyph unicode="&#x3e;" d="M147 369q0 31 21.5 52t52.5 21h129q31 0 52.5 21.5t21.5 52.5t21.5 52.5t52.5 21.5h129q31 0 52 21.5t21 52.5t-21 52t-52 21h-129q-31 0 -52.5 21.5t-21.5 52.5t-21.5 52.5t-52.5 21.5h-129q-31 0 -52.5 21t-21.5 52t21.5 52.5t52.5 21.5h129q31 0 52.5 -21.5 t21.5 -52.5t21.5 -52t52.5 -21h129q31 0 52 -21.5t21 -52.5t21.5 -52.5t52.5 -21.5h111q31 0 52 -21t21 -52t-21 -52.5t-52 -21.5h-111q-31 0 -52.5 -21.5t-21.5 -52.5t-21 -52.5t-52 -21.5h-129q-31 0 -52.5 -21t-21.5 -52t-21.5 -52.5t-52.5 -21.5h-129q-31 0 -52.5 21.5 t-21.5 52.5z" />
<glyph unicode="?" horiz-adv-x="847" d="M37 1253q0 31 21.5 52.5t52.5 21.5h368q31 0 52.5 -21.5t21.5 -52.5t21.5 -52t52.5 -21t52 -21.5t21 -52.5v-221q0 -31 -21 -52.5t-52 -21.5t-52.5 -21.5t-21.5 -52.5t-21.5 -52t-52.5 -21t-52 -21.5t-21 -52.5v-111q0 -31 -21.5 -52t-52.5 -21t-52.5 21t-21.5 52v111 q0 31 21.5 52.5t52.5 21.5t52.5 21t21.5 52t21 52.5t52 21.5t52.5 21.5t21.5 52.5v221q0 31 -21.5 52.5t-52.5 21.5h-368q-31 0 -52.5 21t-21.5 52zM258 74v73q0 31 21.5 52.5t52.5 21.5t52.5 -21.5t21.5 -52.5v-73q0 -31 -21.5 -52.5t-52.5 -21.5t-52.5 21.5t-21.5 52.5z " />
<glyph unicode="@" horiz-adv-x="1622" d="M147 369v589q0 31 21.5 52.5t52.5 21.5t52.5 21.5t21.5 52.5t21.5 52.5t52.5 21.5t52 21t21 52t21.5 52.5t52.5 21.5h590q31 0 52.5 -21.5t21.5 -52.5t21 -52t52 -21t52.5 -21.5t21.5 -52.5t21.5 -52.5t52.5 -21.5t52.5 -21.5t21.5 -52.5v-442q0 -31 -21.5 -52.5 t-52.5 -21.5t-52.5 -21t-21.5 -52t-21.5 -52.5t-52.5 -21.5h-147q-31 0 -52.5 21.5t-21.5 52.5t21.5 52t52.5 21h147q31 0 52.5 21.5t21.5 52.5v442q0 31 -21.5 52.5t-52.5 21.5t-52 21.5t-21 52.5t-21.5 52.5t-52.5 21.5h-590q-31 0 -52.5 -21.5t-21.5 -52.5t-21 -52.5 t-52 -21.5t-52.5 -21.5t-21.5 -52.5v-589q0 -31 21.5 -52.5t52.5 -21.5t52 -21.5t21 -52.5t21.5 -52.5t52.5 -21.5h590q31 0 52.5 -21t21.5 -52t-21.5 -52.5t-52.5 -21.5h-590q-31 0 -52.5 21.5t-21.5 52.5t-21 52t-52 21t-52.5 21.5t-21.5 52.5t-21.5 52.5t-52.5 21.5 t-52.5 21.5t-21.5 52.5zM442 516q0 31 21.5 52.5t52.5 21.5t52.5 21.5t21.5 52.5t21.5 52t52.5 21h221q31 0 52 -21t21 -52t-21 -52.5t-52 -21.5h-221q-31 0 -52.5 -21.5t-21.5 -52.5t21.5 -52.5t52.5 -21.5h221q31 0 52 -21t21 -52t-21 -52.5t-52 -21.5h-221 q-31 0 -52.5 21.5t-21.5 52.5t-21.5 52t-52.5 21t-52.5 21.5t-21.5 52.5zM590 958q0 31 21.5 52.5t52.5 21.5h294q31 0 52.5 -21.5t21.5 -52.5t21.5 -52t52.5 -21t52.5 -21.5t21.5 -52.5v-221q0 -31 -21.5 -52.5t-52.5 -21.5t-52.5 21.5t-21.5 52.5v221q0 31 -21.5 52.5 t-52.5 21.5h-294q-31 0 -52.5 21t-21.5 52z" />
<glyph unicode="A" horiz-adv-x="1216" d="M129 74v516q0 31 21.5 52.5t52.5 21.5t52 21t21 52v369q0 31 21.5 52.5t52.5 21.5t52.5 21t21.5 52t21.5 52.5t52.5 21.5h221q31 0 52.5 -21.5t21.5 -52.5t21 -52t52 -21t52.5 -21.5t21.5 -52.5v-369q0 -31 21.5 -52t52.5 -21t52 -21.5t21 -52.5v-516q0 -31 -21 -52.5 t-52 -21.5t-52.5 21.5t-21.5 52.5v516q0 31 -21.5 52.5t-52.5 21.5t-52 21t-21 52v369q0 29 -25 51.5t-53 22.5h-217q-29 0 -51.5 -22.5t-22.5 -51.5v-369q0 -31 -21.5 -52t-52.5 -21t-52.5 -21.5t-21.5 -52.5v-516q0 -31 -21 -52.5t-52 -21.5t-52.5 21.5t-21.5 52.5z M350 369q0 31 21.5 52t52.5 21h369q31 0 52 -21t21 -52t-21 -52.5t-52 -21.5h-369q-31 0 -52.5 21.5t-21.5 52.5z" />
<glyph unicode="B" horiz-adv-x="1253" d="M147 74v1179q0 31 21.5 52.5t52.5 21.5t52.5 -21.5t21.5 -52.5v-1179q0 -31 -21.5 -52.5t-52.5 -21.5t-52.5 21.5t-21.5 52.5zM369 74q0 31 21 52t52 21h443q31 0 52 21.5t21 52.5v295q0 31 -21 52.5t-52 21.5h-443q-31 0 -52 21.5t-21 52.5t21 52t52 21h443 q31 0 52 21.5t21 52.5v295q0 31 -21 52.5t-52 21.5h-443q-31 0 -52 21t-21 52t21 52.5t52 21.5h443q31 0 52 -21.5t21 -52.5t21.5 -52t52.5 -21t52.5 -21.5t21.5 -52.5v-295q0 -31 -21.5 -52.5t-52.5 -21.5t-52.5 -21t-21.5 -52t21.5 -52.5t52.5 -21.5t52.5 -21.5 t21.5 -52.5v-295q0 -31 -21.5 -52.5t-52.5 -21.5t-52.5 -21t-21.5 -52t-21 -52.5t-52 -21.5h-443q-31 0 -52 21.5t-21 52.5z" />
<glyph unicode="C" horiz-adv-x="958" d="M147 221v885q0 31 21.5 52.5t52.5 21.5t52.5 21t21.5 52t21.5 52.5t52.5 21.5h442q31 0 52.5 -21.5t21.5 -52.5t-21.5 -52t-52.5 -21h-442q-31 0 -52.5 -21.5t-21.5 -52.5v-885q0 -31 21.5 -52.5t52.5 -21.5h442q31 0 52.5 -21t21.5 -52t-21.5 -52.5t-52.5 -21.5h-442 q-31 0 -52.5 21.5t-21.5 52.5t-21.5 52t-52.5 21t-52.5 21.5t-21.5 52.5z" />
<glyph unicode="D" horiz-adv-x="1234" d="M147 74v1179q0 31 21.5 52.5t52.5 21.5t52.5 -21.5t21.5 -52.5v-1179q0 -31 -21.5 -52.5t-52.5 -21.5t-52.5 21.5t-21.5 52.5zM369 74q0 31 21 52t52 21h295q31 0 52.5 21.5t21.5 52.5t21.5 52.5t52.5 21.5t52 21.5t21 52.5v589q0 31 -21 52.5t-52 21.5t-52.5 21.5 t-21.5 52.5t-21.5 52.5t-52.5 21.5h-295q-31 0 -52 21t-21 52t21 52.5t52 21.5h295q31 0 52.5 -21.5t21.5 -52.5t21.5 -52t52.5 -21t52 -21.5t21 -52.5t21.5 -52.5t52.5 -21.5t52.5 -21.5t21.5 -52.5v-589q0 -31 -21.5 -52.5t-52.5 -21.5t-52.5 -21.5t-21.5 -52.5t-21 -52.5 t-52 -21.5t-52.5 -21t-21.5 -52t-21.5 -52.5t-52.5 -21.5h-295q-31 0 -52 21.5t-21 52.5z" />
<glyph unicode="E" horiz-adv-x="958" d="M147 74v1179q0 31 21.5 52.5t52.5 21.5t52.5 -21.5t21.5 -52.5v-1179q0 -31 -21.5 -52.5t-52.5 -21.5t-52.5 21.5t-21.5 52.5zM369 74q0 31 21 52t52 21h369q31 0 52.5 -21t21.5 -52t-21.5 -52.5t-52.5 -21.5h-369q-31 0 -52 21.5t-21 52.5zM369 664q0 31 21 52t52 21 h295q31 0 52.5 -21t21.5 -52t-21.5 -52.5t-52.5 -21.5h-295q-31 0 -52 21.5t-21 52.5zM369 1253q0 31 21 52.5t52 21.5h369q31 0 52.5 -21.5t21.5 -52.5t-21.5 -52t-52.5 -21h-369q-31 0 -52 21t-21 52z" />
<glyph unicode="F" horiz-adv-x="958" d="M147 74v1179q0 31 21.5 52.5t52.5 21.5t52.5 -21.5t21.5 -52.5v-1179q0 -31 -21.5 -52.5t-52.5 -21.5t-52.5 21.5t-21.5 52.5zM369 664q0 31 21 52t52 21h295q31 0 52.5 -21t21.5 -52t-21.5 -52.5t-52.5 -21.5h-295q-31 0 -52 21.5t-21 52.5zM369 1253q0 31 21 52.5 t52 21.5h369q31 0 52.5 -21.5t21.5 -52.5t-21.5 -52t-52.5 -21h-369q-31 0 -52 21t-21 52z" />
<glyph unicode="G" horiz-adv-x="1234" d="M147 221v885q0 31 21.5 52.5t52.5 21.5t52.5 21t21.5 52t21.5 52.5t52.5 21.5h589q31 0 52.5 -21.5t21.5 -52.5t-21.5 -52t-52.5 -21h-589q-31 0 -52.5 -21.5t-21.5 -52.5v-885q0 -31 21.5 -52.5t52.5 -21.5h516q31 0 52 21.5t21 52.5v221q0 31 21.5 52.5t52.5 21.5 t52.5 -21.5t21.5 -52.5v-221q0 -31 -21.5 -52.5t-52.5 -21.5t-52.5 -21t-21.5 -52t-21 -52.5t-52 -21.5h-516q-31 0 -52.5 21.5t-21.5 52.5t-21.5 52t-52.5 21t-52.5 21.5t-21.5 52.5zM590 664q0 31 21.5 52t52.5 21h368q31 0 52.5 -21t21.5 -52t-21.5 -52.5t-52.5 -21.5 h-368q-31 0 -52.5 21.5t-21.5 52.5z" />
<glyph unicode="H" horiz-adv-x="1253" d="M147 74v1179q0 31 21.5 52.5t52.5 21.5t52.5 -21.5t21.5 -52.5v-1179q0 -31 -21.5 -52.5t-52.5 -21.5t-52.5 21.5t-21.5 52.5zM369 664q0 31 21 52t52 21h369q31 0 52.5 -21t21.5 -52t-21.5 -52.5t-52.5 -21.5h-369q-31 0 -52 21.5t-21 52.5zM958 74v1179q0 31 21.5 52.5 t52.5 21.5t52.5 -21.5t21.5 -52.5v-1179q0 -31 -21.5 -52.5t-52.5 -21.5t-52.5 21.5t-21.5 52.5z" />
<glyph unicode="I" horiz-adv-x="442" d="M147 74v1179q0 31 21.5 52.5t52.5 21.5t52.5 -21.5t21.5 -52.5v-1179q0 -31 -21.5 -52.5t-52.5 -21.5t-52.5 21.5t-21.5 52.5z" />
<glyph unicode="J" horiz-adv-x="774" d="M37 74q0 31 21.5 52t52.5 21h295q31 0 52 21.5t21 52.5v1032q0 31 21.5 52.5t52.5 21.5t52.5 -21.5t21.5 -52.5v-1032q0 -31 -21.5 -52.5t-52.5 -21.5t-52.5 -21t-21.5 -52t-21 -52.5t-52 -21.5h-295q-31 0 -52.5 21.5t-21.5 52.5z" />
<glyph unicode="K" horiz-adv-x="1161" d="M147 74v1179q0 31 21.5 52.5t52.5 21.5t52.5 -21.5t21.5 -52.5v-1179q0 -31 -21.5 -52.5t-52.5 -21.5t-52.5 21.5t-21.5 52.5zM369 664q0 31 21 52t52 21h222q31 0 52 21.5t21 52.5v147q0 31 21.5 52.5t52.5 21.5t52.5 21.5t21.5 52.5v147q0 31 21 52.5t52 21.5 t52.5 -21.5t21.5 -52.5v-147q0 -31 -21.5 -52.5t-52.5 -21.5t-52 -21.5t-21 -52.5v-147q0 -31 -21.5 -52.5t-52.5 -21.5t-52.5 -21t-21.5 -52t21.5 -52.5t52.5 -21.5t52.5 -21.5t21.5 -52.5v-147q0 -31 21 -52.5t52 -21.5t52.5 -21.5t21.5 -52.5v-147q0 -31 -21.5 -52.5 t-52.5 -21.5t-52 21.5t-21 52.5v147q0 31 -21.5 52.5t-52.5 21.5t-52.5 21.5t-21.5 52.5v147q0 31 -21 52.5t-52 21.5h-222q-31 0 -52 21.5t-21 52.5z" />
<glyph unicode="L" horiz-adv-x="921" d="M147 74v1179q0 31 21.5 52.5t52.5 21.5t52.5 -21.5t21.5 -52.5v-1179q0 -31 -21.5 -52.5t-52.5 -21.5t-52.5 21.5t-21.5 52.5zM369 74q0 31 21 52t52 21h369q31 0 52.5 -21t21.5 -52t-21.5 -52.5t-52.5 -21.5h-369q-31 0 -52 21.5t-21 52.5z" />
<glyph unicode="M" horiz-adv-x="1843" d="M147 74v1179q0 31 21.5 52.5t52.5 21.5t52.5 -21.5t21.5 -52.5v-1179q0 -31 -21.5 -52.5t-52.5 -21.5t-52.5 21.5t-21.5 52.5zM369 1253q0 31 21 52.5t52 21.5h332q31 0 52.5 -21.5t21.5 -52.5t21.5 -52t52.5 -21t52 -21.5t21 -52.5v-1032q0 -31 -21 -52.5t-52 -21.5 t-52.5 21.5t-21.5 52.5v1032q0 31 -21.5 52.5t-52.5 21.5h-332q-31 0 -52 21t-21 52zM1014 1253q0 31 21 52.5t52 21.5h388q31 0 52 -21.5t21 -52.5t21.5 -52t52.5 -21t52.5 -21.5t21.5 -52.5v-1032q0 -31 -21.5 -52.5t-52.5 -21.5t-52.5 21.5t-21.5 52.5v1032 q0 31 -21 52.5t-52 21.5h-388q-31 0 -52 21t-21 52z" />
<glyph unicode="N" horiz-adv-x="1216" d="M147 74v1179q0 31 21.5 52.5t52.5 21.5t52.5 -21.5t21.5 -52.5v-1179q0 -31 -21.5 -52.5t-52.5 -21.5t-52.5 21.5t-21.5 52.5zM369 1253q0 31 21 52.5t52 21.5h406q31 0 52.5 -21.5t21.5 -52.5t21 -52t52 -21t52.5 -21.5t21.5 -52.5v-1032q0 -31 -21.5 -52.5t-52.5 -21.5 t-52 21.5t-21 52.5v1032q0 31 -21.5 52.5t-52.5 21.5h-406q-31 0 -52 21t-21 52z" />
<glyph unicode="O" horiz-adv-x="1327" d="M147 221v885q0 31 21.5 52.5t52.5 21.5t52.5 21t21.5 52t21.5 52.5t52.5 21.5h589q31 0 52.5 -21.5t21.5 -52.5t21.5 -52t52.5 -21t52.5 -21.5t21.5 -52.5v-885q0 -31 -21.5 -52.5t-52.5 -21.5t-52.5 -21t-21.5 -52t-21.5 -52.5t-52.5 -21.5h-589q-31 0 -52.5 21.5 t-21.5 52.5t-21.5 52t-52.5 21t-52.5 21.5t-21.5 52.5zM295 221q0 -30 21.5 -51t52.5 -23h589q31 0 52.5 21.5t21.5 52.5v885q0 31 -21.5 52.5t-52.5 21.5h-589q-31 0 -52.5 -21.5t-21.5 -52.5v-885z" />
<glyph unicode="P" horiz-adv-x="1216" d="M147 74v1179q0 31 21.5 52.5t52.5 21.5t52.5 -21.5t21.5 -52.5v-1179q0 -31 -21.5 -52.5t-52.5 -21.5t-52.5 21.5t-21.5 52.5zM369 664q0 31 21 52t52 21h443q31 0 52 21.5t21 52.5v295q0 31 -21 52.5t-52 21.5h-443q-31 0 -52 21t-21 52t21 52.5t52 21.5h443 q31 0 52 -21.5t21 -52.5t21.5 -52t52.5 -21t52.5 -21.5t21.5 -52.5v-295q0 -31 -21.5 -52.5t-52.5 -21.5t-52.5 -21t-21.5 -52t-21 -52.5t-52 -21.5h-443q-31 0 -52 21.5t-21 52.5z" />
<glyph unicode="Q" horiz-adv-x="1327" d="M147 221v885q0 31 21.5 52.5t52.5 21.5t52.5 21t21.5 52t21.5 52.5t52.5 21.5h589q31 0 52.5 -21.5t21.5 -52.5t21.5 -52t52.5 -21t52.5 -21.5t21.5 -52.5v-737q0 -31 -21.5 -52.5t-52.5 -21.5t-52.5 21.5t-21.5 52.5v737q0 31 -21.5 52.5t-52.5 21.5h-589 q-31 0 -52.5 -21.5t-21.5 -52.5v-885q0 -31 21.5 -52.5t52.5 -21.5h589q31 0 52.5 -21t21.5 -52t21.5 -52.5t52.5 -21.5t52.5 -21.5t21.5 -52.5v-147q0 -31 -21.5 -52.5t-52.5 -21.5t-52.5 21.5t-21.5 52.5v147q0 31 -21.5 52.5t-52.5 21.5h-589q-31 0 -52.5 21.5 t-21.5 52.5t-21.5 52t-52.5 21t-52.5 21.5t-21.5 52.5z" />
<glyph unicode="R" horiz-adv-x="1253" d="M147 74v1179q0 31 21.5 52.5t52.5 21.5t52.5 -21.5t21.5 -52.5v-1179q0 -31 -21.5 -52.5t-52.5 -21.5t-52.5 21.5t-21.5 52.5zM369 664q0 31 21 52t52 21h443q31 0 52 21.5t21 52.5v295q0 31 -21 52.5t-52 21.5h-443q-31 0 -52 21t-21 52t21 52.5t52 21.5h443 q31 0 52 -21.5t21 -52.5t21.5 -52t52.5 -21t52.5 -21.5t21.5 -52.5v-295q0 -31 -21.5 -52.5t-52.5 -21.5t-52.5 -21t-21.5 -52t-21 -52.5t-52 -21.5h-443q-31 0 -52 21.5t-21 52.5zM811 332v110q0 31 21.5 52.5t52.5 21.5t52 -21.5t21 -52.5v-110q0 -31 21.5 -52.5 t52.5 -21.5t52.5 -21.5t21.5 -52.5v-110q0 -31 -21.5 -52.5t-52.5 -21.5t-52.5 21.5t-21.5 52.5v110q0 31 -21 52.5t-52 21.5t-52.5 21.5t-21.5 52.5z" />
<glyph unicode="S" d="M111 811v295q0 31 21 52.5t52 21.5t52.5 21t21.5 52t21.5 52.5t52.5 21.5h516q31 0 52.5 -21.5t21.5 -52.5t-21.5 -52t-52.5 -21h-516q-31 0 -52.5 -21.5t-21.5 -52.5v-295q0 -31 21.5 -52.5t52.5 -21.5h442q31 0 52.5 -21t21.5 -52t21.5 -52.5t52.5 -21.5t52 -21.5 t21 -52.5v-295q0 -31 -21 -52.5t-52 -21.5t-52.5 -21t-21.5 -52t-21.5 -52.5t-52.5 -21.5h-516q-31 0 -52.5 21.5t-21.5 52.5t21.5 52t52.5 21h516q31 0 52.5 21.5t21.5 52.5v295q0 31 -21.5 52.5t-52.5 21.5h-442q-31 0 -52.5 21.5t-21.5 52.5t-21.5 52t-52.5 21t-52 21.5 t-21 52.5z" />
<glyph unicode="T" horiz-adv-x="1032" d="M37 1253q0 31 21.5 52.5t52.5 21.5h811q31 0 52 -21.5t21 -52.5t-21 -52t-52 -21h-811q-31 0 -52.5 21t-21.5 52zM442 74v958q0 31 21.5 52.5t52.5 21.5t52.5 -21.5t21.5 -52.5v-958q0 -31 -21.5 -52.5t-52.5 -21.5t-52.5 21.5t-21.5 52.5z" />
<glyph unicode="U" horiz-adv-x="1216" d="M147 221v1032q0 31 21.5 52.5t52.5 21.5t52.5 -21.5t21.5 -52.5v-1032q0 -31 21.5 -52.5t52.5 -21.5h405q31 0 52.5 -21t21.5 -52t-21.5 -52.5t-52.5 -21.5h-405q-31 0 -52.5 21.5t-21.5 52.5t-21.5 52t-52.5 21t-52.5 21.5t-21.5 52.5zM922 74v1179q0 31 21 52.5 t52 21.5t52.5 -21.5t21.5 -52.5v-1179q0 -31 -21.5 -52.5t-52.5 -21.5t-52 21.5t-21 52.5z" />
<glyph unicode="V" horiz-adv-x="1216" d="M129 737v516q0 31 21.5 52.5t52.5 21.5t52 -21.5t21 -52.5v-516q0 -31 21.5 -52t52.5 -21t52.5 -21.5t21.5 -52.5v-369q0 -31 21.5 -52.5t52.5 -21.5h221q31 0 52.5 21.5t21.5 52.5v369q0 31 21 52.5t52 21.5t52.5 21t21.5 52v516q0 31 21.5 52.5t52.5 21.5t52 -21.5 t21 -52.5v-516q0 -31 -21 -52t-52 -21t-52.5 -21.5t-21.5 -52.5v-369q0 -31 -21.5 -52.5t-52.5 -21.5t-52 -21t-21 -52t-21.5 -52.5t-52.5 -21.5h-221q-31 0 -52.5 21.5t-21.5 52.5t-21.5 52t-52.5 21t-52.5 21.5t-21.5 52.5v369q0 31 -21 52.5t-52 21.5t-52.5 21t-21.5 52z " />
<glyph unicode="W" horiz-adv-x="1806" d="M129 737v516q0 31 21.5 52.5t52.5 21.5t52 -21.5t21 -52.5v-516q0 -31 21.5 -52t52.5 -21t52.5 -21.5t21.5 -52.5v-369q0 -31 21.5 -52.5t52.5 -21.5h258q31 0 52 -21t21 -52t-21 -52.5t-52 -21.5h-258q-31 0 -52.5 21.5t-21.5 52.5t-21.5 52t-52.5 21t-52.5 21.5 t-21.5 52.5v369q0 31 -21 52.5t-52 21.5t-52.5 21t-21.5 52zM829 332v921q0 31 21.5 52.5t52.5 21.5t52.5 -21.5t21.5 -52.5v-921q0 -31 -21.5 -52.5t-52.5 -21.5t-52.5 21.5t-21.5 52.5zM977 74q0 31 21.5 52t52.5 21h258q31 0 52 21.5t21 52.5v369q0 31 21.5 52.5 t52.5 21.5t52.5 21t21.5 52v516q0 31 21.5 52.5t52.5 21.5t52 -21.5t21 -52.5v-516q0 -31 -21 -52t-52 -21t-52.5 -21.5t-21.5 -52.5v-369q0 -31 -21.5 -52.5t-52.5 -21.5t-52.5 -21t-21.5 -52t-21 -52.5t-52 -21.5h-258q-31 0 -52.5 21.5t-21.5 52.5z" />
<glyph unicode="X" horiz-adv-x="1216" d="M129 74v147q0 31 21.5 52.5t52.5 21.5t52 21.5t21 52.5v147q0 31 21.5 52.5t52.5 21.5t52.5 21.5t21.5 52.5t-21.5 52t-52.5 21t-52.5 21.5t-21.5 52.5v147q0 31 -21 52.5t-52 21.5t-52.5 21.5t-21.5 52.5v147q0 31 21.5 52.5t52.5 21.5t52 -21.5t21 -52.5v-147 q0 -31 21.5 -52.5t52.5 -21.5t52.5 -21.5t21.5 -52.5v-147q0 -31 21.5 -52.5t52.5 -21.5h221q31 0 52.5 21.5t21.5 52.5v147q0 31 21 52.5t52 21.5t52.5 21.5t21.5 52.5v147q0 31 21.5 52.5t52.5 21.5t52 -21.5t21 -52.5v-147q0 -31 -21 -52.5t-52 -21.5t-52.5 -21.5 t-21.5 -52.5v-147q0 -31 -21.5 -52.5t-52.5 -21.5t-52 -21t-21 -52t21 -52.5t52 -21.5t52.5 -21.5t21.5 -52.5v-147q0 -31 21.5 -52.5t52.5 -21.5t52 -21.5t21 -52.5v-147q0 -31 -21 -52.5t-52 -21.5t-52.5 21.5t-21.5 52.5v147q0 31 -21.5 52.5t-52.5 21.5t-52 21.5 t-21 52.5v147q0 31 -21.5 52.5t-52.5 21.5h-221q-31 0 -52.5 -21.5t-21.5 -52.5v-147q0 -31 -21.5 -52.5t-52.5 -21.5t-52.5 -21.5t-21.5 -52.5v-147q0 -31 -21 -52.5t-52 -21.5t-52.5 21.5t-21.5 52.5z" />
<glyph unicode="Y" horiz-adv-x="1142" d="M92 1106v147q0 31 21.5 52.5t52.5 21.5t52.5 -21.5t21.5 -52.5v-147q0 -31 21 -52.5t52 -21.5t52.5 -21.5t21.5 -52.5v-221q0 -31 21.5 -52t52.5 -21h221q31 0 52.5 21t21.5 52v221q0 31 21 52.5t52 21.5t52.5 21.5t21.5 52.5v147q0 31 21.5 52.5t52.5 21.5t52.5 -21.5 t21.5 -52.5v-147q0 -31 -21.5 -52.5t-52.5 -21.5t-52.5 -21.5t-21.5 -52.5v-221q0 -31 -21.5 -52t-52.5 -21t-52 -21.5t-21 -52.5t-21.5 -52.5t-52.5 -21.5h-221q-31 0 -52.5 21.5t-21.5 52.5t-21.5 52.5t-52.5 21.5t-52 21t-21 52v221q0 31 -21.5 52.5t-52.5 21.5 t-52.5 21.5t-21.5 52.5zM498 74v295q0 31 21 52t52 21t52.5 -21t21.5 -52v-295q0 -31 -21.5 -52.5t-52.5 -21.5t-52 21.5t-21 52.5z" />
<glyph unicode="Z" horiz-adv-x="1069" d="M111 74v368q0 31 21 52.5t52 21.5t52.5 21.5t21.5 52.5t21.5 52.5t52.5 21.5h129q31 0 52.5 21t21.5 52t21 52.5t52 21.5h129q31 0 52.5 21.5t21.5 52.5v368q0 31 21.5 52.5t52.5 21.5t52 -21.5t21 -52.5v-368q0 -31 -21 -52.5t-52 -21.5t-52.5 -21.5t-21.5 -52.5 t-21.5 -52t-52.5 -21h-129q-31 0 -52 -21.5t-21 -52.5t-21.5 -52.5t-52.5 -21.5h-129q-31 0 -52.5 -21.5t-21.5 -52.5v-368q0 -31 -21.5 -52.5t-52.5 -21.5t-52 21.5t-21 52.5zM111 1253q0 31 21 52.5t52 21.5h480q31 0 52 -21.5t21 -52.5t-21 -52t-52 -21h-480 q-31 0 -52 21t-21 52zM332 74q0 31 21.5 52t52.5 21h479q31 0 52 -21t21 -52t-21 -52.5t-52 -21.5h-479q-31 0 -52.5 21.5t-21.5 52.5z" />
<glyph unicode="[" horiz-adv-x="700" d="M147 -74v1475q0 31 21.5 52.5t52.5 21.5t52.5 -21.5t21.5 -52.5v-1475q0 -31 -21.5 -52t-52.5 -21t-52.5 21t-21.5 52zM369 -74q0 31 21 52.5t52 21.5h111q31 0 52.5 -21.5t21.5 -52.5t-21.5 -52t-52.5 -21h-111q-31 0 -52 21t-21 52zM369 1401q0 31 21 52.5t52 21.5h111 q31 0 52.5 -21.5t21.5 -52.5t-21.5 -52.5t-52.5 -21.5h-111q-31 0 -52 21.5t-21 52.5z" />
<glyph unicode="\" horiz-adv-x="1032" d="M147 1253v148q0 31 21.5 52.5t52.5 21.5t52.5 -21.5t21.5 -52.5v-148q0 -31 21.5 -52t52.5 -21t52 -21.5t21 -52.5v-148q0 -31 21.5 -52t52.5 -21t52.5 -21.5t21.5 -52.5v-147q0 -31 21.5 -52.5t52.5 -21.5t52 -21.5t21 -52.5v-147q0 -31 21.5 -52.5t52.5 -21.5 t52.5 -21.5t21.5 -52.5v-147q0 -31 -21.5 -52.5t-52.5 -21.5t-52.5 21.5t-21.5 52.5v147q0 31 -21 52.5t-52 21.5t-52.5 21.5t-21.5 52.5v147q0 31 -21.5 52.5t-52.5 21.5t-52.5 21.5t-21.5 52.5v147q0 31 -21 52.5t-52 21.5t-52.5 21t-21.5 52v148q0 31 -21.5 52.5 t-52.5 21.5t-52.5 21t-21.5 52z" />
<glyph unicode="]" horiz-adv-x="700" d="M74 -74q0 31 21 52.5t52 21.5h111q31 0 52.5 -21.5t21.5 -52.5t-21.5 -52t-52.5 -21h-111q-31 0 -52 21t-21 52zM74 1401q0 31 21 52.5t52 21.5h111q31 0 52.5 -21.5t21.5 -52.5t-21.5 -52.5t-52.5 -21.5h-111q-31 0 -52 21.5t-21 52.5zM406 -74v1475q0 31 21 52.5 t52 21.5t52.5 -21.5t21.5 -52.5v-1475q0 -31 -21.5 -52t-52.5 -21t-52 21t-21 52z" />
<glyph unicode="^" horiz-adv-x="1032" d="M147 1106q0 31 21.5 52.5t52.5 21.5t52.5 21t21.5 52t21.5 52.5t52.5 21.5t52 21.5t21 52.5t21.5 52.5t52.5 21.5t52.5 -21.5t21.5 -52.5t21.5 -52.5t52.5 -21.5t52 -21.5t21 -52.5t21.5 -52t52.5 -21t52.5 -21.5t21.5 -52.5t-21.5 -52.5t-52.5 -21.5t-52.5 21.5 t-21.5 52.5t-21 52.5t-52 21.5t-52.5 21t-21.5 52t-21.5 52.5t-52.5 21.5t-52.5 -21.5t-21.5 -52.5t-21 -52t-52 -21t-52.5 -21.5t-21.5 -52.5t-21.5 -52.5t-52.5 -21.5t-52.5 21.5t-21.5 52.5z" />
<glyph unicode="_" horiz-adv-x="1179" d="M-74 -369q0 31 21.5 52.5t52.5 21.5h1180q31 0 52 -21.5t21 -52.5t-21 -52t-52 -21h-1180q-31 0 -52.5 21t-21.5 52z" />
<glyph unicode="`" horiz-adv-x="811" d="M147 1401q0 31 21.5 52.5t52.5 21.5h111q31 0 52.5 -21.5t21.5 -52.5t21 -52.5t52 -21.5h111q31 0 52.5 -21.5t21.5 -52.5t-21.5 -52t-52.5 -21h-111q-31 0 -52 21t-21 52t-21.5 52.5t-52.5 21.5h-111q-31 0 -52.5 21.5t-21.5 52.5z" />
<glyph unicode="a" horiz-adv-x="1069" d="M111 221v148q0 31 21 52t52 21t52.5 21.5t21.5 52.5t21.5 52.5t52.5 21.5h295q31 0 52 -21.5t21 -52.5t-21 -52.5t-52 -21.5h-295q-31 0 -52.5 -21t-21.5 -52v-148q0 -31 21.5 -52.5t52.5 -21.5h295q31 0 52 -21t21 -52t-21 -52.5t-52 -21.5h-295q-31 0 -52.5 21.5 t-21.5 52.5t-21.5 52t-52.5 21t-52 21.5t-21 52.5zM184 958q0 31 21.5 52.5t52.5 21.5h442q31 0 52.5 -21.5t21.5 -52.5t21.5 -52t52.5 -21t52.5 -21.5t21.5 -52.5v-737q0 -31 -21.5 -52.5t-52.5 -21.5t-52.5 21.5t-21.5 52.5v737q0 31 -21.5 52.5t-52.5 21.5h-442 q-31 0 -52.5 21t-21.5 52z" />
<glyph unicode="b" d="M147 74v1327q0 31 21.5 52.5t52.5 21.5t52.5 -21.5t21.5 -52.5v-1327q0 -31 -21.5 -52.5t-52.5 -21.5t-52.5 21.5t-21.5 52.5zM369 74q0 31 21 52t52 21h295q31 0 52.5 21.5t21.5 52.5v590q0 31 -21.5 52.5t-52.5 21.5h-295q-31 0 -52 21t-21 52t21 52.5t52 21.5h295 q31 0 52.5 -21.5t21.5 -52.5t21.5 -52t52.5 -21t52 -21.5t21 -52.5v-590q0 -31 -21 -52.5t-52 -21.5t-52.5 -21t-21.5 -52t-21.5 -52.5t-52.5 -21.5h-295q-31 0 -52 21.5t-21 52.5z" />
<glyph unicode="c" horiz-adv-x="884" d="M147 221v590q0 31 21.5 52.5t52.5 21.5t52.5 21t21.5 52t21.5 52.5t52.5 21.5h368q31 0 52.5 -21.5t21.5 -52.5t-21.5 -52t-52.5 -21h-368q-31 0 -52.5 -21.5t-21.5 -52.5v-590q0 -31 21.5 -52.5t52.5 -21.5h368q31 0 52.5 -21t21.5 -52t-21.5 -52.5t-52.5 -21.5h-368 q-31 0 -52.5 21.5t-21.5 52.5t-21.5 52t-52.5 21t-52.5 21.5t-21.5 52.5z" />
<glyph unicode="d" d="M147 221v590q0 31 21.5 52.5t52.5 21.5t52.5 21t21.5 52t21.5 52.5t52.5 21.5h295q31 0 52 -21.5t21 -52.5t-21 -52t-52 -21h-295q-31 0 -52.5 -21.5t-21.5 -52.5v-590q0 -31 21.5 -52.5t52.5 -21.5h295q31 0 52 -21t21 -52t-21 -52.5t-52 -21.5h-295q-31 0 -52.5 21.5 t-21.5 52.5t-21.5 52t-52.5 21t-52.5 21.5t-21.5 52.5zM811 74v1327q0 31 21.5 52.5t52.5 21.5t52 -21.5t21 -52.5v-1327q0 -31 -21 -52.5t-52 -21.5t-52.5 21.5t-21.5 52.5z" />
<glyph unicode="e" horiz-adv-x="1069" d="M147 221v590q0 31 21.5 52.5t52.5 21.5t52.5 21t21.5 52t21.5 52.5t52.5 21.5h368q31 0 52.5 -21.5t21.5 -52.5t21.5 -52t52.5 -21t52 -21.5t21 -52.5v-147q0 -31 -21 -52.5t-52 -21.5t-52.5 -21.5t-21.5 -52.5t-21.5 -52.5t-52.5 -21.5h-295q-31 0 -52 21.5t-21 52.5 t21 52.5t52 21.5h295q31 0 52.5 21.5t21.5 52.5v147q0 31 -21.5 52.5t-52.5 21.5h-368q-31 0 -52.5 -21.5t-21.5 -52.5v-590q0 -31 21.5 -52.5t52.5 -21.5h442q31 0 52.5 -21t21.5 -52t-21.5 -52.5t-52.5 -21.5h-442q-31 0 -52.5 21.5t-21.5 52.5t-21.5 52t-52.5 21 t-52.5 21.5t-21.5 52.5z" />
<glyph unicode="f" horiz-adv-x="792" d="M37 958q0 31 21.5 52.5t52.5 21.5h73q31 0 52.5 21.5t21.5 52.5v147q0 31 21.5 52.5t52.5 21.5t52.5 21.5t21.5 52.5t21 52.5t52 21.5h221q31 0 52.5 -21.5t21.5 -52.5t-21.5 -52.5t-52.5 -21.5h-221q-31 0 -52 -21.5t-21 -52.5v-1179q0 -31 -21.5 -52.5t-52.5 -21.5 t-52.5 21.5t-21.5 52.5v874q-4 -28 -25 -45.5t-49 -17.5h-73q-31 0 -52.5 21t-21.5 52zM479 958q0 31 21.5 52.5t52.5 21.5h147q31 0 52.5 -21.5t21.5 -52.5t-21.5 -52t-52.5 -21h-147q-31 0 -52.5 21t-21.5 52z" />
<glyph unicode="g" d="M147 221v590q0 31 21.5 52.5t52.5 21.5t52.5 21t21.5 52t21.5 52.5t52.5 21.5h295q31 0 52 -21.5t21 -52.5t-21 -52t-52 -21h-295q-31 0 -52.5 -21.5t-21.5 -52.5v-590q0 -31 21.5 -52.5t52.5 -21.5h295q31 0 52 -21t21 -52t-21 -52.5t-52 -21.5h-295q-31 0 -52.5 21.5 t-21.5 52.5t-21.5 52t-52.5 21t-52.5 21.5t-21.5 52.5zM221 -369q0 31 21.5 52.5t52.5 21.5h442q31 0 52.5 21.5t21.5 52.5v1179q0 31 21.5 52.5t52.5 21.5t52 -21.5t21 -52.5v-1179q0 -31 -21 -52.5t-52 -21.5t-52.5 -21.5t-21.5 -52.5t-21.5 -52t-52.5 -21h-442 q-31 0 -52.5 21t-21.5 52z" />
<glyph unicode="h" d="M147 74v1327q0 31 21.5 52.5t52.5 21.5t52.5 -21.5t21.5 -52.5v-1327q0 -31 -21.5 -52.5t-52.5 -21.5t-52.5 21.5t-21.5 52.5zM369 958q0 31 21 52.5t52 21.5h295q31 0 52.5 -21.5t21.5 -52.5t21.5 -52t52.5 -21t52 -21.5t21 -52.5v-737q0 -31 -21 -52.5t-52 -21.5 t-52.5 21.5t-21.5 52.5v737q0 31 -21.5 52.5t-52.5 21.5h-295q-31 0 -52 21t-21 52z" />
<glyph unicode="i" horiz-adv-x="442" d="M147 74v884q0 31 21.5 52.5t52.5 21.5t52.5 -21.5t21.5 -52.5v-884q0 -31 -21.5 -52.5t-52.5 -21.5t-52.5 21.5t-21.5 52.5zM147 1327v74q0 31 21.5 52.5t52.5 21.5t52.5 -21.5t21.5 -52.5v-74q0 -31 -21.5 -52.5t-52.5 -21.5t-52.5 21.5t-21.5 52.5z" />
<glyph unicode="j" horiz-adv-x="479" d="M-129 -369q0 31 21.5 52.5t52.5 21.5h147q31 0 52.5 21.5t21.5 52.5v1179q0 31 21.5 52.5t52.5 21.5t52 -21.5t21 -52.5v-1179q0 -31 -21 -52.5t-52 -21.5t-52.5 -21.5t-21.5 -52.5t-21.5 -52t-52.5 -21h-147q-31 0 -52.5 21t-21.5 52zM166 1327v74q0 31 21.5 52.5 t52.5 21.5t52 -21.5t21 -52.5v-74q0 -31 -21 -52.5t-52 -21.5t-52.5 21.5t-21.5 52.5z" />
<glyph unicode="k" horiz-adv-x="1032" d="M147 74v1327q0 31 21.5 52.5t52.5 21.5t52.5 -21.5t21.5 -52.5v-1327q0 -31 -21.5 -52.5t-52.5 -21.5t-52.5 21.5t-21.5 52.5zM369 516q0 31 21 52.5t52 21.5h222q31 0 52 -21.5t21 -52.5t21.5 -52.5t52.5 -21.5t52.5 -21t21.5 -52v-295q0 -31 -21.5 -52.5t-52.5 -21.5 t-52.5 21.5t-21.5 52.5v295q0 31 -21 52t-52 21h-222q-31 0 -52 21.5t-21 52.5zM737 682v276q0 31 21.5 52.5t52.5 21.5t52.5 -21.5t21.5 -52.5v-276q0 -31 -21.5 -52.5t-52.5 -21.5t-52.5 21.5t-21.5 52.5z" />
<glyph unicode="l" horiz-adv-x="442" d="M147 74v1327q0 31 21.5 52.5t52.5 21.5t52.5 -21.5t21.5 -52.5v-1327q0 -31 -21.5 -52.5t-52.5 -21.5t-52.5 21.5t-21.5 52.5z" />
<glyph unicode="m" horiz-adv-x="1622" d="M147 74v884q0 31 21.5 52.5t52.5 21.5t52.5 -21.5t21.5 -52.5v-884q0 -31 -21.5 -52.5t-52.5 -21.5t-52.5 21.5t-21.5 52.5zM369 958q0 31 21 52.5t52 21.5h222q31 0 52 -21.5t21 -52.5t21.5 -52t52.5 -21t52.5 -21.5t21.5 -52.5v-737q0 -31 -21.5 -52.5t-52.5 -21.5 t-52.5 21.5t-21.5 52.5v737q0 31 -21 52.5t-52 21.5h-222q-31 0 -52 21t-21 52zM903 958q0 31 21.5 52.5t52.5 21.5h276q31 0 52.5 -21.5t21.5 -52.5t21.5 -52t52.5 -21t52.5 -21.5t21.5 -52.5v-737q0 -31 -21.5 -52.5t-52.5 -21.5t-52.5 21.5t-21.5 52.5v737 q0 31 -21.5 52.5t-52.5 21.5h-276q-31 0 -52.5 21t-21.5 52z" />
<glyph unicode="n" d="M147 74v884q0 31 21.5 52.5t52.5 21.5t52.5 -21.5t21.5 -52.5v-884q0 -31 -21.5 -52.5t-52.5 -21.5t-52.5 21.5t-21.5 52.5zM369 958q0 31 21 52.5t52 21.5h295q31 0 52.5 -21.5t21.5 -52.5t21.5 -52t52.5 -21t52 -21.5t21 -52.5v-737q0 -31 -21 -52.5t-52 -21.5 t-52.5 21.5t-21.5 52.5v737q0 31 -21.5 52.5t-52.5 21.5h-295q-31 0 -52 21t-21 52z" />
<glyph unicode="o" d="M147 221v590q0 31 21.5 52.5t52.5 21.5t52.5 21t21.5 52t21.5 52.5t52.5 21.5h368q31 0 52.5 -21.5t21.5 -52.5t21.5 -52t52.5 -21t52 -21.5t21 -52.5v-590q0 -31 -21 -52.5t-52 -21.5t-52.5 -21t-21.5 -52t-21.5 -52.5t-52.5 -21.5h-368q-31 0 -52.5 21.5t-21.5 52.5 t-21.5 52t-52.5 21t-52.5 21.5t-21.5 52.5zM295 221q0 -31 21.5 -52.5t52.5 -21.5h368q31 0 52.5 21.5t21.5 52.5v590q0 31 -21.5 52.5t-52.5 21.5h-368q-31 0 -52.5 -21.5t-21.5 -52.5v-590z" />
<glyph unicode="p" d="M147 -369v1327q0 31 21.5 52.5t52.5 21.5t52.5 -21.5t21.5 -52.5v-1327q0 -31 -21.5 -52t-52.5 -21t-52.5 21t-21.5 52zM369 74q0 31 21 52t52 21h295q31 0 52.5 21.5t21.5 52.5v590q0 31 -21.5 52.5t-52.5 21.5h-295q-31 0 -52 21t-21 52t21 52.5t52 21.5h295 q31 0 52.5 -21.5t21.5 -52.5t21.5 -52t52.5 -21t52 -21.5t21 -52.5v-590q0 -31 -21 -52.5t-52 -21.5t-52.5 -21t-21.5 -52t-21.5 -52.5t-52.5 -21.5h-295q-31 0 -52 21.5t-21 52.5z" />
<glyph unicode="q" d="M147 221v590q0 31 21.5 52.5t52.5 21.5t52.5 21t21.5 52t21.5 52.5t52.5 21.5h295q31 0 52 -21.5t21 -52.5t-21 -52t-52 -21h-295q-31 0 -52.5 -21.5t-21.5 -52.5v-590q0 -31 21.5 -52.5t52.5 -21.5h295q31 0 52 -21t21 -52t-21 -52.5t-52 -21.5h-295q-31 0 -52.5 21.5 t-21.5 52.5t-21.5 52t-52.5 21t-52.5 21.5t-21.5 52.5zM811 -369v1327q0 31 21.5 52.5t52.5 21.5t52 -21.5t21 -52.5v-1327q0 -31 -21 -52t-52 -21t-52.5 21t-21.5 52z" />
<glyph unicode="r" horiz-adv-x="755" d="M147 74v884q0 31 21.5 52.5t52.5 21.5t52.5 -21.5t21.5 -52.5v-884q0 -31 -21.5 -52.5t-52.5 -21.5t-52.5 21.5t-21.5 52.5zM369 958q0 31 21 52.5t52 21.5h222q31 0 52 -21.5t21 -52.5t-21 -52t-52 -21h-222q-31 0 -52 21t-21 52z" />
<glyph unicode="s" horiz-adv-x="958" d="M111 664v147q0 31 21 52.5t52 21.5t52.5 21t21.5 52t21.5 52.5t52.5 21.5h368q31 0 52.5 -21.5t21.5 -52.5t-21.5 -52t-52.5 -21h-368q-31 0 -52.5 -21.5t-21.5 -52.5v-147q0 -31 21.5 -52.5t52.5 -21.5h295q31 0 52 -21.5t21 -52.5t21.5 -52.5t52.5 -21.5t52.5 -21 t21.5 -52v-148q0 -31 -21.5 -52.5t-52.5 -21.5t-52.5 -21t-21.5 -52t-21 -52.5t-52 -21.5h-369q-31 0 -52.5 21.5t-21.5 52.5t21.5 52t52.5 21h369q31 0 52 21.5t21 52.5v148q0 31 -21 52t-52 21h-295q-31 0 -52.5 21.5t-21.5 52.5t-21.5 52.5t-52.5 21.5t-52 21.5t-21 52.5 z" />
<glyph unicode="t" horiz-adv-x="811" d="M37 958q0 31 21.5 52.5t52.5 21.5h73q29 0 51.5 22.5t22.5 51.5v147q0 31 21.5 52.5t52.5 21.5t52.5 -21.5t21.5 -52.5v-1032q0 -31 21 -52.5t52 -21.5h221q31 0 52.5 -21t21.5 -52t-21.5 -52.5t-52.5 -21.5h-221q-31 0 -52 21.5t-21 52.5t-21.5 52t-52.5 21t-52.5 21.5 t-21.5 52.5v727q-4 -26 -26 -44.5t-48 -18.5h-73q-31 0 -52.5 21t-21.5 52zM479 958q0 31 21.5 52.5t52.5 21.5h147q31 0 52.5 -21.5t21.5 -52.5t-21.5 -52t-52.5 -21h-147q-31 0 -52.5 21t-21.5 52z" />
<glyph unicode="u" d="M147 221v737q0 31 21.5 52.5t52.5 21.5t52.5 -21.5t21.5 -52.5v-737q0 -31 21.5 -52.5t52.5 -21.5h295q31 0 52 -21t21 -52t-21 -52.5t-52 -21.5h-295q-31 0 -52.5 21.5t-21.5 52.5t-21.5 52t-52.5 21t-52.5 21.5t-21.5 52.5zM811 74v884q0 31 21.5 52.5t52.5 21.5 t52 -21.5t21 -52.5v-884q0 -31 -21 -52.5t-52 -21.5t-52.5 21.5t-21.5 52.5z" />
<glyph unicode="v" horiz-adv-x="1069" d="M111 664v294q0 31 21 52.5t52 21.5t52.5 -21.5t21.5 -52.5v-294q0 -31 21.5 -52.5t52.5 -21.5t52.5 -21.5t21.5 -52.5v-295q0 -31 21 -52.5t52 -21.5h111q31 0 52.5 21.5t21.5 52.5v295q0 31 21 52.5t52 21.5t52.5 21.5t21.5 52.5v294q0 31 21.5 52.5t52.5 21.5t52 -21.5 t21 -52.5v-294q0 -31 -21 -52.5t-52 -21.5t-52.5 -21.5t-21.5 -52.5v-295q0 -31 -21.5 -52.5t-52.5 -21.5t-52 -21t-21 -52t-21.5 -52.5t-52.5 -21.5h-111q-31 0 -52 21.5t-21 52.5t-21.5 52t-52.5 21t-52.5 21.5t-21.5 52.5v295q0 31 -21.5 52.5t-52.5 21.5t-52 21.5 t-21 52.5z" />
<glyph unicode="w" horiz-adv-x="1548" d="M111 664v294q0 31 21 52.5t52 21.5t52.5 -21.5t21.5 -52.5v-294q0 -31 21.5 -52.5t52.5 -21.5t52.5 -21.5t21.5 -52.5v-295q0 -31 21 -52.5t52 -21.5h148q31 0 52 -21t21 -52t-21 -52.5t-52 -21.5h-148q-31 0 -52 21.5t-21 52.5t-21.5 52t-52.5 21t-52.5 21.5t-21.5 52.5 v295q0 31 -21.5 52.5t-52.5 21.5t-52 21.5t-21 52.5zM700 332v626q0 31 21.5 52.5t52.5 21.5t52.5 -21.5t21.5 -52.5v-626q0 -31 -21.5 -52.5t-52.5 -21.5t-52.5 21.5t-21.5 52.5zM848 74q0 31 21.5 52t52.5 21h147q31 0 52.5 21.5t21.5 52.5v295q0 31 21.5 52.5t52.5 21.5 t52 21.5t21 52.5v294q0 31 21.5 52.5t52.5 21.5t52.5 -21.5t21.5 -52.5v-294q0 -31 -21.5 -52.5t-52.5 -21.5t-52.5 -21.5t-21.5 -52.5v-295q0 -31 -21 -52.5t-52 -21.5t-52.5 -21t-21.5 -52t-21.5 -52.5t-52.5 -21.5h-147q-31 0 -52.5 21.5t-21.5 52.5z" />
<glyph unicode="x" d="M147 74v295q0 31 21.5 52t52.5 21t52.5 21.5t21.5 52.5t21.5 52.5t52.5 21.5h368q31 0 52.5 -21.5t21.5 -52.5t21.5 -52.5t52.5 -21.5t52 -21t21 -52v-295q0 -31 -21 -52.5t-52 -21.5t-52.5 21.5t-21.5 52.5v295q0 31 -21.5 52t-52.5 21h-368q-31 0 -52.5 -21t-21.5 -52 v-295q0 -31 -21.5 -52.5t-52.5 -21.5t-52.5 21.5t-21.5 52.5zM147 682v276q0 31 21.5 52.5t52.5 21.5t52.5 -21.5t21.5 -52.5v-276q0 -31 -21.5 -52.5t-52.5 -21.5t-52.5 21.5t-21.5 52.5zM811 682v276q0 31 21.5 52.5t52.5 21.5t52 -21.5t21 -52.5v-276q0 -31 -21 -52.5 t-52 -21.5t-52.5 21.5t-21.5 52.5z" />
<glyph unicode="y" d="M147 221v737q0 31 21.5 52.5t52.5 21.5t52.5 -21.5t21.5 -52.5v-737q0 -31 21.5 -52.5t52.5 -21.5h295q31 0 52 -21t21 -52t-21 -52.5t-52 -21.5h-295q-31 0 -52.5 21.5t-21.5 52.5t-21.5 52t-52.5 21t-52.5 21.5t-21.5 52.5zM221 -369q0 31 21.5 52.5t52.5 21.5h442 q31 0 52.5 21.5t21.5 52.5v1179q0 31 21.5 52.5t52.5 21.5t52 -21.5t21 -52.5v-1179q0 -31 -21 -52.5t-52 -21.5t-52.5 -21.5t-21.5 -52.5t-21.5 -52t-52.5 -21h-442q-31 0 -52.5 21t-21.5 52z" />
<glyph unicode="z" horiz-adv-x="958" d="M111 74v295q0 31 21 52t52 21t52.5 21.5t21.5 52.5t21.5 52.5t52.5 21.5h295q31 0 52 21.5t21 52.5v294q0 31 21.5 52.5t52.5 21.5t52.5 -21.5t21.5 -52.5v-294q0 -31 -21.5 -52.5t-52.5 -21.5t-52.5 -21.5t-21.5 -52.5t-21 -52.5t-52 -21.5h-295q-31 0 -52.5 -21 t-21.5 -52v-295q0 -31 -21.5 -52.5t-52.5 -21.5t-52 21.5t-21 52.5zM111 958q0 31 21 52.5t52 21.5h369q31 0 52.5 -21.5t21.5 -52.5t-21.5 -52t-52.5 -21h-369q-31 0 -52 21t-21 52zM332 74q0 31 21.5 52t52.5 21h368q31 0 52.5 -21t21.5 -52t-21.5 -52.5t-52.5 -21.5h-368 q-31 0 -52.5 21.5t-21.5 52.5z" />
<glyph unicode="{" horiz-adv-x="811" d="M74 664q0 31 21 52t52 21h111q31 0 52.5 21.5t21.5 52.5v442q0 31 21.5 52.5t52.5 21.5t52 21.5t21 52.5t21.5 52.5t52.5 21.5h111q31 0 52 -21.5t21 -52.5t-21 -52.5t-52 -21.5h-111q-31 0 -52.5 -21.5t-21.5 -52.5v-442q0 -31 -21 -52.5t-52 -21.5t-52.5 -21t-21.5 -52 t21.5 -52.5t52.5 -21.5t52 -21.5t21 -52.5v-442q0 -31 21.5 -52.5t52.5 -21.5h111q31 0 52 -21.5t21 -52.5t-21 -52t-52 -21h-111q-31 0 -52.5 21t-21.5 52t-21 52.5t-52 21.5t-52.5 21.5t-21.5 52.5v442q0 31 -21.5 52.5t-52.5 21.5h-111q-31 0 -52 21.5t-21 52.5z" />
<glyph unicode="|" horiz-adv-x="442" d="M147 -74v1475q0 31 21.5 52.5t52.5 21.5t52.5 -21.5t21.5 -52.5v-1475q0 -31 -21.5 -52t-52.5 -21t-52.5 21t-21.5 52z" />
<glyph unicode="}" horiz-adv-x="811" d="M74 -74q0 31 21 52.5t52 21.5h111q31 0 52.5 21.5t21.5 52.5v442q0 31 21.5 52.5t52.5 21.5t52 21.5t21 52.5t-21 52t-52 21t-52.5 21.5t-21.5 52.5v442q0 31 -21.5 52.5t-52.5 21.5h-111q-31 0 -52 21.5t-21 52.5t21 52.5t52 21.5h111q31 0 52.5 -21.5t21.5 -52.5 t21.5 -52.5t52.5 -21.5t52 -21.5t21 -52.5v-442q0 -31 21.5 -52.5t52.5 -21.5h111q31 0 52 -21t21 -52t-21 -52.5t-52 -21.5h-111q-31 0 -52.5 -21.5t-21.5 -52.5v-442q0 -31 -21 -52.5t-52 -21.5t-52.5 -21.5t-21.5 -52.5t-21.5 -52t-52.5 -21h-111q-31 0 -52 21t-21 52z " />
<glyph unicode="~" d="M147 811q0 31 21.5 52.5t52.5 21.5t52.5 21t21.5 52t21.5 52.5t52.5 21.5h110q31 0 52.5 -21.5t21.5 -52.5t21.5 -52t52.5 -21h110q31 0 52.5 21t21.5 52t21.5 52.5t52.5 21.5t52 -21.5t21 -52.5t-21 -52t-52 -21t-52.5 -21.5t-21.5 -52.5t-21.5 -52.5t-52.5 -21.5h-110 q-31 0 -52.5 21.5t-21.5 52.5t-21.5 52.5t-52.5 21.5h-110q-31 0 -52.5 -21.5t-21.5 -52.5t-21.5 -52.5t-52.5 -21.5t-52.5 21.5t-21.5 52.5z" />
<glyph unicode="&#xa1;" horiz-adv-x="442" d="M147 -221v774q0 31 21.5 52.5t52.5 21.5t52.5 -21.5t21.5 -52.5v-774q0 -31 -21.5 -52.5t-52.5 -21.5t-52.5 21.5t-21.5 52.5zM147 885v73q0 31 21.5 52.5t52.5 21.5t52.5 -21.5t21.5 -52.5v-73q0 -31 -21.5 -52.5t-52.5 -21.5t-52.5 21.5t-21.5 52.5z" />
<glyph unicode="&#xa2;" horiz-adv-x="884" d="M147 221v590q0 31 21.5 52.5t52.5 21.5t52.5 21t21.5 52t21.5 52.5t52.5 21.5h368q31 0 52.5 -21.5t21.5 -52.5t-21.5 -52t-52.5 -21h-368q-31 0 -52.5 -21.5t-21.5 -52.5v-590q0 -31 21.5 -52.5t52.5 -21.5h368q31 0 52.5 -21t21.5 -52t-21.5 -52.5t-52.5 -21.5h-368 q-31 0 -52.5 21.5t-21.5 52.5t-21.5 52t-52.5 21t-52.5 21.5t-21.5 52.5zM479 -147q0 31 21.5 52t52.5 21t52.5 -21t21.5 -52v-74q0 -31 -21.5 -52.5t-52.5 -21.5t-52.5 21.5t-21.5 52.5v74zM479 1180v73q0 31 21.5 52.5t52.5 21.5t52.5 -21.5t21.5 -52.5v-73 q0 -31 -21.5 -52.5t-52.5 -21.5t-52.5 21.5t-21.5 52.5z" />
<glyph unicode="&#xa3;" horiz-adv-x="1030" d="M74 74q0 31 21 52t52 21h736q31 0 52 -21t21 -52t-21 -52.5t-52 -21.5h-736q-31 0 -52 21.5t-21 52.5zM74 664q0 31 21 52t52 21h515q31 0 52 -21t21 -52t-21 -52.5t-52 -21.5h-515q-31 0 -52 21.5t-21 52.5zM219 295v145q0 31 21.5 52.5t52.5 21.5t52.5 -21.5 t21.5 -52.5v-145q0 -31 -21.5 -52.5t-52.5 -21.5t-52.5 21.5t-21.5 52.5zM219 885v221q0 31 21.5 52.5t52.5 21.5t52.5 21t21.5 52t21 52.5t52 21.5h369q31 0 52.5 -21.5t21.5 -52.5t-21.5 -52t-52.5 -21h-369q-31 0 -52 -21.5t-21 -52.5v-221q0 -31 -21.5 -52.5 t-52.5 -21.5t-52.5 21.5t-21.5 52.5z" />
<glyph unicode="&#xa4;" horiz-adv-x="1198" d="M147 221q0 31 21.5 52.5t52.5 21.5t52.5 21.5t21.5 52.5t-21.5 52t-52.5 21t-52.5 21.5t-21.5 52.5v148q0 31 21.5 52t52.5 21t52.5 21.5t21.5 52.5t-21.5 52.5t-52.5 21.5t-52.5 21t-21.5 52t21.5 52.5t52.5 21.5t52.5 -21.5t21.5 -52.5t21.5 -52t52.5 -21t52 21t21 52 t21.5 52.5t52.5 21.5h166q31 0 52.5 -21.5t21.5 -52.5t21 -52t52 -21t52.5 21t21.5 52t21.5 52.5t52.5 21.5t52.5 -21.5t21.5 -52.5t-21.5 -52t-52.5 -21t-52.5 -21.5t-21.5 -52.5t21.5 -52.5t52.5 -21.5t52.5 -21t21.5 -52v-148q0 -31 -21.5 -52.5t-52.5 -21.5t-52.5 -21 t-21.5 -52t21.5 -52.5t52.5 -21.5t52.5 -21.5t21.5 -52.5t-21.5 -52.5t-52.5 -21.5t-52.5 21.5t-21.5 52.5t-21.5 52.5t-52.5 21.5t-52 -21.5t-21 -52.5t-21.5 -52.5t-52.5 -21.5h-166q-31 0 -52.5 21.5t-21.5 52.5t-21 52.5t-52 21.5t-52.5 -21.5t-21.5 -52.5t-21.5 -52.5 t-52.5 -21.5t-52.5 21.5t-21.5 52.5zM295 516q0 -31 21.5 -52.5t52.5 -21.5t52 -21t21 -52t21.5 -52.5t52.5 -21.5h166q31 0 52.5 21.5t21.5 52.5t21 52t52 21t52.5 21.5t21.5 52.5v148q0 31 -21.5 52t-52.5 21t-52 21.5t-21 52.5t-21.5 52.5t-52.5 21.5h-166 q-31 0 -52.5 -21.5t-21.5 -52.5t-21 -52.5t-52 -21.5t-52.5 -21t-21.5 -52v-148z" />
<glyph unicode="&#xa5;" horiz-adv-x="1179" d="M111 1106v147q0 31 21 52.5t52 21.5t52.5 -21.5t21.5 -52.5v-147q0 -31 21.5 -52.5t52.5 -21.5t52.5 -21.5t21.5 -52.5v-184q0 -31 21 -52.5t52 -21.5h221q31 0 52.5 21.5t21.5 52.5v184q0 31 21.5 52.5t52.5 21.5t52.5 21.5t21.5 52.5v147q0 31 21 52.5t52 21.5 t52.5 -21.5t21.5 -52.5v-147q0 -31 -21.5 -52.5t-52.5 -21.5t-52 -21.5t-21 -52.5v-184q0 -31 -21.5 -52.5t-52.5 -21.5t-52.5 -21t-21.5 -52t-21.5 -52.5t-52.5 -21.5h-221q-31 0 -52 21.5t-21 52.5t-21.5 52t-52.5 21t-52.5 21.5t-21.5 52.5v184q0 31 -21.5 52.5 t-52.5 21.5t-52 21.5t-21 52.5zM203 295q0 31 21 52.5t52 21.5h93q31 0 52 -21.5t21 -52.5t-21 -52.5t-52 -21.5h-93q-31 0 -52 21.5t-21 52.5zM516 74v332q0 31 21.5 52t52.5 21t52.5 -21t21.5 -52v-332q0 -31 -21.5 -52.5t-52.5 -21.5t-52.5 21.5t-21.5 52.5zM735 295 q0 31 21.5 52.5t52.5 21.5h92q31 0 52.5 -21.5t21.5 -52.5t-21.5 -52.5t-52.5 -21.5h-92q-31 0 -52.5 21.5t-21.5 52.5z" />
<glyph unicode="&#xa6;" horiz-adv-x="442" d="M147 -74v553q0 31 21.5 52.5t52.5 21.5t52.5 -21.5t21.5 -52.5v-553q0 -31 -21.5 -52t-52.5 -21t-52.5 21t-21.5 52zM147 848v553q0 31 21.5 52.5t52.5 21.5t52.5 -21.5t21.5 -52.5v-553q0 -31 -21.5 -52.5t-52.5 -21.5t-52.5 21.5t-21.5 52.5z" />
<glyph unicode="&#xa7;" horiz-adv-x="958" d="M147 295v258q0 31 21.5 52.5t52.5 21.5t52.5 -21.5t21.5 -52.5v-258q0 -31 21.5 -52.5t52.5 -21.5h221q31 0 52.5 -21.5t21.5 -52.5t21 -52t52 -21t52.5 -21.5t21.5 -52.5v-221q0 -31 -21.5 -52.5t-52.5 -21.5t-52 -21.5t-21 -52.5t-21.5 -52t-52.5 -21h-332 q-31 0 -52.5 21t-21.5 52t21.5 52.5t52.5 21.5h332q31 0 52.5 21.5t21.5 52.5v221q0 31 -21.5 52.5t-52.5 21.5h-221q-31 0 -52.5 21t-21.5 52t-21.5 52.5t-52.5 21.5t-52.5 21.5t-21.5 52.5zM147 885v221q0 31 21.5 52.5t52.5 21.5t52.5 21t21.5 52t21.5 52.5t52.5 21.5 h331q31 0 52.5 -21.5t21.5 -52.5t-21.5 -52t-52.5 -21h-331q-31 0 -52.5 -21.5t-21.5 -52.5v-221q0 -31 21.5 -52.5t52.5 -21.5h221q31 0 52.5 -21.5t21.5 -52.5t21 -52t52 -21t52.5 -21.5t21.5 -52.5v-258q0 -31 -21.5 -52.5t-52.5 -21.5t-52 21.5t-21 52.5v258 q0 31 -21.5 52.5t-52.5 21.5h-221q-31 0 -52.5 21t-21.5 52t-21.5 52.5t-52.5 21.5t-52.5 21.5t-21.5 52.5z" />
<glyph unicode="&#xa8;" horiz-adv-x="811" d="M147 1327v74q0 31 21.5 52.5t52.5 21.5t52.5 -21.5t21.5 -52.5v-74q0 -31 -21.5 -52.5t-52.5 -21.5t-52.5 21.5t-21.5 52.5zM516 1327v74q0 31 21.5 52.5t52.5 21.5t52.5 -21.5t21.5 -52.5v-74q0 -31 -21.5 -52.5t-52.5 -21.5t-52.5 21.5t-21.5 52.5z" />
<glyph unicode="&#xa9;" horiz-adv-x="1622" d="M147 369v589q0 31 21.5 52.5t52.5 21.5t52.5 21.5t21.5 52.5t21.5 52.5t52.5 21.5t52 21t21 52t21.5 52.5t52.5 21.5h590q31 0 52.5 -21.5t21.5 -52.5t21 -52t52 -21t52.5 -21.5t21.5 -52.5t21.5 -52.5t52.5 -21.5t52.5 -21.5t21.5 -52.5v-589q0 -31 -21.5 -52.5 t-52.5 -21.5t-52.5 -21.5t-21.5 -52.5t-21.5 -52.5t-52.5 -21.5t-52 -21t-21 -52t-21.5 -52.5t-52.5 -21.5h-590q-31 0 -52.5 21.5t-21.5 52.5t-21 52t-52 21t-52.5 21.5t-21.5 52.5t-21.5 52.5t-52.5 21.5t-52.5 21.5t-21.5 52.5zM295 369q0 -31 21.5 -52.5t52.5 -21.5 t52 -21.5t21 -52.5t21.5 -52.5t52.5 -21.5h590q31 0 52.5 21.5t21.5 52.5t21 52.5t52 21.5t52.5 21.5t21.5 52.5v589q0 31 -21.5 52.5t-52.5 21.5t-52 21.5t-21 52.5t-21.5 52.5t-52.5 21.5h-590q-31 0 -52.5 -21.5t-21.5 -52.5t-21 -52.5t-52 -21.5t-52.5 -21.5 t-21.5 -52.5v-589zM479 516v295q0 31 21.5 52.5t52.5 21.5t52.5 21t21.5 52t21 52.5t52 21.5h277q31 0 52.5 -21.5t21.5 -52.5t-21.5 -52t-52.5 -21h-277q-31 0 -52 -21.5t-21 -52.5v-295q0 -31 21 -52.5t52 -21.5h277q31 0 52.5 -21t21.5 -52t-21.5 -52.5t-52.5 -21.5h-277 q-31 0 -52 21.5t-21 52.5t-21.5 52t-52.5 21t-52.5 21.5t-21.5 52.5z" />
<glyph unicode="&#xaa;" horiz-adv-x="847" d="M74 885v37q0 31 21 52t52 21t52.5 21.5t21.5 52.5t21.5 52.5t52.5 21.5h184q31 0 52.5 -21.5t21.5 -52.5t-21.5 -52.5t-52.5 -21.5h-184q-31 0 -52.5 -21t-21.5 -52v-37q0 -31 21.5 -52.5t52.5 -21.5h184q31 0 52.5 -21.5t21.5 -52.5t-21.5 -52t-52.5 -21h-184 q-31 0 -52.5 21t-21.5 52t-21.5 52.5t-52.5 21.5t-52 21.5t-21 52.5zM147 1401q0 31 21.5 52.5t52.5 21.5h332q31 0 52.5 -21.5t21.5 -52.5t21 -52.5t52 -21.5t52.5 -21.5t21.5 -52.5v-516q0 -31 -21.5 -52t-52.5 -21t-52 21t-21 52v516q0 31 -21.5 52.5t-52.5 21.5h-332 q-31 0 -52.5 21.5t-21.5 52.5z" />
<glyph unicode="&#xab;" horiz-adv-x="1474" d="M74 664q0 31 21 52t52 21h74q31 0 52.5 21.5t21.5 52.5t21.5 52.5t52.5 21.5h73q31 0 52.5 21t21.5 52t21.5 52.5t52.5 21.5h74q31 0 52 -21.5t21 -52.5t-21 -52t-52 -21h-74q-31 0 -52.5 -21.5t-21.5 -52.5t-21.5 -52.5t-52.5 -21.5h-73q-31 0 -52.5 -21t-21.5 -52 t21.5 -52.5t52.5 -21.5h73q31 0 52.5 -21.5t21.5 -52.5t21.5 -52.5t52.5 -21.5h74q31 0 52 -21t21 -52t-21 -52.5t-52 -21.5h-74q-31 0 -52.5 21.5t-21.5 52.5t-21.5 52t-52.5 21h-73q-31 0 -52.5 21.5t-21.5 52.5t-21.5 52.5t-52.5 21.5h-74q-31 0 -52 21.5t-21 52.5z M737 664q0 31 21.5 52t52.5 21h74q31 0 52 21.5t21 52.5t21.5 52.5t52.5 21.5h74q31 0 52.5 21t21.5 52t21 52.5t52 21.5h74q31 0 52.5 -21.5t21.5 -52.5t-21.5 -52t-52.5 -21h-74q-31 0 -52 -21.5t-21 -52.5t-21.5 -52.5t-52.5 -21.5h-74q-31 0 -52.5 -21t-21.5 -52 t21.5 -52.5t52.5 -21.5h74q31 0 52.5 -21.5t21.5 -52.5t21 -52.5t52 -21.5h74q31 0 52.5 -21t21.5 -52t-21.5 -52.5t-52.5 -21.5h-74q-31 0 -52 21.5t-21 52.5t-21.5 52t-52.5 21h-74q-31 0 -52.5 21.5t-21.5 52.5t-21 52.5t-52 21.5h-74q-31 0 -52.5 21.5t-21.5 52.5z" />
<glyph unicode="&#xac;" horiz-adv-x="1622" d="M147 958q0 31 21.5 52.5t52.5 21.5h1180q31 0 52.5 -21.5t21.5 -52.5t-21.5 -52t-52.5 -21h-1180q-31 0 -52.5 21t-21.5 52zM1327 369v368q0 31 21.5 52.5t52.5 21.5t52.5 -21.5t21.5 -52.5v-368q0 -31 -21.5 -52.5t-52.5 -21.5t-52.5 21.5t-21.5 52.5z" />
<glyph unicode="&#xad;" horiz-adv-x="811" d="M147 664q0 31 21.5 52t52.5 21h369q31 0 52.5 -21t21.5 -52t-21.5 -52.5t-52.5 -21.5h-369q-31 0 -52.5 21.5t-21.5 52.5z" />
<glyph unicode="&#xae;" horiz-adv-x="1622" d="M147 369v589q0 31 21.5 52.5t52.5 21.5t52.5 21.5t21.5 52.5t21.5 52.5t52.5 21.5t52 21t21 52t21.5 52.5t52.5 21.5h590q31 0 52.5 -21.5t21.5 -52.5t21 -52t52 -21t52.5 -21.5t21.5 -52.5t21.5 -52.5t52.5 -21.5t52.5 -21.5t21.5 -52.5v-589q0 -31 -21.5 -52.5 t-52.5 -21.5t-52.5 -21.5t-21.5 -52.5t-21.5 -52.5t-52.5 -21.5t-52 -21t-21 -52t-21.5 -52.5t-52.5 -21.5h-590q-31 0 -52.5 21.5t-21.5 52.5t-21 52t-52 21t-52.5 21.5t-21.5 52.5t-21.5 52.5t-52.5 21.5t-52.5 21.5t-21.5 52.5zM295 369q0 -31 21.5 -52.5t52.5 -21.5 t52 -21.5t21 -52.5t21.5 -52.5t52.5 -21.5h590q31 0 52.5 21.5t21.5 52.5t21 52.5t52 21.5t52.5 21.5t21.5 52.5v589q0 31 -21.5 52.5t-52.5 21.5t-52 21.5t-21 52.5t-21.5 52.5t-52.5 21.5h-590q-31 0 -52.5 -21.5t-21.5 -52.5t-21 -52.5t-52 -21.5t-52.5 -21.5 t-21.5 -52.5v-589zM516 369v589q0 31 21.5 52.5t52.5 21.5t52.5 -21.5t21.5 -52.5v-589q0 -31 -21.5 -52.5t-52.5 -21.5t-52.5 21.5t-21.5 52.5zM737 590q0 31 21.5 52.5t52.5 21.5h74q31 0 52 21t21 52v74q0 31 -21 52.5t-52 21.5h-74q-31 0 -52.5 21t-21.5 52t21.5 52.5 t52.5 21.5h74q31 0 52 -21.5t21 -52.5t21.5 -52t52.5 -21t52.5 -21.5t21.5 -52.5v-74q0 -31 -21.5 -52t-52.5 -21t-52.5 -21.5t-21.5 -52.5t21.5 -52.5t52.5 -21.5t52.5 -21.5t21.5 -52.5v-73q0 -31 -21.5 -52.5t-52.5 -21.5t-52.5 21.5t-21.5 52.5v73q0 31 -21 52.5 t-52 21.5h-74q-31 0 -52.5 21.5t-21.5 52.5z" />
<glyph unicode="&#xaf;" horiz-adv-x="811" d="M147 1401q0 31 21.5 52.5t52.5 21.5h369q31 0 52.5 -21.5t21.5 -52.5t-21.5 -52.5t-52.5 -21.5h-369q-31 0 -52.5 21.5t-21.5 52.5z" />
<glyph unicode="&#xb0;" horiz-adv-x="700" d="M74 1143v110q0 31 21 52.5t52 21.5t52.5 21.5t21.5 52.5t21.5 52.5t52.5 21.5h111q31 0 52 -21.5t21 -52.5t21.5 -52.5t52.5 -21.5t52.5 -21.5t21.5 -52.5v-110q0 -31 -21.5 -52.5t-52.5 -21.5t-52.5 -21.5t-21.5 -52.5t-21 -52t-52 -21h-111q-31 0 -52.5 21t-21.5 52 t-21.5 52.5t-52.5 21.5t-52 21.5t-21 52.5zM221 1143q0 -31 21.5 -52.5t52.5 -21.5h111q31 0 52 21.5t21 52.5v110q0 31 -21 52.5t-52 21.5h-111q-31 0 -52.5 -21.5t-21.5 -52.5v-110z" />
<glyph unicode="&#xb1;" horiz-adv-x="1179" d="M147 74q0 31 21.5 52t52.5 21h737q31 0 52.5 -21t21.5 -52t-21.5 -52.5t-52.5 -21.5h-737q-31 0 -52.5 21.5t-21.5 52.5zM147 664q0 31 21.5 52t52.5 21h148q31 0 52 -21t21 -52t-21 -52.5t-52 -21.5h-148q-31 0 -52.5 21.5t-21.5 52.5zM516 295v737q0 31 21.5 52.5 t52.5 21.5t52.5 -21.5t21.5 -52.5v-737q0 -31 -21.5 -52.5t-52.5 -21.5t-52.5 21.5t-21.5 52.5zM737 664q0 31 21.5 52t52.5 21h147q31 0 52.5 -21t21.5 -52t-21.5 -52.5t-52.5 -21.5h-147q-31 0 -52.5 21.5t-21.5 52.5z" />
<glyph unicode="&#xb2;" horiz-adv-x="774" d="M74 737v185q0 31 21 52t52 21t52.5 21.5t21.5 52.5t21.5 52.5t52.5 21.5h184q31 0 52.5 21.5t21.5 52.5v36q0 31 -21.5 52.5t-52.5 21.5h-295q-31 0 -52 21.5t-21 52.5t21 52.5t52 21.5h295q31 0 52.5 -21.5t21.5 -52.5t21.5 -52.5t52.5 -21.5t52 -21.5t21 -52.5v-36 q0 -31 -21 -52.5t-52 -21.5t-52.5 -21.5t-21.5 -52.5t-21.5 -52.5t-52.5 -21.5h-184q-31 0 -52.5 -21t-21.5 -52v-185q0 -31 -21.5 -52t-52.5 -21t-52 21t-21 52zM295 737q0 31 21.5 52.5t52.5 21.5h221q31 0 52.5 -21.5t21.5 -52.5t-21.5 -52t-52.5 -21h-221 q-31 0 -52.5 21t-21.5 52z" />
<glyph unicode="&#xb3;" horiz-adv-x="700" d="M74 737q0 31 21 52.5t52 21.5h259q31 0 52 21.5t21 52.5v37q0 31 -21 52t-52 21h-185q-31 0 -52.5 21.5t-21.5 52.5t21.5 52.5t52.5 21.5h185q31 0 52 21.5t21 52.5v36q0 31 -21 52.5t-52 21.5h-259q-31 0 -52 21.5t-21 52.5t21 52.5t52 21.5h259q31 0 52 -21.5t21 -52.5 t21.5 -52.5t52.5 -21.5t52.5 -21.5t21.5 -52.5v-36q0 -31 -21.5 -52.5t-52.5 -21.5t-52.5 -21.5t-21.5 -52.5t21.5 -52.5t52.5 -21.5t52.5 -21t21.5 -52v-37q0 -31 -21.5 -52.5t-52.5 -21.5t-52.5 -21.5t-21.5 -52.5t-21 -52t-52 -21h-259q-31 0 -52 21t-21 52z" />
<glyph unicode="&#xb4;" horiz-adv-x="811" d="M147 1253q0 31 21.5 52.5t52.5 21.5h111q31 0 52.5 21.5t21.5 52.5t21 52.5t52 21.5h111q31 0 52.5 -21.5t21.5 -52.5t-21.5 -52.5t-52.5 -21.5h-111q-31 0 -52 -21.5t-21 -52.5t-21.5 -52t-52.5 -21h-111q-31 0 -52.5 21t-21.5 52z" />
<glyph unicode="&#xb5;" d="M147 -369v1325q0 31 21.5 52.5t52.5 21.5t52.5 -21.5t21.5 -52.5v-1325q0 -31 -21.5 -52t-52.5 -21t-52.5 21t-21.5 52zM369 74q0 31 21 52t52 21h295q31 0 52.5 21.5t21.5 52.5v737q0 31 21.5 52.5t52.5 21.5t52 -21.5t21 -52.5v-737q0 -31 -21 -52.5t-52 -21.5 t-52.5 -21t-21.5 -52t-21.5 -52.5t-52.5 -21.5h-295q-31 0 -52 21.5t-21 52.5z" />
<glyph unicode="&#xb6;" horiz-adv-x="1253" d="M147 811v295q0 31 21.5 52.5t52.5 21.5t52.5 21t21.5 52t21.5 52.5t52.5 21.5h295q31 0 52 -21.5t21 -52.5v-1622q0 -31 -21 -52t-52 -21t-52.5 21t-21.5 52v885q0 31 -21.5 52.5t-52.5 21.5h-147q-31 0 -52.5 21.5t-21.5 52.5t-21.5 52t-52.5 21t-52.5 21.5t-21.5 52.5z M958 -369v1622q0 31 21.5 52.5t52.5 21.5t52.5 -21.5t21.5 -52.5v-1622q0 -31 -21.5 -52t-52.5 -21t-52.5 21t-21.5 52z" />
<glyph unicode="&#xb7;" horiz-adv-x="442" d="M147 664v73q0 31 21.5 52.5t52.5 21.5t52.5 -21.5t21.5 -52.5v-73q0 -31 -21.5 -52.5t-52.5 -21.5t-52.5 21.5t-21.5 52.5z" />
<glyph unicode="&#xb8;" horiz-adv-x="442" d="M147 -147q0 31 21.5 52t52.5 21t52.5 -21t21.5 -52v-74q0 -31 -21.5 -52.5t-52.5 -21.5t-52.5 21.5t-21.5 52.5v74z" />
<glyph unicode="&#xb9;" horiz-adv-x="516" d="M74 1401q0 31 21 52.5t52 21.5t52.5 -21.5t21.5 -52.5t-21.5 -52.5t-52.5 -21.5t-52 21.5t-21 52.5zM295 737v664q0 31 21.5 52.5t52.5 21.5t52 -21.5t21 -52.5v-664q0 -31 -21 -52t-52 -21t-52.5 21t-21.5 52z" />
<glyph unicode="&#xba;" horiz-adv-x="847" d="M74 885v368q0 31 21 52.5t52 21.5t52.5 21.5t21.5 52.5t21.5 52.5t52.5 21.5h258q31 0 52.5 -21.5t21.5 -52.5t21 -52.5t52 -21.5t52.5 -21.5t21.5 -52.5v-368q0 -31 -21.5 -52.5t-52.5 -21.5t-52 -21.5t-21 -52.5t-21.5 -52t-52.5 -21h-258q-31 0 -52.5 21t-21.5 52 t-21.5 52.5t-52.5 21.5t-52 21.5t-21 52.5zM221 885q0 -31 21.5 -52.5t52.5 -21.5h258q31 0 52.5 21.5t21.5 52.5v368q0 31 -21.5 52.5t-52.5 21.5h-258q-31 0 -52.5 -21.5t-21.5 -52.5v-368z" />
<glyph unicode="&#xbb;" horiz-adv-x="1474" d="M74 369q0 31 21 52t52 21h74q31 0 52.5 21.5t21.5 52.5t21.5 52.5t52.5 21.5h73q31 0 52.5 21.5t21.5 52.5t-21.5 52t-52.5 21h-73q-31 0 -52.5 21.5t-21.5 52.5t-21.5 52.5t-52.5 21.5h-74q-31 0 -52 21t-21 52t21 52.5t52 21.5h74q31 0 52.5 -21.5t21.5 -52.5t21.5 -52 t52.5 -21h73q31 0 52.5 -21.5t21.5 -52.5t21.5 -52.5t52.5 -21.5h74q31 0 52 -21t21 -52t-21 -52.5t-52 -21.5h-74q-31 0 -52.5 -21.5t-21.5 -52.5t-21.5 -52.5t-52.5 -21.5h-73q-31 0 -52.5 -21t-21.5 -52t-21.5 -52.5t-52.5 -21.5h-74q-31 0 -52 21.5t-21 52.5zM737 369 q0 31 21.5 52t52.5 21h74q31 0 52 21.5t21 52.5t21.5 52.5t52.5 21.5h74q31 0 52.5 21.5t21.5 52.5t-21.5 52t-52.5 21h-74q-31 0 -52.5 21.5t-21.5 52.5t-21 52.5t-52 21.5h-74q-31 0 -52.5 21t-21.5 52t21.5 52.5t52.5 21.5h74q31 0 52 -21.5t21 -52.5t21.5 -52t52.5 -21 h74q31 0 52.5 -21.5t21.5 -52.5t21 -52.5t52 -21.5h74q31 0 52.5 -21t21.5 -52t-21.5 -52.5t-52.5 -21.5h-74q-31 0 -52 -21.5t-21 -52.5t-21.5 -52.5t-52.5 -21.5h-74q-31 0 -52.5 -21t-21.5 -52t-21 -52.5t-52 -21.5h-74q-31 0 -52.5 21.5t-21.5 52.5z" />
<glyph unicode="&#xbc;" horiz-adv-x="1916" d="M74 1401q0 31 21 52.5t52 21.5t52.5 -21.5t21.5 -52.5t-21.5 -52.5t-52.5 -21.5t-52 21.5t-21 52.5zM295 737v664q0 31 21.5 52.5t52.5 21.5t52 -21.5t21 -52.5v-664q0 -31 -21 -52t-52 -21t-52.5 21t-21.5 52zM406 74v147q0 31 21 52.5t52 21.5t52.5 21.5t21.5 52.5v147 q0 31 21.5 52.5t52.5 21.5t52 21.5t21 52.5v147q0 31 21.5 52.5t52.5 21.5t52.5 21t21.5 52v148q0 31 21.5 52.5t52.5 21.5t52 21t21 52v148q0 31 21.5 52.5t52.5 21.5t52.5 -21.5t21.5 -52.5v-148q0 -31 -21.5 -52t-52.5 -21t-52.5 -21.5t-21.5 -52.5v-148q0 -31 -21 -52 t-52 -21t-52.5 -21.5t-21.5 -52.5v-147q0 -31 -21.5 -52.5t-52.5 -21.5t-52.5 -21.5t-21.5 -52.5v-147q0 -31 -21 -52.5t-52 -21.5t-52.5 -21.5t-21.5 -52.5v-147q0 -31 -21.5 -52.5t-52.5 -21.5t-52 21.5t-21 52.5zM1106 442v295q0 31 21.5 52.5t52.5 21.5t52 -21.5 t21 -52.5v-295q0 -31 21.5 -52t52.5 -21t52.5 -21.5t21.5 -52.5t-21.5 -52.5t-52.5 -21.5t-52.5 21.5t-21.5 52.5t-21 52.5t-52 21.5t-52.5 21t-21.5 52zM1475 74v663q0 31 21 52.5t52 21.5t52.5 -21.5t21.5 -52.5v-663q0 -31 -21.5 -52.5t-52.5 -21.5t-52 21.5t-21 52.5z M1696 295q0 31 21 52.5t52 21.5t52.5 -21.5t21.5 -52.5t-21.5 -52.5t-52.5 -21.5t-52 21.5t-21 52.5z" />
<glyph unicode="&#xbd;" horiz-adv-x="1769" d="M74 1401q0 31 21 52.5t52 21.5t52.5 -21.5t21.5 -52.5t-21.5 -52.5t-52.5 -21.5t-52 21.5t-21 52.5zM295 737v664q0 31 21.5 52.5t52.5 21.5t52 -21.5t21 -52.5v-664q0 -31 -21 -52t-52 -21t-52.5 21t-21.5 52zM406 74v147q0 31 21 52.5t52 21.5t52.5 21.5t21.5 52.5v147 q0 31 21.5 52.5t52.5 21.5t52 21.5t21 52.5v147q0 31 21.5 52.5t52.5 21.5t52.5 21t21.5 52v148q0 31 21.5 52.5t52.5 21.5t52 21t21 52v148q0 31 21.5 52.5t52.5 21.5t52.5 -21.5t21.5 -52.5v-148q0 -31 -21.5 -52t-52.5 -21t-52.5 -21.5t-21.5 -52.5v-148q0 -31 -21 -52 t-52 -21t-52.5 -21.5t-21.5 -52.5v-147q0 -31 -21.5 -52.5t-52.5 -21.5t-52.5 -21.5t-21.5 -52.5v-147q0 -31 -21 -52.5t-52 -21.5t-52.5 -21.5t-21.5 -52.5v-147q0 -31 -21.5 -52.5t-52.5 -21.5t-52 21.5t-21 52.5zM1069 74v184q0 31 21.5 52.5t52.5 21.5t52.5 21.5 t21.5 52.5t21 52t52 21h185q31 0 52 21.5t21 52.5v37q0 31 -21 52.5t-52 21.5h-295q-31 0 -52.5 21t-21.5 52t21.5 52.5t52.5 21.5h295q31 0 52 -21.5t21 -52.5t21.5 -52t52.5 -21t52.5 -21.5t21.5 -52.5v-37q0 -31 -21.5 -52.5t-52.5 -21.5t-52.5 -21t-21.5 -52t-21 -52.5 t-52 -21.5h-185q-31 0 -52 -21.5t-21 -52.5v-184q0 -31 -21.5 -52.5t-52.5 -21.5t-52.5 21.5t-21.5 52.5zM1290 74q0 31 21.5 52t52.5 21h221q31 0 52.5 -21t21.5 -52t-21.5 -52.5t-52.5 -21.5h-221q-31 0 -52.5 21.5t-21.5 52.5z" />
<glyph unicode="&#xbe;" horiz-adv-x="2027" d="M74 737q0 31 21 52.5t52 21.5h259q31 0 52 21.5t21 52.5v37q0 31 -21 52t-52 21h-185q-31 0 -52.5 21.5t-21.5 52.5t21.5 52.5t52.5 21.5h185q31 0 52 21.5t21 52.5v36q0 31 -21 52.5t-52 21.5h-259q-31 0 -52 21.5t-21 52.5t21 52.5t52 21.5h259q31 0 52 -21.5t21 -52.5 t21.5 -52.5t52.5 -21.5t52.5 -21.5t21.5 -52.5v-36q0 -31 -21.5 -52.5t-52.5 -21.5t-52.5 -21.5t-21.5 -52.5t21.5 -52.5t52.5 -21.5t52.5 -21t21.5 -52v-37q0 -31 -21.5 -52.5t-52.5 -21.5t-52.5 -21.5t-21.5 -52.5t-21 -52t-52 -21h-259q-31 0 -52 21t-21 52zM516 74v147 q0 31 21.5 52.5t52.5 21.5t52.5 21.5t21.5 52.5v147q0 31 21 52.5t52 21.5t52.5 21.5t21.5 52.5v147q0 31 21.5 52.5t52.5 21.5t52 21t21 52v148q0 31 21.5 52.5t52.5 21.5t52.5 21t21.5 52v148q0 31 21.5 52.5t52.5 21.5t52 -21.5t21 -52.5v-148q0 -31 -21 -52t-52 -21 t-52.5 -21.5t-21.5 -52.5v-148q0 -31 -21.5 -52t-52.5 -21t-52.5 -21.5t-21.5 -52.5v-147q0 -31 -21 -52.5t-52 -21.5t-52.5 -21.5t-21.5 -52.5v-147q0 -31 -21.5 -52.5t-52.5 -21.5t-52 -21.5t-21 -52.5v-147q0 -31 -21.5 -52.5t-52.5 -21.5t-52.5 21.5t-21.5 52.5z M1217 442v295q0 31 21 52.5t52 21.5t52.5 -21.5t21.5 -52.5v-295q0 -31 21.5 -52t52.5 -21t52 -21.5t21 -52.5t-21 -52.5t-52 -21.5t-52.5 21.5t-21.5 52.5t-21.5 52.5t-52.5 21.5t-52 21t-21 52zM1585 74v663q0 31 21.5 52.5t52.5 21.5t52.5 -21.5t21.5 -52.5v-663 q0 -31 -21.5 -52.5t-52.5 -21.5t-52.5 21.5t-21.5 52.5zM1806 295q0 31 21.5 52.5t52.5 21.5t52.5 -21.5t21.5 -52.5t-21.5 -52.5t-52.5 -21.5t-52.5 21.5t-21.5 52.5z" />
<glyph unicode="&#xbf;" horiz-adv-x="847" d="M147 -74v221q0 31 21.5 52.5t52.5 21.5t52.5 21.5t21.5 52.5t21.5 52.5t52.5 21.5t52 21t21 52v111q0 31 21.5 52.5t52.5 21.5t52.5 -21.5t21.5 -52.5v-111q0 -31 -21.5 -52t-52.5 -21t-52.5 -21.5t-21.5 -52.5t-21 -52.5t-52 -21.5t-52.5 -21.5t-21.5 -52.5v-221 q0 -31 21.5 -52t52.5 -21h368q31 0 52.5 -21.5t21.5 -52.5t-21.5 -52.5t-52.5 -21.5h-368q-31 0 -52.5 21.5t-21.5 52.5t-21.5 52.5t-52.5 21.5t-52.5 21t-21.5 52zM442 885v73q0 31 21.5 52.5t52.5 21.5t52.5 -21.5t21.5 -52.5v-73q0 -31 -21.5 -52.5t-52.5 -21.5 t-52.5 21.5t-21.5 52.5z" />
<glyph unicode="&#xc0;" horiz-adv-x="1216" d="M129 74v516q0 31 21.5 52.5t52.5 21.5t52 21t21 52v369q0 31 21.5 52.5t52.5 21.5t52.5 21t21.5 52t21.5 52.5t52.5 21.5h221q31 0 52.5 -21.5t21.5 -52.5t21 -52t52 -21t52.5 -21.5t21.5 -52.5v-369q0 -31 21.5 -52t52.5 -21t52 -21.5t21 -52.5v-516q0 -31 -21 -52.5 t-52 -21.5t-52.5 21.5t-21.5 52.5v516q0 31 -21.5 52.5t-52.5 21.5t-52 21t-21 52v369q0 29 -25 51.5t-53 22.5h-217q-29 0 -51.5 -22.5t-22.5 -51.5v-369q0 -31 -21.5 -52t-52.5 -21t-52.5 -21.5t-21.5 -52.5v-516q0 -31 -21 -52.5t-52 -21.5t-52.5 21.5t-21.5 52.5z M350 369q0 31 21.5 52t52.5 21h369q31 0 52 -21t21 -52t-21 -52.5t-52 -21.5h-369q-31 0 -52.5 21.5t-21.5 52.5zM350 1696q0 31 21.5 52t52.5 21h111q31 0 52 -21t21 -52t21.5 -52.5t52.5 -21.5h111q31 0 52 -21.5t21 -52.5t-21 -52t-52 -21h-111q-31 0 -52.5 21t-21.5 52 t-21 52.5t-52 21.5h-111q-31 0 -52.5 21.5t-21.5 52.5z" />
<glyph unicode="&#xc1;" horiz-adv-x="1216" d="M129 74v516q0 31 21.5 52.5t52.5 21.5t52 21t21 52v369q0 31 21.5 52.5t52.5 21.5t52.5 21t21.5 52t21.5 52.5t52.5 21.5h221q31 0 52.5 -21.5t21.5 -52.5t21 -52t52 -21t52.5 -21.5t21.5 -52.5v-369q0 -31 21.5 -52t52.5 -21t52 -21.5t21 -52.5v-516q0 -31 -21 -52.5 t-52 -21.5t-52.5 21.5t-21.5 52.5v516q0 31 -21.5 52.5t-52.5 21.5t-52 21t-21 52v369q0 29 -25 51.5t-53 22.5h-217q-29 0 -51.5 -22.5t-22.5 -51.5v-369q0 -31 -21.5 -52t-52.5 -21t-52.5 -21.5t-21.5 -52.5v-516q0 -31 -21 -52.5t-52 -21.5t-52.5 21.5t-21.5 52.5z M350 369q0 31 21.5 52t52.5 21h369q31 0 52 -21t21 -52t-21 -52.5t-52 -21.5h-369q-31 0 -52.5 21.5t-21.5 52.5zM350 1548q0 31 21.5 52.5t52.5 21.5h111q31 0 52 21.5t21 52.5t21.5 52t52.5 21h111q31 0 52 -21t21 -52t-21 -52.5t-52 -21.5h-111q-31 0 -52.5 -21.5 t-21.5 -52.5t-21 -52t-52 -21h-111q-31 0 -52.5 21t-21.5 52z" />
<glyph unicode="&#xc2;" horiz-adv-x="1216" d="M129 74v516q0 31 21.5 52.5t52.5 21.5t52 21t21 52v369q0 31 21.5 52.5t52.5 21.5t52.5 21t21.5 52t21.5 52.5t52.5 21.5h221q31 0 52.5 -21.5t21.5 -52.5t21 -52t52 -21t52.5 -21.5t21.5 -52.5v-369q0 -31 21.5 -52t52.5 -21t52 -21.5t21 -52.5v-516q0 -31 -21 -52.5 t-52 -21.5t-52.5 21.5t-21.5 52.5v516q0 31 -21.5 52.5t-52.5 21.5t-52 21t-21 52v369q0 29 -25 51.5t-53 22.5h-217q-29 0 -51.5 -22.5t-22.5 -51.5v-369q0 -31 -21.5 -52t-52.5 -21t-52.5 -21.5t-21.5 -52.5v-516q0 -31 -21 -52.5t-52 -21.5t-52.5 21.5t-21.5 52.5z M350 369q0 31 21.5 52t52.5 21h369q31 0 52 -21t21 -52t-21 -52.5t-52 -21.5h-369q-31 0 -52.5 21.5t-21.5 52.5zM350 1548q0 31 21.5 52.5t52.5 21.5t52.5 21.5t21.5 52.5t21 52t52 21h74q31 0 52.5 -21t21.5 -52t21.5 -52.5t52.5 -21.5t52 -21.5t21 -52.5t-21 -52t-52 -21 t-52.5 21t-21.5 52t-21.5 52.5t-52.5 21.5h-74q-31 0 -52 -21.5t-21 -52.5t-21.5 -52t-52.5 -21t-52.5 21t-21.5 52z" />
<glyph unicode="&#xc3;" horiz-adv-x="1216" d="M129 74v516q0 31 21.5 52.5t52.5 21.5t52 21t21 52v369q0 31 21.5 52.5t52.5 21.5t52.5 21t21.5 52t21.5 52.5t52.5 21.5h221q31 0 52.5 -21.5t21.5 -52.5t21 -52t52 -21t52.5 -21.5t21.5 -52.5v-369q0 -31 21.5 -52t52.5 -21t52 -21.5t21 -52.5v-516q0 -31 -21 -52.5 t-52 -21.5t-52.5 21.5t-21.5 52.5v516q0 31 -21.5 52.5t-52.5 21.5t-52 21t-21 52v369q0 29 -25 51.5t-53 22.5h-217q-29 0 -51.5 -22.5t-22.5 -51.5v-369q0 -31 -21.5 -52t-52.5 -21t-52.5 -21.5t-21.5 -52.5v-516q0 -31 -21 -52.5t-52 -21.5t-52.5 21.5t-21.5 52.5z M313 1548q0 31 21.5 52.5t52.5 21.5t52.5 21.5t21.5 52.5t21.5 52t52.5 21t52 -21t21 -52t21.5 -52.5t52.5 -21.5t52.5 21.5t21.5 52.5t21 52t52 21t52.5 -21t21.5 -52t-21.5 -52.5t-52.5 -21.5t-52 -21.5t-21 -52.5t-21.5 -52t-52.5 -21t-52.5 21t-21.5 52t-21 52.5 t-52 21.5t-52.5 -21.5t-21.5 -52.5t-21.5 -52t-52.5 -21t-52.5 21t-21.5 52zM350 369q0 31 21.5 52t52.5 21h369q31 0 52 -21t21 -52t-21 -52.5t-52 -21.5h-369q-31 0 -52.5 21.5t-21.5 52.5z" />
<glyph unicode="&#xc4;" horiz-adv-x="1216" d="M129 74v516q0 31 21.5 52.5t52.5 21.5t52 21t21 52v369q0 31 21.5 52.5t52.5 21.5t52.5 21t21.5 52t21.5 52.5t52.5 21.5h221q31 0 52.5 -21.5t21.5 -52.5t21 -52t52 -21t52.5 -21.5t21.5 -52.5v-369q0 -31 21.5 -52t52.5 -21t52 -21.5t21 -52.5v-516q0 -31 -21 -52.5 t-52 -21.5t-52.5 21.5t-21.5 52.5v516q0 31 -21.5 52.5t-52.5 21.5t-52 21t-21 52v369q0 29 -25 51.5t-53 22.5h-217q-29 0 -51.5 -22.5t-22.5 -51.5v-369q0 -31 -21.5 -52t-52.5 -21t-52.5 -21.5t-21.5 -52.5v-516q0 -31 -21 -52.5t-52 -21.5t-52.5 21.5t-21.5 52.5z M350 369q0 31 21.5 52t52.5 21h369q31 0 52 -21t21 -52t-21 -52.5t-52 -21.5h-369q-31 0 -52.5 21.5t-21.5 52.5zM350 1622v74q0 31 21.5 52t52.5 21t52.5 -21t21.5 -52v-74q0 -31 -21.5 -52.5t-52.5 -21.5t-52.5 21.5t-21.5 52.5zM719 1622v74q0 31 21.5 52t52.5 21t52 -21 t21 -52v-74q0 -31 -21 -52.5t-52 -21.5t-52.5 21.5t-21.5 52.5z" />
<glyph unicode="&#xc5;" horiz-adv-x="1216" d="M129 74v516q0 31 21.5 52.5t52.5 21.5t52 21t21 52v369q0 31 21.5 52.5t52.5 21.5t52.5 21t21.5 52t21.5 52.5t52.5 21.5h221q31 0 52.5 -21.5t21.5 -52.5t21 -52t52 -21t52.5 -21.5t21.5 -52.5v-369q0 -31 21.5 -52t52.5 -21t52 -21.5t21 -52.5v-516q0 -31 -21 -52.5 t-52 -21.5t-52.5 21.5t-21.5 52.5v516q0 31 -21.5 52.5t-52.5 21.5t-52 21t-21 52v369q0 29 -25 51.5t-53 22.5h-217q-29 0 -51.5 -22.5t-22.5 -51.5v-369q0 -31 -21.5 -52t-52.5 -21t-52.5 -21.5t-21.5 -52.5v-516q0 -31 -21 -52.5t-52 -21.5t-52.5 21.5t-21.5 52.5z M350 369q0 31 21.5 52t52.5 21h369q31 0 52 -21t21 -52t-21 -52.5t-52 -21.5h-369q-31 0 -52.5 21.5t-21.5 52.5zM387 1622q0 31 21.5 52.5t52.5 21.5t52.5 21t21.5 52t21 52.5t52 21.5t52.5 -21.5t21.5 -52.5t21.5 -52t52.5 -21t52 -21.5t21 -52.5t-21 -52.5t-52 -21.5 t-52.5 -21t-21.5 -52t-21.5 -52.5t-52.5 -21.5t-52 21.5t-21 52.5t-21.5 52t-52.5 21t-52.5 21.5t-21.5 52.5zM535 1622q0 -31 21 -52.5t52 -21.5t52.5 21.5t21.5 52.5t-21.5 52.5t-52.5 21.5t-52 -21.5t-21 -52.5z" />
<glyph unicode="&#xc6;" horiz-adv-x="1677" d="M129 74v516q0 31 21.5 52.5t52.5 21.5t52 21t21 52v369q0 31 21.5 52.5t52.5 21.5t52.5 21t21.5 52t21.5 52.5t52.5 21.5h221q31 0 52.5 -21.5t21.5 -52.5t-21.5 -52t-52.5 -21h-221q-29 0 -51.5 -22.5t-22.5 -51.5v-369q0 -31 -21.5 -52t-52.5 -21t-52.5 -21.5 t-21.5 -52.5v-516q0 -31 -21 -52.5t-52 -21.5t-52.5 21.5t-21.5 52.5zM350 369q0 31 21.5 52t52.5 21h295q31 0 52.5 -21t21.5 -52t-21.5 -52.5t-52.5 -21.5h-295q-31 0 -52.5 21.5t-21.5 52.5zM866 74v1179q0 31 21.5 52.5t52.5 21.5t52.5 -21.5t21.5 -52.5v-1179 q0 -31 -21.5 -52.5t-52.5 -21.5t-52.5 21.5t-21.5 52.5zM1087 74q0 31 21.5 52t52.5 21h369q31 0 52.5 -21t21.5 -52t-21.5 -52.5t-52.5 -21.5h-369q-31 0 -52.5 21.5t-21.5 52.5zM1087 664q0 31 21.5 52t52.5 21h295q31 0 52.5 -21t21.5 -52t-21.5 -52.5t-52.5 -21.5h-295 q-31 0 -52.5 21.5t-21.5 52.5zM1087 1253q0 31 21.5 52.5t52.5 21.5h369q31 0 52.5 -21.5t21.5 -52.5t-21.5 -52t-52.5 -21h-369q-31 0 -52.5 21t-21.5 52z" />
<glyph unicode="&#xc7;" horiz-adv-x="958" d="M147 221v885q0 31 21.5 52.5t52.5 21.5t52.5 21t21.5 52t21.5 52.5t52.5 21.5h442q31 0 52.5 -21.5t21.5 -52.5t-21.5 -52t-52.5 -21h-442q-31 0 -52.5 -21.5t-21.5 -52.5v-885q0 -31 21.5 -52.5t52.5 -21.5h442q31 0 52.5 -21t21.5 -52t-21.5 -52.5t-52.5 -21.5h-442 q-31 0 -52.5 21.5t-21.5 52.5t-21.5 52t-52.5 21t-52.5 21.5t-21.5 52.5zM498 -147q0 31 21 52t52 21t52.5 -21t21.5 -52v-74q0 -31 -21.5 -52.5t-52.5 -21.5t-52 21.5t-21 52.5v74z" />
<glyph unicode="&#xc8;" horiz-adv-x="958" d="M147 74v1179q0 31 21.5 52.5t52.5 21.5t52.5 -21.5t21.5 -52.5v-1179q0 -31 -21.5 -52.5t-52.5 -21.5t-52.5 21.5t-21.5 52.5zM221 1696q0 31 21.5 52t52.5 21h111q31 0 52 -21t21 -52t21.5 -52.5t52.5 -21.5h111q31 0 52 -21.5t21 -52.5t-21 -52t-52 -21h-111 q-31 0 -52.5 21t-21.5 52t-21 52.5t-52 21.5h-111q-31 0 -52.5 21.5t-21.5 52.5zM369 74q0 31 21 52t52 21h369q31 0 52.5 -21t21.5 -52t-21.5 -52.5t-52.5 -21.5h-369q-31 0 -52 21.5t-21 52.5zM369 664q0 31 21 52t52 21h295q31 0 52.5 -21t21.5 -52t-21.5 -52.5 t-52.5 -21.5h-295q-31 0 -52 21.5t-21 52.5zM369 1253q0 31 21 52.5t52 21.5h369q31 0 52.5 -21.5t21.5 -52.5t-21.5 -52t-52.5 -21h-369q-31 0 -52 21t-21 52z" />
<glyph unicode="&#xc9;" horiz-adv-x="958" d="M147 74v1179q0 31 21.5 52.5t52.5 21.5t52.5 -21.5t21.5 -52.5v-1179q0 -31 -21.5 -52.5t-52.5 -21.5t-52.5 21.5t-21.5 52.5zM258 1548q0 31 21.5 52.5t52.5 21.5h110q31 0 52.5 21.5t21.5 52.5t21.5 52t52.5 21h110q31 0 52.5 -21t21.5 -52t-21.5 -52.5t-52.5 -21.5 h-110q-31 0 -52.5 -21.5t-21.5 -52.5t-21.5 -52t-52.5 -21h-110q-31 0 -52.5 21t-21.5 52zM369 74q0 31 21 52t52 21h369q31 0 52.5 -21t21.5 -52t-21.5 -52.5t-52.5 -21.5h-369q-31 0 -52 21.5t-21 52.5zM369 664q0 31 21 52t52 21h295q31 0 52.5 -21t21.5 -52t-21.5 -52.5 t-52.5 -21.5h-295q-31 0 -52 21.5t-21 52.5zM369 1253q0 31 21 52.5t52 21.5h369q31 0 52.5 -21.5t21.5 -52.5t-21.5 -52t-52.5 -21h-369q-31 0 -52 21t-21 52z" />
<glyph unicode="&#xca;" horiz-adv-x="958" d="M147 74v1179q0 31 21.5 52.5t52.5 21.5t52.5 -21.5t21.5 -52.5v-1179q0 -31 -21.5 -52.5t-52.5 -21.5t-52.5 21.5t-21.5 52.5zM221 1548q0 31 21.5 52.5t52.5 21.5t52.5 21.5t21.5 52.5t21 52t52 21h74q31 0 52.5 -21t21.5 -52t21.5 -52.5t52.5 -21.5t52 -21.5t21 -52.5 t-21 -52t-52 -21t-52.5 21t-21.5 52t-21.5 52.5t-52.5 21.5h-74q-31 0 -52 -21.5t-21 -52.5t-21.5 -52t-52.5 -21t-52.5 21t-21.5 52zM369 74q0 31 21 52t52 21h369q31 0 52.5 -21t21.5 -52t-21.5 -52.5t-52.5 -21.5h-369q-31 0 -52 21.5t-21 52.5zM369 664q0 31 21 52 t52 21h295q31 0 52.5 -21t21.5 -52t-21.5 -52.5t-52.5 -21.5h-295q-31 0 -52 21.5t-21 52.5zM369 1253q0 31 21 52.5t52 21.5h369q31 0 52.5 -21.5t21.5 -52.5t-21.5 -52t-52.5 -21h-369q-31 0 -52 21t-21 52z" />
<glyph unicode="&#xcb;" horiz-adv-x="958" d="M147 74v1179q0 31 21.5 52.5t52.5 21.5t52.5 -21.5t21.5 -52.5v-1179q0 -31 -21.5 -52.5t-52.5 -21.5t-52.5 21.5t-21.5 52.5zM221 1622v74q0 31 21.5 52t52.5 21t52.5 -21t21.5 -52v-74q0 -31 -21.5 -52.5t-52.5 -21.5t-52.5 21.5t-21.5 52.5zM369 74q0 31 21 52t52 21 h369q31 0 52.5 -21t21.5 -52t-21.5 -52.5t-52.5 -21.5h-369q-31 0 -52 21.5t-21 52.5zM369 664q0 31 21 52t52 21h295q31 0 52.5 -21t21.5 -52t-21.5 -52.5t-52.5 -21.5h-295q-31 0 -52 21.5t-21 52.5zM369 1253q0 31 21 52.5t52 21.5h369q31 0 52.5 -21.5t21.5 -52.5 t-21.5 -52t-52.5 -21h-369q-31 0 -52 21t-21 52zM590 1622v74q0 31 21.5 52t52.5 21t52 -21t21 -52v-74q0 -31 -21 -52.5t-52 -21.5t-52.5 21.5t-21.5 52.5z" />
<glyph unicode="&#xcc;" horiz-adv-x="442" d="M-37 1696q0 31 21.5 52t52.5 21h110q31 0 52.5 -21t21.5 -52t21.5 -52.5t52.5 -21.5h111q31 0 52 -21.5t21 -52.5t-21 -52t-52 -21h-111q-31 0 -52.5 21t-21.5 52t-21.5 52.5t-52.5 21.5h-110q-31 0 -52.5 21.5t-21.5 52.5zM147 74v1179q0 31 21.5 52.5t52.5 21.5 t52.5 -21.5t21.5 -52.5v-1179q0 -31 -21.5 -52.5t-52.5 -21.5t-52.5 21.5t-21.5 52.5z" />
<glyph unicode="&#xcd;" horiz-adv-x="442" d="M-37 1548q0 31 21.5 52.5t52.5 21.5h110q31 0 52.5 21.5t21.5 52.5t21.5 52t52.5 21h111q31 0 52 -21t21 -52t-21 -52.5t-52 -21.5h-111q-31 0 -52.5 -21.5t-21.5 -52.5t-21.5 -52t-52.5 -21h-110q-31 0 -52.5 21t-21.5 52zM147 74v1179q0 31 21.5 52.5t52.5 21.5 t52.5 -21.5t21.5 -52.5v-1179q0 -31 -21.5 -52.5t-52.5 -21.5t-52.5 21.5t-21.5 52.5z" />
<glyph unicode="&#xce;" horiz-adv-x="442" d="M-37 1548q0 31 21.5 52.5t52.5 21.5t52.5 21.5t21.5 52.5t21 52t52 21h74q31 0 52.5 -21t21.5 -52t21.5 -52.5t52.5 -21.5t52 -21.5t21 -52.5t-21 -52t-52 -21t-52.5 21t-21.5 52t-21.5 52.5t-52.5 21.5h-74q-31 0 -52 -21.5t-21 -52.5t-21.5 -52t-52.5 -21t-52.5 21 t-21.5 52zM147 74v1179q0 31 21.5 52.5t52.5 21.5t52.5 -21.5t21.5 -52.5v-1179q0 -31 -21.5 -52.5t-52.5 -21.5t-52.5 21.5t-21.5 52.5z" />
<glyph unicode="&#xcf;" horiz-adv-x="442" d="M-37 1622v74q0 31 21.5 52t52.5 21t52.5 -21t21.5 -52v-74q0 -31 -21.5 -52.5t-52.5 -21.5t-52.5 21.5t-21.5 52.5zM147 74v1179q0 31 21.5 52.5t52.5 21.5t52.5 -21.5t21.5 -52.5v-1179q0 -31 -21.5 -52.5t-52.5 -21.5t-52.5 21.5t-21.5 52.5zM332 1622v74q0 31 21.5 52 t52.5 21t52 -21t21 -52v-74q0 -31 -21 -52.5t-52 -21.5t-52.5 21.5t-21.5 52.5z" />
<glyph unicode="&#xd0;" horiz-adv-x="1382" d="M0 664q0 31 21.5 52t52.5 21h442q31 0 52.5 -21t21.5 -52t-21.5 -52.5t-52.5 -21.5h-442q-31 0 -52.5 21.5t-21.5 52.5zM221 74v368q0 31 21.5 52.5t52.5 21.5t52.5 -21.5t21.5 -52.5v-368q0 -31 -21.5 -52.5t-52.5 -21.5t-52.5 21.5t-21.5 52.5zM221 885v368 q0 31 21.5 52.5t52.5 21.5t52.5 -21.5t21.5 -52.5v-368q0 -31 -21.5 -52.5t-52.5 -21.5t-52.5 21.5t-21.5 52.5zM442 74q0 31 21.5 52t52.5 21h369q31 0 52 21.5t21 52.5t21.5 52.5t52.5 21.5t52.5 21.5t21.5 52.5v589q0 31 -21.5 52.5t-52.5 21.5t-52.5 21.5t-21.5 52.5 t-21 52.5t-52 21.5h-369q-31 0 -52.5 21t-21.5 52t21.5 52.5t52.5 21.5h369q31 0 52 -21.5t21 -52.5t21.5 -52t52.5 -21t52.5 -21.5t21.5 -52.5t21.5 -52.5t52.5 -21.5t52 -21.5t21 -52.5v-589q0 -31 -21 -52.5t-52 -21.5t-52.5 -21.5t-21.5 -52.5t-21.5 -52.5t-52.5 -21.5 t-52.5 -21t-21.5 -52t-21 -52.5t-52 -21.5h-369q-31 0 -52.5 21.5t-21.5 52.5z" />
<glyph unicode="&#xd1;" horiz-adv-x="1216" d="M147 74v1179q0 31 21.5 52.5t52.5 21.5t52.5 -21.5t21.5 -52.5v-1179q0 -31 -21.5 -52.5t-52.5 -21.5t-52.5 21.5t-21.5 52.5zM369 1253q0 31 21 52.5t52 21.5h406q31 0 52.5 -21.5t21.5 -52.5t21 -52t52 -21t52.5 -21.5t21.5 -52.5v-1032q0 -31 -21.5 -52.5t-52.5 -21.5 t-52 21.5t-21 52.5v1032q0 31 -21.5 52.5t-52.5 21.5h-406q-31 0 -52 21t-21 52zM387 1548q0 31 21.5 52.5t52.5 21.5t52.5 21.5t21.5 52.5t21 52t52 21t52.5 -21t21.5 -52t21.5 -52.5t52.5 -21.5t52 21.5t21 52.5t21.5 52t52.5 21t52.5 -21t21.5 -52t-21.5 -52.5 t-52.5 -21.5t-52.5 -21.5t-21.5 -52.5t-21 -52t-52 -21t-52.5 21t-21.5 52t-21.5 52.5t-52.5 21.5t-52 -21.5t-21 -52.5t-21.5 -52t-52.5 -21t-52.5 21t-21.5 52z" />
<glyph unicode="&#xd2;" horiz-adv-x="1327" d="M147 221v885q0 31 21.5 52.5t52.5 21.5t52.5 21t21.5 52t21.5 52.5t52.5 21.5h589q31 0 52.5 -21.5t21.5 -52.5t21.5 -52t52.5 -21t52.5 -21.5t21.5 -52.5v-885q0 -31 -21.5 -52.5t-52.5 -21.5t-52.5 -21t-21.5 -52t-21.5 -52.5t-52.5 -21.5h-589q-31 0 -52.5 21.5 t-21.5 52.5t-21.5 52t-52.5 21t-52.5 21.5t-21.5 52.5zM295 221q0 -30 21.5 -51t52.5 -23h589q31 0 52.5 21.5t21.5 52.5v885q0 31 -21.5 52.5t-52.5 21.5h-589q-31 0 -52.5 -21.5t-21.5 -52.5v-885zM406 1696q0 31 21 52t52 21h111q31 0 52.5 -21t21.5 -52t21 -52.5 t52 -21.5h111q31 0 52.5 -21.5t21.5 -52.5t-21.5 -52t-52.5 -21h-111q-31 0 -52 21t-21 52t-21.5 52.5t-52.5 21.5h-111q-31 0 -52 21.5t-21 52.5z" />
<glyph unicode="&#xd3;" horiz-adv-x="1327" d="M147 221v885q0 31 21.5 52.5t52.5 21.5t52.5 21t21.5 52t21.5 52.5t52.5 21.5h589q31 0 52.5 -21.5t21.5 -52.5t21.5 -52t52.5 -21t52.5 -21.5t21.5 -52.5v-885q0 -31 -21.5 -52.5t-52.5 -21.5t-52.5 -21t-21.5 -52t-21.5 -52.5t-52.5 -21.5h-589q-31 0 -52.5 21.5 t-21.5 52.5t-21.5 52t-52.5 21t-52.5 21.5t-21.5 52.5zM295 221q0 -30 21.5 -51t52.5 -23h589q31 0 52.5 21.5t21.5 52.5v885q0 31 -21.5 52.5t-52.5 21.5h-589q-31 0 -52.5 -21.5t-21.5 -52.5v-885zM406 1548q0 31 21 52.5t52 21.5h111q31 0 52.5 21.5t21.5 52.5t21 52 t52 21h111q31 0 52.5 -21t21.5 -52t-21.5 -52.5t-52.5 -21.5h-111q-31 0 -52 -21.5t-21 -52.5t-21.5 -52t-52.5 -21h-111q-31 0 -52 21t-21 52z" />
<glyph unicode="&#xd4;" horiz-adv-x="1327" d="M147 221v885q0 31 21.5 52.5t52.5 21.5t52.5 21t21.5 52t21.5 52.5t52.5 21.5h589q31 0 52.5 -21.5t21.5 -52.5t21.5 -52t52.5 -21t52.5 -21.5t21.5 -52.5v-885q0 -31 -21.5 -52.5t-52.5 -21.5t-52.5 -21t-21.5 -52t-21.5 -52.5t-52.5 -21.5h-589q-31 0 -52.5 21.5 t-21.5 52.5t-21.5 52t-52.5 21t-52.5 21.5t-21.5 52.5zM295 221q0 -30 21.5 -51t52.5 -23h589q31 0 52.5 21.5t21.5 52.5v885q0 31 -21.5 52.5t-52.5 21.5h-589q-31 0 -52.5 -21.5t-21.5 -52.5v-885zM406 1548q0 31 21 52.5t52 21.5t52.5 21.5t21.5 52.5t21.5 52t52.5 21h73 q31 0 52.5 -21t21.5 -52t21.5 -52.5t52.5 -21.5t52.5 -21.5t21.5 -52.5t-21.5 -52t-52.5 -21t-52.5 21t-21.5 52t-21.5 52.5t-52.5 21.5h-73q-31 0 -52.5 -21.5t-21.5 -52.5t-21.5 -52t-52.5 -21t-52 21t-21 52z" />
<glyph unicode="&#xd5;" horiz-adv-x="1327" d="M147 221v885q0 31 21.5 52.5t52.5 21.5t52.5 21t21.5 52t21.5 52.5t52.5 21.5h589q31 0 52.5 -21.5t21.5 -52.5t21.5 -52t52.5 -21t52.5 -21.5t21.5 -52.5v-885q0 -31 -21.5 -52.5t-52.5 -21.5t-52.5 -21t-21.5 -52t-21.5 -52.5t-52.5 -21.5h-589q-31 0 -52.5 21.5 t-21.5 52.5t-21.5 52t-52.5 21t-52.5 21.5t-21.5 52.5zM295 221q0 -30 21.5 -51t52.5 -23h589q31 0 52.5 21.5t21.5 52.5v885q0 31 -21.5 52.5t-52.5 21.5h-589q-31 0 -52.5 -21.5t-21.5 -52.5v-885zM369 1548q0 31 21 52.5t52 21.5t52.5 21.5t21.5 52.5t21.5 52t52.5 21 t52.5 -21t21.5 -52t21 -52.5t52 -21.5t52.5 21.5t21.5 52.5t21.5 52t52.5 21t52 -21t21 -52t-21 -52.5t-52 -21.5t-52.5 -21.5t-21.5 -52.5t-21.5 -52t-52.5 -21t-52 21t-21 52t-21.5 52.5t-52.5 21.5t-52.5 -21.5t-21.5 -52.5t-21.5 -52t-52.5 -21t-52 21t-21 52z" />
<glyph unicode="&#xd6;" horiz-adv-x="1327" d="M147 221v885q0 31 21.5 52.5t52.5 21.5t52.5 21t21.5 52t21.5 52.5t52.5 21.5h589q31 0 52.5 -21.5t21.5 -52.5t21.5 -52t52.5 -21t52.5 -21.5t21.5 -52.5v-885q0 -31 -21.5 -52.5t-52.5 -21.5t-52.5 -21t-21.5 -52t-21.5 -52.5t-52.5 -21.5h-589q-31 0 -52.5 21.5 t-21.5 52.5t-21.5 52t-52.5 21t-52.5 21.5t-21.5 52.5zM295 221q0 -30 21.5 -51t52.5 -23h589q31 0 52.5 21.5t21.5 52.5v885q0 31 -21.5 52.5t-52.5 21.5h-589q-31 0 -52.5 -21.5t-21.5 -52.5v-885zM406 1622v74q0 31 21 52t52 21t52.5 -21t21.5 -52v-74q0 -31 -21.5 -52.5 t-52.5 -21.5t-52 21.5t-21 52.5zM774 1622v74q0 31 21.5 52t52.5 21t52.5 -21t21.5 -52v-74q0 -31 -21.5 -52.5t-52.5 -21.5t-52.5 21.5t-21.5 52.5z" />
<glyph unicode="&#xd7;" horiz-adv-x="1032" d="M147 369q0 31 21.5 52t52.5 21t52.5 21.5t21.5 52.5t21.5 52.5t52.5 21.5t52 21.5t21 52.5t-21 52t-52 21t-52.5 21.5t-21.5 52.5t-21.5 52.5t-52.5 21.5t-52.5 21t-21.5 52t21.5 52.5t52.5 21.5t52.5 -21.5t21.5 -52.5t21.5 -52t52.5 -21t52 -21.5t21 -52.5t21.5 -52.5 t52.5 -21.5t52.5 21.5t21.5 52.5t21.5 52.5t52.5 21.5t52 21t21 52t21.5 52.5t52.5 21.5t52.5 -21.5t21.5 -52.5t-21.5 -52t-52.5 -21t-52.5 -21.5t-21.5 -52.5t-21 -52.5t-52 -21.5t-52.5 -21t-21.5 -52t21.5 -52.5t52.5 -21.5t52 -21.5t21 -52.5t21.5 -52.5t52.5 -21.5 t52.5 -21t21.5 -52t-21.5 -52.5t-52.5 -21.5t-52.5 21.5t-21.5 52.5t-21 52t-52 21t-52.5 21.5t-21.5 52.5t-21.5 52.5t-52.5 21.5t-52.5 -21.5t-21.5 -52.5t-21 -52.5t-52 -21.5t-52.5 -21t-21.5 -52t-21.5 -52.5t-52.5 -21.5t-52.5 21.5t-21.5 52.5z" />
<glyph unicode="&#xd8;" horiz-adv-x="1327" d="M147 295v811q0 31 21.5 52.5t52.5 21.5t52.5 21t21.5 52t21.5 52.5t52.5 21.5h264q31 0 52.5 -21.5t21.5 -52.5t-21.5 -52t-52.5 -21h-264q-31 0 -52.5 -21.5t-21.5 -52.5v-811q0 -31 -21.5 -52.5t-52.5 -21.5t-52.5 21.5t-21.5 52.5zM295 74q0 31 21.5 52t52.5 21 t52 21.5t21 52.5v185q0 31 21.5 52t52.5 21t52.5 21.5t21.5 52.5v221q0 31 21.5 52.5t52.5 21.5t52 21.5t21 52.5v184q0 31 21.5 52.5t52.5 21.5t52.5 21t21.5 52v148q0 31 21 52.5t52 21.5t52.5 -21.5t21.5 -52.5v-154q0 -31 -21.5 -52t-52.5 -21t-52 -19t-21 -49v-184 q0 -31 -21.5 -52.5t-52.5 -21.5t-52.5 -21.5t-21.5 -52.5v-221q0 -31 -21 -52.5t-52 -21.5t-52.5 -21t-21.5 -52v-185q0 -31 -21.5 -52.5t-52.5 -21.5t-52.5 -21t-21.5 -52v-154q0 -31 -21 -52.5t-52 -21.5t-52.5 21.5t-21.5 52.5v154zM621 74q0 31 21 52t52 21h264 q31 0 52.5 21.5t21.5 52.5v811q0 31 21.5 52.5t52.5 21.5t52.5 -21.5t21.5 -52.5v-811q0 -31 -21.5 -52.5t-52.5 -21.5t-52.5 -21t-21.5 -52t-21.5 -52.5t-52.5 -21.5h-264q-31 0 -52 21.5t-21 52.5z" />
<glyph unicode="&#xd9;" horiz-adv-x="1216" d="M147 221v1032q0 31 21.5 52.5t52.5 21.5t52.5 -21.5t21.5 -52.5v-1032q0 -31 21.5 -52.5t52.5 -21.5h405q31 0 52.5 -21t21.5 -52t-21.5 -52.5t-52.5 -21.5h-405q-31 0 -52.5 21.5t-21.5 52.5t-21.5 52t-52.5 21t-52.5 21.5t-21.5 52.5zM313 1696q0 31 21.5 52t52.5 21 h111q31 0 52 -21t21 -52t21.5 -52.5t52.5 -21.5h111q31 0 52 -21.5t21 -52.5t-21 -52t-52 -21h-111q-31 0 -52.5 21t-21.5 52t-21 52.5t-52 21.5h-111q-31 0 -52.5 21.5t-21.5 52.5zM922 74v1179q0 31 21 52.5t52 21.5t52.5 -21.5t21.5 -52.5v-1179q0 -31 -21.5 -52.5 t-52.5 -21.5t-52 21.5t-21 52.5z" />
<glyph unicode="&#xda;" horiz-adv-x="1216" d="M147 221v1032q0 31 21.5 52.5t52.5 21.5t52.5 -21.5t21.5 -52.5v-1032q0 -31 21.5 -52.5t52.5 -21.5h405q31 0 52.5 -21t21.5 -52t-21.5 -52.5t-52.5 -21.5h-405q-31 0 -52.5 21.5t-21.5 52.5t-21.5 52t-52.5 21t-52.5 21.5t-21.5 52.5zM313 1548q0 31 21.5 52.5 t52.5 21.5h111q31 0 52 21.5t21 52.5t21.5 52t52.5 21h111q31 0 52 -21t21 -52t-21 -52.5t-52 -21.5h-111q-31 0 -52.5 -21.5t-21.5 -52.5t-21 -52t-52 -21h-111q-31 0 -52.5 21t-21.5 52zM922 74v1179q0 31 21 52.5t52 21.5t52.5 -21.5t21.5 -52.5v-1179q0 -31 -21.5 -52.5 t-52.5 -21.5t-52 21.5t-21 52.5z" />
<glyph unicode="&#xdb;" horiz-adv-x="1216" d="M147 221v1032q0 31 21.5 52.5t52.5 21.5t52.5 -21.5t21.5 -52.5v-1032q0 -31 21.5 -52.5t52.5 -21.5h405q31 0 52.5 -21t21.5 -52t-21.5 -52.5t-52.5 -21.5h-405q-31 0 -52.5 21.5t-21.5 52.5t-21.5 52t-52.5 21t-52.5 21.5t-21.5 52.5zM313 1548q0 31 21.5 52.5 t52.5 21.5t52.5 21.5t21.5 52.5t21.5 52t52.5 21h73q31 0 52.5 -21t21.5 -52t21.5 -52.5t52.5 -21.5t52 -21.5t21 -52.5t-21 -52t-52 -21t-52.5 21t-21.5 52t-21.5 52.5t-52.5 21.5h-73q-31 0 -52.5 -21.5t-21.5 -52.5t-21.5 -52t-52.5 -21t-52.5 21t-21.5 52zM922 74v1179 q0 31 21 52.5t52 21.5t52.5 -21.5t21.5 -52.5v-1179q0 -31 -21.5 -52.5t-52.5 -21.5t-52 21.5t-21 52.5z" />
<glyph unicode="&#xdc;" horiz-adv-x="1216" d="M147 221v1032q0 31 21.5 52.5t52.5 21.5t52.5 -21.5t21.5 -52.5v-1032q0 -31 21.5 -52.5t52.5 -21.5h405q31 0 52.5 -21t21.5 -52t-21.5 -52.5t-52.5 -21.5h-405q-31 0 -52.5 21.5t-21.5 52.5t-21.5 52t-52.5 21t-52.5 21.5t-21.5 52.5zM313 1622v74q0 31 21.5 52 t52.5 21t52.5 -21t21.5 -52v-74q0 -31 -21.5 -52.5t-52.5 -21.5t-52.5 21.5t-21.5 52.5zM682 1622v74q0 31 21.5 52t52.5 21t52 -21t21 -52v-74q0 -31 -21 -52.5t-52 -21.5t-52.5 21.5t-21.5 52.5zM922 74v1179q0 31 21 52.5t52 21.5t52.5 -21.5t21.5 -52.5v-1179 q0 -31 -21.5 -52.5t-52.5 -21.5t-52 21.5t-21 52.5z" />
<glyph unicode="&#xdd;" horiz-adv-x="1142" d="M92 1106v147q0 31 21.5 52.5t52.5 21.5t52.5 -21.5t21.5 -52.5v-147q0 -31 21 -52.5t52 -21.5t52.5 -21.5t21.5 -52.5v-221q0 -31 21.5 -52t52.5 -21h221q31 0 52.5 21t21.5 52v221q0 31 21 52.5t52 21.5t52.5 21.5t21.5 52.5v147q0 31 21.5 52.5t52.5 21.5t52.5 -21.5 t21.5 -52.5v-147q0 -31 -21.5 -52.5t-52.5 -21.5t-52.5 -21.5t-21.5 -52.5v-221q0 -31 -21.5 -52t-52.5 -21t-52 -21.5t-21 -52.5t-21.5 -52.5t-52.5 -21.5h-221q-31 0 -52.5 21.5t-21.5 52.5t-21.5 52.5t-52.5 21.5t-52 21t-21 52v221q0 31 -21.5 52.5t-52.5 21.5 t-52.5 21.5t-21.5 52.5zM313 1548q0 31 21.5 52.5t52.5 21.5h111q31 0 52 21.5t21 52.5t21.5 52t52.5 21h111q31 0 52 -21t21 -52t-21 -52.5t-52 -21.5h-111q-31 0 -52.5 -21.5t-21.5 -52.5t-21 -52t-52 -21h-111q-31 0 -52.5 21t-21.5 52zM498 74v295q0 31 21 52t52 21 t52.5 -21t21.5 -52v-295q0 -31 -21.5 -52.5t-52.5 -21.5t-52 21.5t-21 52.5z" />
<glyph unicode="&#xde;" horiz-adv-x="1216" d="M147 74v1179q0 31 21.5 52.5t52.5 21.5t52.5 -21.5t21.5 -52.5v-1179q0 -31 -21.5 -52.5t-52.5 -21.5t-52.5 21.5t-21.5 52.5zM369 369q0 31 21 52t52 21h443q31 0 52 21.5t21 52.5v295q0 31 -21 52.5t-52 21.5h-443q-31 0 -52 21t-21 52t21 52.5t52 21.5h443 q31 0 52 -21.5t21 -52.5t21.5 -52t52.5 -21t52.5 -21.5t21.5 -52.5v-295q0 -31 -21.5 -52.5t-52.5 -21.5t-52.5 -21t-21.5 -52t-21 -52.5t-52 -21.5h-443q-31 0 -52 21.5t-21 52.5z" />
<glyph unicode="&#xdf;" horiz-adv-x="1069" d="M147 74v1032q0 31 21.5 52.5t52.5 21.5t52.5 21t21.5 52t21.5 52.5t52.5 21.5h331q31 0 52.5 -21.5t21.5 -52.5t21.5 -52t52.5 -21t52.5 -21.5t21.5 -52.5v-295q0 -31 -21.5 -52.5t-52.5 -21.5t-52.5 -21t-21.5 -52t21.5 -52.5t52.5 -21.5t52.5 -21.5t21.5 -52.5v-295 q0 -31 -21.5 -52.5t-52.5 -21.5t-52.5 -21t-21.5 -52t-21.5 -52.5t-52.5 -21.5h-147q-31 0 -52.5 21.5t-21.5 52.5t21.5 52t52.5 21h147q31 0 52.5 21.5t21.5 52.5v295q0 31 -21.5 52.5t-52.5 21.5h-147q-31 0 -52.5 21.5t-21.5 52.5t21.5 52t52.5 21h147q31 0 52.5 21.5 t21.5 52.5v295q0 31 -21.5 52.5t-52.5 21.5h-331q-31 0 -52.5 -21.5t-21.5 -52.5v-1032q0 -31 -21.5 -52.5t-52.5 -21.5t-52.5 21.5t-21.5 52.5z" />
<glyph unicode="&#xe0;" horiz-adv-x="1069" d="M111 221v148q0 31 21 52t52 21t52.5 21.5t21.5 52.5t21.5 52.5t52.5 21.5h295q31 0 52 -21.5t21 -52.5t-21 -52.5t-52 -21.5h-295q-31 0 -52.5 -21t-21.5 -52v-148q0 -31 21.5 -52.5t52.5 -21.5h295q31 0 52 -21t21 -52t-21 -52.5t-52 -21.5h-295q-31 0 -52.5 21.5 t-21.5 52.5t-21.5 52t-52.5 21t-52 21.5t-21 52.5zM184 958q0 31 21.5 52.5t52.5 21.5h442q31 0 52.5 -21.5t21.5 -52.5t21.5 -52t52.5 -21t52.5 -21.5t21.5 -52.5v-737q0 -31 -21.5 -52.5t-52.5 -21.5t-52.5 21.5t-21.5 52.5v737q0 31 -21.5 52.5t-52.5 21.5h-442 q-31 0 -52.5 21t-21.5 52zM258 1401q0 31 21.5 52.5t52.5 21.5h110q31 0 52.5 -21.5t21.5 -52.5t21.5 -52.5t52.5 -21.5h110q31 0 52.5 -21.5t21.5 -52.5t-21.5 -52t-52.5 -21h-110q-31 0 -52.5 21t-21.5 52t-21.5 52.5t-52.5 21.5h-110q-31 0 -52.5 21.5t-21.5 52.5z" />
<glyph unicode="&#xe1;" horiz-adv-x="1069" d="M111 221v148q0 31 21 52t52 21t52.5 21.5t21.5 52.5t21.5 52.5t52.5 21.5h295q31 0 52 -21.5t21 -52.5t-21 -52.5t-52 -21.5h-295q-31 0 -52.5 -21t-21.5 -52v-148q0 -31 21.5 -52.5t52.5 -21.5h295q31 0 52 -21t21 -52t-21 -52.5t-52 -21.5h-295q-31 0 -52.5 21.5 t-21.5 52.5t-21.5 52t-52.5 21t-52 21.5t-21 52.5zM184 958q0 31 21.5 52.5t52.5 21.5h442q31 0 52.5 -21.5t21.5 -52.5t21.5 -52t52.5 -21t52.5 -21.5t21.5 -52.5v-737q0 -31 -21.5 -52.5t-52.5 -21.5t-52.5 21.5t-21.5 52.5v737q0 31 -21.5 52.5t-52.5 21.5h-442 q-31 0 -52.5 21t-21.5 52zM258 1253q0 31 21.5 52.5t52.5 21.5h110q31 0 52.5 21.5t21.5 52.5t21.5 52.5t52.5 21.5h110q31 0 52.5 -21.5t21.5 -52.5t-21.5 -52.5t-52.5 -21.5h-110q-31 0 -52.5 -21.5t-21.5 -52.5t-21.5 -52t-52.5 -21h-110q-31 0 -52.5 21t-21.5 52z" />
<glyph unicode="&#xe2;" horiz-adv-x="1069" d="M111 221v148q0 31 21 52t52 21t52.5 21.5t21.5 52.5t21.5 52.5t52.5 21.5h295q31 0 52 -21.5t21 -52.5t-21 -52.5t-52 -21.5h-295q-31 0 -52.5 -21t-21.5 -52v-148q0 -31 21.5 -52.5t52.5 -21.5h295q31 0 52 -21t21 -52t-21 -52.5t-52 -21.5h-295q-31 0 -52.5 21.5 t-21.5 52.5t-21.5 52t-52.5 21t-52 21.5t-21 52.5zM184 958q0 31 21.5 52.5t52.5 21.5h442q31 0 52.5 -21.5t21.5 -52.5t21.5 -52t52.5 -21t52.5 -21.5t21.5 -52.5v-737q0 -31 -21.5 -52.5t-52.5 -21.5t-52.5 21.5t-21.5 52.5v737q0 31 -21.5 52.5t-52.5 21.5h-442 q-31 0 -52.5 21t-21.5 52zM258 1253q0 31 21.5 52.5t52.5 21.5t52.5 21.5t21.5 52.5t21 52.5t52 21.5h74q31 0 52.5 -21.5t21.5 -52.5t21 -52.5t52 -21.5t52.5 -21.5t21.5 -52.5t-21.5 -52t-52.5 -21t-52 21t-21 52t-21.5 52.5t-52.5 21.5h-74q-31 0 -52 -21.5t-21 -52.5 t-21.5 -52t-52.5 -21t-52.5 21t-21.5 52z" />
<glyph unicode="&#xe3;" horiz-adv-x="1069" d="M111 221v148q0 31 21 52t52 21t52.5 21.5t21.5 52.5t21.5 52.5t52.5 21.5h295q31 0 52 -21.5t21 -52.5t-21 -52.5t-52 -21.5h-295q-31 0 -52.5 -21t-21.5 -52v-148q0 -31 21.5 -52.5t52.5 -21.5h295q31 0 52 -21t21 -52t-21 -52.5t-52 -21.5h-295q-31 0 -52.5 21.5 t-21.5 52.5t-21.5 52t-52.5 21t-52 21.5t-21 52.5zM184 958q0 31 21.5 52.5t52.5 21.5h442q31 0 52.5 -21.5t21.5 -52.5t21.5 -52t52.5 -21t52.5 -21.5t21.5 -52.5v-737q0 -31 -21.5 -52.5t-52.5 -21.5t-52.5 21.5t-21.5 52.5v737q0 31 -21.5 52.5t-52.5 21.5h-442 q-31 0 -52.5 21t-21.5 52zM184 1253q0 31 21.5 52.5t52.5 21.5t52.5 21.5t21.5 52.5t21.5 52.5t52.5 21.5t52 -21.5t21 -52.5t21.5 -52.5t52.5 -21.5t52.5 21.5t21.5 52.5t21 52.5t52 21.5t52.5 -21.5t21.5 -52.5t-21.5 -52.5t-52.5 -21.5t-52 -21.5t-21 -52.5t-21.5 -52 t-52.5 -21t-52.5 21t-21.5 52t-21 52.5t-52 21.5t-52.5 -21.5t-21.5 -52.5t-21.5 -52t-52.5 -21t-52.5 21t-21.5 52z" />
<glyph unicode="&#xe4;" horiz-adv-x="1069" d="M111 221v148q0 31 21 52t52 21t52.5 21.5t21.5 52.5t21.5 52.5t52.5 21.5h295q31 0 52 -21.5t21 -52.5t-21 -52.5t-52 -21.5h-295q-31 0 -52.5 -21t-21.5 -52v-148q0 -31 21.5 -52.5t52.5 -21.5h295q31 0 52 -21t21 -52t-21 -52.5t-52 -21.5h-295q-31 0 -52.5 21.5 t-21.5 52.5t-21.5 52t-52.5 21t-52 21.5t-21 52.5zM184 958q0 31 21.5 52.5t52.5 21.5h442q31 0 52.5 -21.5t21.5 -52.5t21.5 -52t52.5 -21t52.5 -21.5t21.5 -52.5v-737q0 -31 -21.5 -52.5t-52.5 -21.5t-52.5 21.5t-21.5 52.5v737q0 31 -21.5 52.5t-52.5 21.5h-442 q-31 0 -52.5 21t-21.5 52zM258 1327v74q0 31 21.5 52.5t52.5 21.5t52.5 -21.5t21.5 -52.5v-74q0 -31 -21.5 -52.5t-52.5 -21.5t-52.5 21.5t-21.5 52.5zM627 1327v74q0 31 21 52.5t52 21.5t52.5 -21.5t21.5 -52.5v-74q0 -31 -21.5 -52.5t-52.5 -21.5t-52 21.5t-21 52.5z" />
<glyph unicode="&#xe5;" horiz-adv-x="1069" d="M111 221v148q0 31 21 52t52 21t52.5 21.5t21.5 52.5t21.5 52.5t52.5 21.5h295q31 0 52 -21.5t21 -52.5t-21 -52.5t-52 -21.5h-295q-31 0 -52.5 -21t-21.5 -52v-148q0 -31 21.5 -52.5t52.5 -21.5h295q31 0 52 -21t21 -52t-21 -52.5t-52 -21.5h-295q-31 0 -52.5 21.5 t-21.5 52.5t-21.5 52t-52.5 21t-52 21.5t-21 52.5zM184 958q0 31 21.5 52.5t52.5 21.5h442q31 0 52.5 -21.5t21.5 -52.5t21.5 -52t52.5 -21t52.5 -21.5t21.5 -52.5v-737q0 -31 -21.5 -52.5t-52.5 -21.5t-52.5 21.5t-21.5 52.5v737q0 31 -21.5 52.5t-52.5 21.5h-442 q-31 0 -52.5 21t-21.5 52zM295 1327q0 31 21.5 52.5t52.5 21.5t52 21.5t21 52.5t21.5 52t52.5 21t52.5 -21t21.5 -52t21.5 -52.5t52.5 -21.5t52 -21.5t21 -52.5t-21 -52.5t-52 -21.5t-52.5 -21t-21.5 -52t-21.5 -52.5t-52.5 -21.5t-52.5 21.5t-21.5 52.5t-21 52t-52 21 t-52.5 21.5t-21.5 52.5zM442 1327q0 -31 21.5 -52.5t52.5 -21.5t52.5 21.5t21.5 52.5t-21.5 52.5t-52.5 21.5t-52.5 -21.5t-21.5 -52.5z" />
<glyph unicode="&#xe6;" horiz-adv-x="1695" d="M111 221v148q0 31 21 52t52 21t52.5 21.5t21.5 52.5t21.5 52.5t52.5 21.5h295q31 0 52 -21.5t21 -52.5t-21 -52.5t-52 -21.5h-295q-31 0 -52.5 -21t-21.5 -52v-148q0 -31 21.5 -52.5t52.5 -21.5h295q31 0 52 -21t21 -52t-21 -52.5t-52 -21.5h-295q-31 0 -52.5 21.5 t-21.5 52.5t-21.5 52t-52.5 21t-52 21.5t-21 52.5zM184 958q0 31 21.5 52.5t52.5 21.5h442q31 0 52.5 -21.5t21.5 -52.5t21.5 -52t52.5 -21t52.5 -21.5t21.5 -52.5v-590q0 -31 21 -52.5t52 -21.5h443q31 0 52 -21t21 -52t-21 -52.5t-52 -21.5h-443q-31 0 -52 21.5t-21 52.5 t-21.5 52t-52.5 21t-52.5 21.5t-21.5 52.5v590q0 31 -21.5 52.5t-52.5 21.5h-442q-31 0 -52.5 21t-21.5 52zM995 516q0 31 21.5 52.5t52.5 21.5h295q31 0 52.5 21.5t21.5 52.5v147q0 31 -21.5 52.5t-52.5 21.5h-295q-31 0 -52.5 21t-21.5 52t21.5 52.5t52.5 21.5h295 q31 0 52.5 -21.5t21.5 -52.5t21 -52t52 -21t52.5 -21.5t21.5 -52.5v-147q0 -31 -21.5 -52.5t-52.5 -21.5t-52 -21.5t-21 -52.5t-21.5 -52.5t-52.5 -21.5h-295q-31 0 -52.5 21.5t-21.5 52.5z" />
<glyph unicode="&#xe7;" horiz-adv-x="884" d="M147 221v590q0 31 21.5 52.5t52.5 21.5t52.5 21t21.5 52t21.5 52.5t52.5 21.5h368q31 0 52.5 -21.5t21.5 -52.5t-21.5 -52t-52.5 -21h-368q-31 0 -52.5 -21.5t-21.5 -52.5v-590q0 -31 21.5 -52.5t52.5 -21.5h368q31 0 52.5 -21t21.5 -52t-21.5 -52.5t-52.5 -21.5h-368 q-31 0 -52.5 21.5t-21.5 52.5t-21.5 52t-52.5 21t-52.5 21.5t-21.5 52.5zM479 -147q0 31 21.5 52t52.5 21t52.5 -21t21.5 -52v-74q0 -31 -21.5 -52.5t-52.5 -21.5t-52.5 21.5t-21.5 52.5v74z" />
<glyph unicode="&#xe8;" horiz-adv-x="1069" d="M147 221v590q0 31 21.5 52.5t52.5 21.5t52.5 21t21.5 52t21.5 52.5t52.5 21.5h368q31 0 52.5 -21.5t21.5 -52.5t21.5 -52t52.5 -21t52 -21.5t21 -52.5v-147q0 -31 -21 -52.5t-52 -21.5t-52.5 -21.5t-21.5 -52.5t-21.5 -52.5t-52.5 -21.5h-295q-31 0 -52 21.5t-21 52.5 t21 52.5t52 21.5h295q31 0 52.5 21.5t21.5 52.5v147q0 31 -21.5 52.5t-52.5 21.5h-368q-31 0 -52.5 -21.5t-21.5 -52.5v-590q0 -31 21.5 -52.5t52.5 -21.5h442q31 0 52.5 -21t21.5 -52t-21.5 -52.5t-52.5 -21.5h-442q-31 0 -52.5 21.5t-21.5 52.5t-21.5 52t-52.5 21 t-52.5 21.5t-21.5 52.5zM258 1401q0 31 21.5 52.5t52.5 21.5h110q31 0 52.5 -21.5t21.5 -52.5t21.5 -52.5t52.5 -21.5h110q31 0 52.5 -21.5t21.5 -52.5t-21.5 -52t-52.5 -21h-110q-31 0 -52.5 21t-21.5 52t-21.5 52.5t-52.5 21.5h-110q-31 0 -52.5 21.5t-21.5 52.5z" />
<glyph unicode="&#xe9;" horiz-adv-x="1069" d="M147 221v590q0 31 21.5 52.5t52.5 21.5t52.5 21t21.5 52t21.5 52.5t52.5 21.5h368q31 0 52.5 -21.5t21.5 -52.5t21.5 -52t52.5 -21t52 -21.5t21 -52.5v-147q0 -31 -21 -52.5t-52 -21.5t-52.5 -21.5t-21.5 -52.5t-21.5 -52.5t-52.5 -21.5h-295q-31 0 -52 21.5t-21 52.5 t21 52.5t52 21.5h295q31 0 52.5 21.5t21.5 52.5v147q0 31 -21.5 52.5t-52.5 21.5h-368q-31 0 -52.5 -21.5t-21.5 -52.5v-590q0 -31 21.5 -52.5t52.5 -21.5h442q31 0 52.5 -21t21.5 -52t-21.5 -52.5t-52.5 -21.5h-442q-31 0 -52.5 21.5t-21.5 52.5t-21.5 52t-52.5 21 t-52.5 21.5t-21.5 52.5zM258 1253q0 31 21.5 52.5t52.5 21.5h110q31 0 52.5 21.5t21.5 52.5t21.5 52.5t52.5 21.5h110q31 0 52.5 -21.5t21.5 -52.5t-21.5 -52.5t-52.5 -21.5h-110q-31 0 -52.5 -21.5t-21.5 -52.5t-21.5 -52t-52.5 -21h-110q-31 0 -52.5 21t-21.5 52z" />
<glyph unicode="&#xea;" horiz-adv-x="1069" d="M147 221v590q0 31 21.5 52.5t52.5 21.5t52.5 21t21.5 52t21.5 52.5t52.5 21.5h368q31 0 52.5 -21.5t21.5 -52.5t21.5 -52t52.5 -21t52 -21.5t21 -52.5v-147q0 -31 -21 -52.5t-52 -21.5t-52.5 -21.5t-21.5 -52.5t-21.5 -52.5t-52.5 -21.5h-295q-31 0 -52 21.5t-21 52.5 t21 52.5t52 21.5h295q31 0 52.5 21.5t21.5 52.5v147q0 31 -21.5 52.5t-52.5 21.5h-368q-31 0 -52.5 -21.5t-21.5 -52.5v-590q0 -31 21.5 -52.5t52.5 -21.5h442q31 0 52.5 -21t21.5 -52t-21.5 -52.5t-52.5 -21.5h-442q-31 0 -52.5 21.5t-21.5 52.5t-21.5 52t-52.5 21 t-52.5 21.5t-21.5 52.5zM258 1253q0 31 21.5 52.5t52.5 21.5t52.5 21.5t21.5 52.5t21 52.5t52 21.5h74q31 0 52.5 -21.5t21.5 -52.5t21 -52.5t52 -21.5t52.5 -21.5t21.5 -52.5t-21.5 -52t-52.5 -21t-52 21t-21 52t-21.5 52.5t-52.5 21.5h-74q-31 0 -52 -21.5t-21 -52.5 t-21.5 -52t-52.5 -21t-52.5 21t-21.5 52z" />
<glyph unicode="&#xeb;" horiz-adv-x="1069" d="M147 221v590q0 31 21.5 52.5t52.5 21.5t52.5 21t21.5 52t21.5 52.5t52.5 21.5h368q31 0 52.5 -21.5t21.5 -52.5t21.5 -52t52.5 -21t52 -21.5t21 -52.5v-147q0 -31 -21 -52.5t-52 -21.5t-52.5 -21.5t-21.5 -52.5t-21.5 -52.5t-52.5 -21.5h-295q-31 0 -52 21.5t-21 52.5 t21 52.5t52 21.5h295q31 0 52.5 21.5t21.5 52.5v147q0 31 -21.5 52.5t-52.5 21.5h-368q-31 0 -52.5 -21.5t-21.5 -52.5v-590q0 -31 21.5 -52.5t52.5 -21.5h442q31 0 52.5 -21t21.5 -52t-21.5 -52.5t-52.5 -21.5h-442q-31 0 -52.5 21.5t-21.5 52.5t-21.5 52t-52.5 21 t-52.5 21.5t-21.5 52.5zM295 1327v74q0 31 21.5 52.5t52.5 21.5t52 -21.5t21 -52.5v-74q0 -31 -21 -52.5t-52 -21.5t-52.5 21.5t-21.5 52.5zM664 1327v74q0 31 21 52.5t52 21.5t52.5 -21.5t21.5 -52.5v-74q0 -31 -21.5 -52.5t-52.5 -21.5t-52 21.5t-21 52.5z" />
<glyph unicode="&#xec;" horiz-adv-x="442" d="M-37 1401q0 31 21.5 52.5t52.5 21.5h110q31 0 52.5 -21.5t21.5 -52.5t21.5 -52.5t52.5 -21.5h111q31 0 52 -21.5t21 -52.5t-21 -52t-52 -21h-111q-31 0 -52.5 21t-21.5 52t-21.5 52.5t-52.5 21.5h-110q-31 0 -52.5 21.5t-21.5 52.5zM147 74v884q0 31 21.5 52.5t52.5 21.5 t52.5 -21.5t21.5 -52.5v-884q0 -31 -21.5 -52.5t-52.5 -21.5t-52.5 21.5t-21.5 52.5z" />
<glyph unicode="&#xed;" horiz-adv-x="442" d="M-37 1253q0 31 21.5 52.5t52.5 21.5h110q31 0 52.5 21.5t21.5 52.5t21.5 52.5t52.5 21.5h111q31 0 52 -21.5t21 -52.5t-21 -52.5t-52 -21.5h-111q-31 0 -52.5 -21.5t-21.5 -52.5t-21.5 -52t-52.5 -21h-110q-31 0 -52.5 21t-21.5 52zM147 74v884q0 31 21.5 52.5t52.5 21.5 t52.5 -21.5t21.5 -52.5v-884q0 -31 -21.5 -52.5t-52.5 -21.5t-52.5 21.5t-21.5 52.5z" />
<glyph unicode="&#xee;" horiz-adv-x="442" d="M-37 1253q0 31 21.5 52.5t52.5 21.5t52.5 21.5t21.5 52.5t21 52.5t52 21.5h74q31 0 52.5 -21.5t21.5 -52.5t21.5 -52.5t52.5 -21.5t52 -21.5t21 -52.5t-21 -52t-52 -21t-52.5 21t-21.5 52t-21.5 52.5t-52.5 21.5h-74q-31 0 -52 -21.5t-21 -52.5t-21.5 -52t-52.5 -21 t-52.5 21t-21.5 52zM147 74v884q0 31 21.5 52.5t52.5 21.5t52.5 -21.5t21.5 -52.5v-884q0 -31 -21.5 -52.5t-52.5 -21.5t-52.5 21.5t-21.5 52.5z" />
<glyph unicode="&#xef;" horiz-adv-x="442" d="M-37 1327v74q0 31 21.5 52.5t52.5 21.5t52.5 -21.5t21.5 -52.5v-74q0 -31 -21.5 -52.5t-52.5 -21.5t-52.5 21.5t-21.5 52.5zM147 74v884q0 31 21.5 52.5t52.5 21.5t52.5 -21.5t21.5 -52.5v-884q0 -31 -21.5 -52.5t-52.5 -21.5t-52.5 21.5t-21.5 52.5zM332 1327v74 q0 31 21.5 52.5t52.5 21.5t52 -21.5t21 -52.5v-74q0 -31 -21 -52.5t-52 -21.5t-52.5 21.5t-21.5 52.5z" />
<glyph unicode="&#xf0;" horiz-adv-x="1179" d="M147 221v332q0 31 21.5 52.5t52.5 21.5t52.5 21t21.5 52t21.5 52.5t52.5 21.5h295q31 0 52 -21.5t21 -52.5t-21 -52t-52 -21h-295q-31 0 -52.5 -21.5t-21.5 -52.5v-332q0 -31 21.5 -52.5t52.5 -21.5h368q31 0 52.5 21.5t21.5 52.5v608q0 31 21.5 52.5t52.5 21.5t52 -21.5 t21 -52.5v-608q0 -31 -21 -52.5t-52 -21.5t-52.5 -21t-21.5 -52t-21.5 -52.5t-52.5 -21.5h-368q-31 0 -52.5 21.5t-21.5 52.5t-21.5 52t-52.5 21t-52.5 21.5t-21.5 52.5zM590 1051q0 31 21.5 52t52.5 21h442q31 0 52.5 -21t21.5 -52t-21.5 -52.5t-52.5 -21.5h-442 q-31 0 -52.5 21.5t-21.5 52.5zM811 1272v129q0 31 21.5 52.5t52.5 21.5t52 -21.5t21 -52.5v-129q0 -31 -21 -52.5t-52 -21.5t-52.5 21.5t-21.5 52.5z" />
<glyph unicode="&#xf1;" d="M147 74v884q0 31 21.5 52.5t52.5 21.5t52.5 -21.5t21.5 -52.5v-884q0 -31 -21.5 -52.5t-52.5 -21.5t-52.5 21.5t-21.5 52.5zM258 1253q0 31 21.5 52.5t52.5 21.5t52.5 21.5t21.5 52.5t21 52.5t52 21.5t52.5 -21.5t21.5 -52.5t21.5 -52.5t52.5 -21.5t52 21.5t21 52.5 t21.5 52.5t52.5 21.5t52.5 -21.5t21.5 -52.5t-21.5 -52.5t-52.5 -21.5t-52.5 -21.5t-21.5 -52.5t-21 -52t-52 -21t-52.5 21t-21.5 52t-21.5 52.5t-52.5 21.5t-52 -21.5t-21 -52.5t-21.5 -52t-52.5 -21t-52.5 21t-21.5 52zM369 958q0 31 21 52.5t52 21.5h295q31 0 52.5 -21.5 t21.5 -52.5t21.5 -52t52.5 -21t52 -21.5t21 -52.5v-737q0 -31 -21 -52.5t-52 -21.5t-52.5 21.5t-21.5 52.5v737q0 31 -21.5 52.5t-52.5 21.5h-295q-31 0 -52 21t-21 52z" />
<glyph unicode="&#xf2;" d="M147 221v590q0 31 21.5 52.5t52.5 21.5t52.5 21t21.5 52t21.5 52.5t52.5 21.5h368q31 0 52.5 -21.5t21.5 -52.5t21.5 -52t52.5 -21t52 -21.5t21 -52.5v-590q0 -31 -21 -52.5t-52 -21.5t-52.5 -21t-21.5 -52t-21.5 -52.5t-52.5 -21.5h-368q-31 0 -52.5 21.5t-21.5 52.5 t-21.5 52t-52.5 21t-52.5 21.5t-21.5 52.5zM295 221q0 -31 21.5 -52.5t52.5 -21.5h368q31 0 52.5 21.5t21.5 52.5v590q0 31 -21.5 52.5t-52.5 21.5h-368q-31 0 -52.5 -21.5t-21.5 -52.5v-590zM295 1401q0 31 21.5 52.5t52.5 21.5h110q31 0 52.5 -21.5t21.5 -52.5t21.5 -52.5 t52.5 -21.5h110q31 0 52.5 -21.5t21.5 -52.5t-21.5 -52t-52.5 -21h-110q-31 0 -52.5 21t-21.5 52t-21.5 52.5t-52.5 21.5h-110q-31 0 -52.5 21.5t-21.5 52.5z" />
<glyph unicode="&#xf3;" d="M147 221v590q0 31 21.5 52.5t52.5 21.5t52.5 21t21.5 52t21.5 52.5t52.5 21.5h368q31 0 52.5 -21.5t21.5 -52.5t21.5 -52t52.5 -21t52 -21.5t21 -52.5v-590q0 -31 -21 -52.5t-52 -21.5t-52.5 -21t-21.5 -52t-21.5 -52.5t-52.5 -21.5h-368q-31 0 -52.5 21.5t-21.5 52.5 t-21.5 52t-52.5 21t-52.5 21.5t-21.5 52.5zM295 221q0 -31 21.5 -52.5t52.5 -21.5h368q31 0 52.5 21.5t21.5 52.5v590q0 31 -21.5 52.5t-52.5 21.5h-368q-31 0 -52.5 -21.5t-21.5 -52.5v-590zM295 1253q0 31 21.5 52.5t52.5 21.5h110q31 0 52.5 21.5t21.5 52.5t21.5 52.5 t52.5 21.5h110q31 0 52.5 -21.5t21.5 -52.5t-21.5 -52.5t-52.5 -21.5h-110q-31 0 -52.5 -21.5t-21.5 -52.5t-21.5 -52t-52.5 -21h-110q-31 0 -52.5 21t-21.5 52z" />
<glyph unicode="&#xf4;" d="M147 221v590q0 31 21.5 52.5t52.5 21.5t52.5 21t21.5 52t21.5 52.5t52.5 21.5h368q31 0 52.5 -21.5t21.5 -52.5t21.5 -52t52.5 -21t52 -21.5t21 -52.5v-590q0 -31 -21 -52.5t-52 -21.5t-52.5 -21t-21.5 -52t-21.5 -52.5t-52.5 -21.5h-368q-31 0 -52.5 21.5t-21.5 52.5 t-21.5 52t-52.5 21t-52.5 21.5t-21.5 52.5zM295 221q0 -31 21.5 -52.5t52.5 -21.5h368q31 0 52.5 21.5t21.5 52.5v590q0 31 -21.5 52.5t-52.5 21.5h-368q-31 0 -52.5 -21.5t-21.5 -52.5v-590zM295 1253q0 31 21.5 52.5t52.5 21.5t52 21.5t21 52.5t21.5 52.5t52.5 21.5h74 q31 0 52.5 -21.5t21.5 -52.5t21 -52.5t52 -21.5t52.5 -21.5t21.5 -52.5t-21.5 -52t-52.5 -21t-52 21t-21 52t-21.5 52.5t-52.5 21.5h-74q-31 0 -52.5 -21.5t-21.5 -52.5t-21 -52t-52 -21t-52.5 21t-21.5 52z" />
<glyph unicode="&#xf5;" d="M147 221v590q0 31 21.5 52.5t52.5 21.5t52.5 21t21.5 52t21.5 52.5t52.5 21.5h368q31 0 52.5 -21.5t21.5 -52.5t21.5 -52t52.5 -21t52 -21.5t21 -52.5v-590q0 -31 -21 -52.5t-52 -21.5t-52.5 -21t-21.5 -52t-21.5 -52.5t-52.5 -21.5h-368q-31 0 -52.5 21.5t-21.5 52.5 t-21.5 52t-52.5 21t-52.5 21.5t-21.5 52.5zM258 1253q0 31 21.5 52.5t52.5 21.5t52.5 21.5t21.5 52.5t21 52.5t52 21.5t52.5 -21.5t21.5 -52.5t21.5 -52.5t52.5 -21.5t52 21.5t21 52.5t21.5 52.5t52.5 21.5t52.5 -21.5t21.5 -52.5t-21.5 -52.5t-52.5 -21.5t-52.5 -21.5 t-21.5 -52.5t-21 -52t-52 -21t-52.5 21t-21.5 52t-21.5 52.5t-52.5 21.5t-52 -21.5t-21 -52.5t-21.5 -52t-52.5 -21t-52.5 21t-21.5 52zM295 221q0 -31 21.5 -52.5t52.5 -21.5h368q31 0 52.5 21.5t21.5 52.5v590q0 31 -21.5 52.5t-52.5 21.5h-368q-31 0 -52.5 -21.5 t-21.5 -52.5v-590z" />
<glyph unicode="&#xf6;" d="M147 221v590q0 31 21.5 52.5t52.5 21.5t52.5 21t21.5 52t21.5 52.5t52.5 21.5h368q31 0 52.5 -21.5t21.5 -52.5t21.5 -52t52.5 -21t52 -21.5t21 -52.5v-590q0 -31 -21 -52.5t-52 -21.5t-52.5 -21t-21.5 -52t-21.5 -52.5t-52.5 -21.5h-368q-31 0 -52.5 21.5t-21.5 52.5 t-21.5 52t-52.5 21t-52.5 21.5t-21.5 52.5zM295 221q0 -31 21.5 -52.5t52.5 -21.5h368q31 0 52.5 21.5t21.5 52.5v590q0 31 -21.5 52.5t-52.5 21.5h-368q-31 0 -52.5 -21.5t-21.5 -52.5v-590zM295 1327v74q0 31 21.5 52.5t52.5 21.5t52 -21.5t21 -52.5v-74q0 -31 -21 -52.5 t-52 -21.5t-52.5 21.5t-21.5 52.5zM664 1327v74q0 31 21 52.5t52 21.5t52.5 -21.5t21.5 -52.5v-74q0 -31 -21.5 -52.5t-52.5 -21.5t-52 21.5t-21 52.5z" />
<glyph unicode="&#xf7;" horiz-adv-x="1179" d="M147 664q0 31 21.5 52t52.5 21h737q31 0 52.5 -21t21.5 -52t-21.5 -52.5t-52.5 -21.5h-737q-31 0 -52.5 21.5t-21.5 52.5zM516 295v74q0 31 21.5 52t52.5 21t52.5 -21t21.5 -52v-74q0 -31 -21.5 -52.5t-52.5 -21.5t-52.5 21.5t-21.5 52.5zM516 958v74q0 31 21.5 52.5 t52.5 21.5t52.5 -21.5t21.5 -52.5v-74q0 -31 -21.5 -52t-52.5 -21t-52.5 21t-21.5 52z" />
<glyph unicode="&#xf8;" horiz-adv-x="1179" d="M147 258v553q0 31 21.5 52.5t52.5 21.5t52.5 21t21.5 52t21.5 52.5t52.5 21.5t52 -21.5t21 -52.5t-21 -52t-52 -21t-52.5 -21.5t-21.5 -52.5v-553q0 -31 -21.5 -52.5t-52.5 -21.5t-52.5 21.5t-21.5 52.5zM369 -111v277q0 31 21 52.5t52 21.5t52.5 21t21.5 52v406 q0 31 21.5 52.5t52.5 21.5t52.5 21t21.5 52v277q0 31 21 52.5t52 21.5t52.5 -21.5t21.5 -52.5v-277q0 -31 -21.5 -52t-52.5 -21t-52 -21.5t-21 -52.5v-406q0 -31 -21.5 -52t-52.5 -21t-52.5 -21.5t-21.5 -52.5v-277q0 -31 -21.5 -52t-52.5 -21t-52 21t-21 52zM737 74 q0 31 21.5 52t52.5 21t52.5 21.5t21.5 52.5v553q0 31 21 52.5t52 21.5t52.5 -21.5t21.5 -52.5v-553q0 -31 -21.5 -52.5t-52.5 -21.5t-52 -21t-21 -52t-21.5 -52.5t-52.5 -21.5t-52.5 21.5t-21.5 52.5z" />
<glyph unicode="&#xf9;" d="M147 221v737q0 31 21.5 52.5t52.5 21.5t52.5 -21.5t21.5 -52.5v-737q0 -31 21.5 -52.5t52.5 -21.5h295q31 0 52 -21t21 -52t-21 -52.5t-52 -21.5h-295q-31 0 -52.5 21.5t-21.5 52.5t-21.5 52t-52.5 21t-52.5 21.5t-21.5 52.5zM295 1401q0 31 21.5 52.5t52.5 21.5h110 q31 0 52.5 -21.5t21.5 -52.5t21.5 -52.5t52.5 -21.5h110q31 0 52.5 -21.5t21.5 -52.5t-21.5 -52t-52.5 -21h-110q-31 0 -52.5 21t-21.5 52t-21.5 52.5t-52.5 21.5h-110q-31 0 -52.5 21.5t-21.5 52.5zM811 74v884q0 31 21.5 52.5t52.5 21.5t52 -21.5t21 -52.5v-884 q0 -31 -21 -52.5t-52 -21.5t-52.5 21.5t-21.5 52.5z" />
<glyph unicode="&#xfa;" d="M147 221v737q0 31 21.5 52.5t52.5 21.5t52.5 -21.5t21.5 -52.5v-737q0 -31 21.5 -52.5t52.5 -21.5h295q31 0 52 -21t21 -52t-21 -52.5t-52 -21.5h-295q-31 0 -52.5 21.5t-21.5 52.5t-21.5 52t-52.5 21t-52.5 21.5t-21.5 52.5zM295 1253q0 31 21.5 52.5t52.5 21.5h110 q31 0 52.5 21.5t21.5 52.5t21.5 52.5t52.5 21.5h110q31 0 52.5 -21.5t21.5 -52.5t-21.5 -52.5t-52.5 -21.5h-110q-31 0 -52.5 -21.5t-21.5 -52.5t-21.5 -52t-52.5 -21h-110q-31 0 -52.5 21t-21.5 52zM811 74v884q0 31 21.5 52.5t52.5 21.5t52 -21.5t21 -52.5v-884 q0 -31 -21 -52.5t-52 -21.5t-52.5 21.5t-21.5 52.5z" />
<glyph unicode="&#xfb;" d="M147 221v737q0 31 21.5 52.5t52.5 21.5t52.5 -21.5t21.5 -52.5v-737q0 -31 21.5 -52.5t52.5 -21.5h295q31 0 52 -21t21 -52t-21 -52.5t-52 -21.5h-295q-31 0 -52.5 21.5t-21.5 52.5t-21.5 52t-52.5 21t-52.5 21.5t-21.5 52.5zM295 1253q0 31 21.5 52.5t52.5 21.5t52 21.5 t21 52.5t21.5 52.5t52.5 21.5h74q31 0 52.5 -21.5t21.5 -52.5t21 -52.5t52 -21.5t52.5 -21.5t21.5 -52.5t-21.5 -52t-52.5 -21t-52 21t-21 52t-21.5 52.5t-52.5 21.5h-74q-31 0 -52.5 -21.5t-21.5 -52.5t-21 -52t-52 -21t-52.5 21t-21.5 52zM811 74v884q0 31 21.5 52.5 t52.5 21.5t52 -21.5t21 -52.5v-884q0 -31 -21 -52.5t-52 -21.5t-52.5 21.5t-21.5 52.5z" />
<glyph unicode="&#xfc;" d="M147 221v737q0 31 21.5 52.5t52.5 21.5t52.5 -21.5t21.5 -52.5v-737q0 -31 21.5 -52.5t52.5 -21.5h295q31 0 52 -21t21 -52t-21 -52.5t-52 -21.5h-295q-31 0 -52.5 21.5t-21.5 52.5t-21.5 52t-52.5 21t-52.5 21.5t-21.5 52.5zM295 1327v74q0 31 21.5 52.5t52.5 21.5 t52 -21.5t21 -52.5v-74q0 -31 -21 -52.5t-52 -21.5t-52.5 21.5t-21.5 52.5zM664 1327v74q0 31 21 52.5t52 21.5t52.5 -21.5t21.5 -52.5v-74q0 -31 -21.5 -52.5t-52.5 -21.5t-52 21.5t-21 52.5zM811 74v884q0 31 21.5 52.5t52.5 21.5t52 -21.5t21 -52.5v-884q0 -31 -21 -52.5 t-52 -21.5t-52.5 21.5t-21.5 52.5z" />
<glyph unicode="&#xfd;" d="M147 221v737q0 31 21.5 52.5t52.5 21.5t52.5 -21.5t21.5 -52.5v-737q0 -31 21.5 -52.5t52.5 -21.5h295q31 0 52 -21t21 -52t-21 -52.5t-52 -21.5h-295q-31 0 -52.5 21.5t-21.5 52.5t-21.5 52t-52.5 21t-52.5 21.5t-21.5 52.5zM221 -369q0 31 21.5 52.5t52.5 21.5h442 q31 0 52.5 21.5t21.5 52.5v1179q0 31 21.5 52.5t52.5 21.5t52 -21.5t21 -52.5v-1179q0 -31 -21 -52.5t-52 -21.5t-52.5 -21.5t-21.5 -52.5t-21.5 -52t-52.5 -21h-442q-31 0 -52.5 21t-21.5 52zM295 1253q0 31 21.5 52.5t52.5 21.5h110q31 0 52.5 21.5t21.5 52.5t21.5 52.5 t52.5 21.5h110q31 0 52.5 -21.5t21.5 -52.5t-21.5 -52.5t-52.5 -21.5h-110q-31 0 -52.5 -21.5t-21.5 -52.5t-21.5 -52t-52.5 -21h-110q-31 0 -52.5 21t-21.5 52z" />
<glyph unicode="&#xfe;" d="M147 -369v1770q0 31 21.5 52.5t52.5 21.5t52.5 -21.5t21.5 -52.5v-1770q0 -31 -21.5 -52t-52.5 -21t-52.5 21t-21.5 52zM369 74q0 31 21 52t52 21h295q31 0 52.5 21.5t21.5 52.5v590q0 31 -21.5 52.5t-52.5 21.5h-295q-31 0 -52 21t-21 52t21 52.5t52 21.5h295 q31 0 52.5 -21.5t21.5 -52.5t21.5 -52t52.5 -21t52 -21.5t21 -52.5v-590q0 -31 -21 -52.5t-52 -21.5t-52.5 -21t-21.5 -52t-21.5 -52.5t-52.5 -21.5h-295q-31 0 -52 21.5t-21 52.5z" />
<glyph unicode="&#xff;" d="M147 221v737q0 31 21.5 52.5t52.5 21.5t52.5 -21.5t21.5 -52.5v-737q0 -31 21.5 -52.5t52.5 -21.5h295q31 0 52 -21t21 -52t-21 -52.5t-52 -21.5h-295q-31 0 -52.5 21.5t-21.5 52.5t-21.5 52t-52.5 21t-52.5 21.5t-21.5 52.5zM221 -369q0 31 21.5 52.5t52.5 21.5h442 q31 0 52.5 21.5t21.5 52.5v1179q0 31 21.5 52.5t52.5 21.5t52 -21.5t21 -52.5v-1179q0 -31 -21 -52.5t-52 -21.5t-52.5 -21.5t-21.5 -52.5t-21.5 -52t-52.5 -21h-442q-31 0 -52.5 21t-21.5 52zM295 1327v74q0 31 21.5 52.5t52.5 21.5t52 -21.5t21 -52.5v-74q0 -31 -21 -52.5 t-52 -21.5t-52.5 21.5t-21.5 52.5zM664 1327v74q0 31 21 52.5t52 21.5t52.5 -21.5t21.5 -52.5v-74q0 -31 -21.5 -52.5t-52.5 -21.5t-52 21.5t-21 52.5z" />
<glyph unicode="&#x152;" horiz-adv-x="1843" d="M147 221v885q0 31 21.5 52.5t52.5 21.5t52.5 21t21.5 52t21.5 52.5t52.5 21.5h589q31 0 52.5 -21.5t21.5 -52.5t21.5 -52t52.5 -21t52.5 -21.5t21.5 -52.5v-885q0 -31 -21.5 -52.5t-52.5 -21.5t-52.5 -21t-21.5 -52t-21.5 -52.5t-52.5 -21.5h-589q-31 0 -52.5 21.5 t-21.5 52.5t-21.5 52t-52.5 21t-52.5 21.5t-21.5 52.5zM295 221q0 -30 21.5 -51t52.5 -23h589q31 0 52.5 21.5t21.5 52.5v885q0 31 -21.5 52.5t-52.5 21.5h-589q-31 0 -52.5 -21.5t-21.5 -52.5v-885zM1253 74q0 31 21.5 52t52.5 21h369q31 0 52 -21t21 -52t-21 -52.5 t-52 -21.5h-369q-31 0 -52.5 21.5t-21.5 52.5zM1253 664q0 31 21.5 52t52.5 21h295q31 0 52.5 -21t21.5 -52t-21.5 -52.5t-52.5 -21.5h-295q-31 0 -52.5 21.5t-21.5 52.5zM1253 1253q0 31 21.5 52.5t52.5 21.5h369q31 0 52 -21.5t21 -52.5t-21 -52t-52 -21h-369 q-31 0 -52.5 21t-21.5 52z" />
<glyph unicode="&#x153;" horiz-adv-x="1732" d="M147 221v590q0 31 21.5 52.5t52.5 21.5t52.5 21t21.5 52t21.5 52.5t52.5 21.5h368q31 0 52.5 -21.5t21.5 -52.5t21.5 -52t52.5 -21t52 -21.5t21 -52.5v-590q0 -31 -21 -52.5t-52 -21.5t-52.5 -21t-21.5 -52t-21.5 -52.5t-52.5 -21.5h-368q-31 0 -52.5 21.5t-21.5 52.5 t-21.5 52t-52.5 21t-52.5 21.5t-21.5 52.5zM295 221q0 -31 21.5 -52.5t52.5 -21.5h368q31 0 52.5 21.5t21.5 52.5v590q0 31 -21.5 52.5t-52.5 21.5h-368q-31 0 -52.5 -21.5t-21.5 -52.5v-590zM1032 74q0 31 21.5 52t52.5 21h369q31 0 52 -21t21 -52t-21 -52.5t-52 -21.5 h-369q-31 0 -52.5 21.5t-21.5 52.5zM1032 516q0 31 21.5 52.5t52.5 21.5h295q31 0 52.5 21.5t21.5 52.5v147q0 31 -21.5 52.5t-52.5 21.5h-295q-31 0 -52.5 21t-21.5 52t21.5 52.5t52.5 21.5h295q31 0 52.5 -21.5t21.5 -52.5t21 -52t52 -21t52.5 -21.5t21.5 -52.5v-147 q0 -31 -21.5 -52.5t-52.5 -21.5t-52 -21.5t-21 -52.5t-21.5 -52.5t-52.5 -21.5h-295q-31 0 -52.5 21.5t-21.5 52.5z" />
<glyph unicode="&#x178;" horiz-adv-x="1142" d="M92 1106v147q0 31 21.5 52.5t52.5 21.5t52.5 -21.5t21.5 -52.5v-147q0 -31 21 -52.5t52 -21.5t52.5 -21.5t21.5 -52.5v-221q0 -31 21.5 -52t52.5 -21h221q31 0 52.5 21t21.5 52v221q0 31 21 52.5t52 21.5t52.5 21.5t21.5 52.5v147q0 31 21.5 52.5t52.5 21.5t52.5 -21.5 t21.5 -52.5v-147q0 -31 -21.5 -52.5t-52.5 -21.5t-52.5 -21.5t-21.5 -52.5v-221q0 -31 -21.5 -52t-52.5 -21t-52 -21.5t-21 -52.5t-21.5 -52.5t-52.5 -21.5h-221q-31 0 -52.5 21.5t-21.5 52.5t-21.5 52.5t-52.5 21.5t-52 21t-21 52v221q0 31 -21.5 52.5t-52.5 21.5 t-52.5 21.5t-21.5 52.5zM313 1622v74q0 31 21.5 52t52.5 21t52.5 -21t21.5 -52v-74q0 -31 -21.5 -52.5t-52.5 -21.5t-52.5 21.5t-21.5 52.5zM498 74v295q0 31 21 52t52 21t52.5 -21t21.5 -52v-295q0 -31 -21.5 -52.5t-52.5 -21.5t-52 21.5t-21 52.5zM682 1622v74 q0 31 21.5 52t52.5 21t52 -21t21 -52v-74q0 -31 -21 -52.5t-52 -21.5t-52.5 21.5t-21.5 52.5z" />
<glyph unicode="&#x2c6;" horiz-adv-x="811" d="M147 1253q0 31 21.5 52.5t52.5 21.5t52.5 21.5t21.5 52.5t21.5 52.5t52.5 21.5h73q31 0 52.5 -21.5t21.5 -52.5t21.5 -52.5t52.5 -21.5t52.5 -21.5t21.5 -52.5t-21.5 -52t-52.5 -21t-52.5 21t-21.5 52t-21.5 52.5t-52.5 21.5h-73q-31 0 -52.5 -21.5t-21.5 -52.5 t-21.5 -52t-52.5 -21t-52.5 21t-21.5 52z" />
<glyph unicode="&#x2dc;" horiz-adv-x="884" d="M147 1253q0 31 21.5 52.5t52.5 21.5t52.5 21.5t21.5 52.5t21.5 52.5t52.5 21.5t52 -21.5t21 -52.5t21.5 -52.5t52.5 -21.5t52.5 21.5t21.5 52.5t21.5 52.5t52.5 21.5t52 -21.5t21 -52.5t-21 -52.5t-52 -21.5t-52.5 -21.5t-21.5 -52.5t-21.5 -52t-52.5 -21t-52.5 21 t-21.5 52t-21 52.5t-52 21.5t-52.5 -21.5t-21.5 -52.5t-21.5 -52t-52.5 -21t-52.5 21t-21.5 52z" />
<glyph unicode="&#x2000;" horiz-adv-x="921" />
<glyph unicode="&#x2001;" horiz-adv-x="1843" />
<glyph unicode="&#x2002;" horiz-adv-x="921" />
<glyph unicode="&#x2003;" horiz-adv-x="1843" />
<glyph unicode="&#x2004;" horiz-adv-x="614" />
<glyph unicode="&#x2005;" horiz-adv-x="460" />
<glyph unicode="&#x2006;" horiz-adv-x="307" />
<glyph unicode="&#x2007;" horiz-adv-x="307" />
<glyph unicode="&#x2008;" horiz-adv-x="230" />
<glyph unicode="&#x2009;" horiz-adv-x="368" />
<glyph unicode="&#x200a;" horiz-adv-x="102" />
<glyph unicode="&#x2010;" horiz-adv-x="811" d="M147 664q0 31 21.5 52t52.5 21h369q31 0 52.5 -21t21.5 -52t-21.5 -52.5t-52.5 -21.5h-369q-31 0 -52.5 21.5t-21.5 52.5z" />
<glyph unicode="&#x2011;" horiz-adv-x="811" d="M147 664q0 31 21.5 52t52.5 21h369q31 0 52.5 -21t21.5 -52t-21.5 -52.5t-52.5 -21.5h-369q-31 0 -52.5 21.5t-21.5 52.5z" />
<glyph unicode="&#x2012;" horiz-adv-x="811" d="M147 664q0 31 21.5 52t52.5 21h369q31 0 52.5 -21t21.5 -52t-21.5 -52.5t-52.5 -21.5h-369q-31 0 -52.5 21.5t-21.5 52.5z" />
<glyph unicode="&#x2013;" d="M147 664q0 31 21.5 52t52.5 21h664q31 0 52 -21t21 -52t-21 -52.5t-52 -21.5h-664q-31 0 -52.5 21.5t-21.5 52.5z" />
<glyph unicode="&#x2014;" horiz-adv-x="1622" d="M147 664q0 31 21.5 52t52.5 21h1180q31 0 52.5 -21t21.5 -52t-21.5 -52.5t-52.5 -21.5h-1180q-31 0 -52.5 21.5t-21.5 52.5z" />
<glyph unicode="&#x2018;" horiz-adv-x="442" d="M74 1106v74q0 31 21 52t52 21t52.5 21.5t21.5 52.5v74q0 31 21.5 52.5t52.5 21.5t52.5 -21.5t21.5 -52.5v-74q0 -31 -21.5 -52.5t-52.5 -21.5t-52.5 -21t-21.5 -52v-74q0 -31 -21.5 -52.5t-52.5 -21.5t-52 21.5t-21 52.5z" />
<glyph unicode="&#x2019;" horiz-adv-x="442" d="M74 1106v74q0 31 21 52t52 21t52.5 21.5t21.5 52.5v74q0 31 21.5 52.5t52.5 21.5t52.5 -21.5t21.5 -52.5v-74q0 -31 -21.5 -52.5t-52.5 -21.5t-52.5 -21t-21.5 -52v-74q0 -31 -21.5 -52.5t-52.5 -21.5t-52 21.5t-21 52.5z" />
<glyph unicode="&#x201a;" horiz-adv-x="442" d="M74 -74q0 31 21 52.5t52 21.5t52.5 21.5t21.5 52.5v73q0 31 21.5 52.5t52.5 21.5t52.5 -21.5t21.5 -52.5v-73q0 -31 -21.5 -52.5t-52.5 -21.5t-52.5 -21.5t-21.5 -52.5v-73q0 -31 -21.5 -52.5t-52.5 -21.5t-52 21.5t-21 52.5v73z" />
<glyph unicode="&#x201c;" horiz-adv-x="811" d="M74 1106v74q0 31 21 52t52 21t52.5 21.5t21.5 52.5v74q0 31 21.5 52.5t52.5 21.5t52.5 -21.5t21.5 -52.5v-74q0 -31 -21.5 -52.5t-52.5 -21.5t-52.5 -21t-21.5 -52v-74q0 -31 -21.5 -52.5t-52.5 -21.5t-52 21.5t-21 52.5zM442 1106v74q0 31 21.5 52t52.5 21t52.5 21.5 t21.5 52.5v74q0 31 21.5 52.5t52.5 21.5t52 -21.5t21 -52.5v-74q0 -31 -21 -52.5t-52 -21.5t-52.5 -21t-21.5 -52v-74q0 -31 -21.5 -52.5t-52.5 -21.5t-52.5 21.5t-21.5 52.5z" />
<glyph unicode="&#x201d;" horiz-adv-x="811" d="M74 1106v74q0 31 21 52t52 21t52.5 21.5t21.5 52.5v74q0 31 21.5 52.5t52.5 21.5t52.5 -21.5t21.5 -52.5v-74q0 -31 -21.5 -52.5t-52.5 -21.5t-52.5 -21t-21.5 -52v-74q0 -31 -21.5 -52.5t-52.5 -21.5t-52 21.5t-21 52.5zM442 1106v74q0 31 21.5 52t52.5 21t52.5 21.5 t21.5 52.5v74q0 31 21.5 52.5t52.5 21.5t52 -21.5t21 -52.5v-74q0 -31 -21 -52.5t-52 -21.5t-52.5 -21t-21.5 -52v-74q0 -31 -21.5 -52.5t-52.5 -21.5t-52.5 21.5t-21.5 52.5z" />
<glyph unicode="&#x201e;" horiz-adv-x="811" d="M74 -74q0 31 21 52.5t52 21.5t52.5 21.5t21.5 52.5v73q0 31 21.5 52.5t52.5 21.5t52.5 -21.5t21.5 -52.5v-73q0 -31 -21.5 -52.5t-52.5 -21.5t-52.5 -21.5t-21.5 -52.5v-73q0 -31 -21.5 -52.5t-52.5 -21.5t-52 21.5t-21 52.5v73zM442 -74q0 31 21.5 52.5t52.5 21.5 t52.5 21.5t21.5 52.5v73q0 31 21.5 52.5t52.5 21.5t52 -21.5t21 -52.5v-73q0 -31 -21 -52.5t-52 -21.5t-52.5 -21.5t-21.5 -52.5v-73q0 -31 -21.5 -52.5t-52.5 -21.5t-52.5 21.5t-21.5 52.5v73z" />
<glyph unicode="&#x2022;" d="M147 442v369q0 31 21.5 52.5t52.5 21.5t52.5 21t21.5 52t21.5 52.5t52.5 21.5h368q31 0 52.5 -21.5t21.5 -52.5t21.5 -52t52.5 -21t52 -21.5t21 -52.5v-369q0 -31 -21 -52t-52 -21t-52.5 -21.5t-21.5 -52.5t-21.5 -52.5t-52.5 -21.5h-368q-31 0 -52.5 21.5t-21.5 52.5 t-21.5 52.5t-52.5 21.5t-52.5 21t-21.5 52z" />
<glyph unicode="&#x2026;" horiz-adv-x="1179" d="M147 74v73q0 31 21.5 52.5t52.5 21.5t52.5 -21.5t21.5 -52.5v-73q0 -31 -21.5 -52.5t-52.5 -21.5t-52.5 21.5t-21.5 52.5zM516 74v73q0 31 21.5 52.5t52.5 21.5t52.5 -21.5t21.5 -52.5v-73q0 -31 -21.5 -52.5t-52.5 -21.5t-52.5 21.5t-21.5 52.5zM885 74v73q0 31 21 52.5 t52 21.5t52.5 -21.5t21.5 -52.5v-73q0 -31 -21.5 -52.5t-52.5 -21.5t-52 21.5t-21 52.5z" />
<glyph unicode="&#x202f;" horiz-adv-x="368" />
<glyph unicode="&#x2039;" horiz-adv-x="811" d="M74 664q0 31 21 52t52 21h74q31 0 52.5 21.5t21.5 52.5t21.5 52.5t52.5 21.5h73q31 0 52.5 21t21.5 52t21.5 52.5t52.5 21.5h74q31 0 52 -21.5t21 -52.5t-21 -52t-52 -21h-74q-31 0 -52.5 -21.5t-21.5 -52.5t-21.5 -52.5t-52.5 -21.5h-73q-31 0 -52.5 -21t-21.5 -52 t21.5 -52.5t52.5 -21.5h73q31 0 52.5 -21.5t21.5 -52.5t21.5 -52.5t52.5 -21.5h74q31 0 52 -21t21 -52t-21 -52.5t-52 -21.5h-74q-31 0 -52.5 21.5t-21.5 52.5t-21.5 52t-52.5 21h-73q-31 0 -52.5 21.5t-21.5 52.5t-21.5 52.5t-52.5 21.5h-74q-31 0 -52 21.5t-21 52.5z" />
<glyph unicode="&#x203a;" horiz-adv-x="811" d="M74 369q0 31 21 52t52 21h74q31 0 52.5 21.5t21.5 52.5t21.5 52.5t52.5 21.5h73q31 0 52.5 21.5t21.5 52.5t-21.5 52t-52.5 21h-73q-31 0 -52.5 21.5t-21.5 52.5t-21.5 52.5t-52.5 21.5h-74q-31 0 -52 21t-21 52t21 52.5t52 21.5h74q31 0 52.5 -21.5t21.5 -52.5t21.5 -52 t52.5 -21h73q31 0 52.5 -21.5t21.5 -52.5t21.5 -52.5t52.5 -21.5h74q31 0 52 -21t21 -52t-21 -52.5t-52 -21.5h-74q-31 0 -52.5 -21.5t-21.5 -52.5t-21.5 -52.5t-52.5 -21.5h-73q-31 0 -52.5 -21t-21.5 -52t-21.5 -52.5t-52.5 -21.5h-74q-31 0 -52 21.5t-21 52.5z" />
<glyph unicode="&#x205f;" horiz-adv-x="460" />
<glyph unicode="&#x20ac;" horiz-adv-x="1087" d="M74 516q0 31 21 52.5t52 21.5h738q31 0 52 -21.5t21 -52.5t-21 -52.5t-52 -21.5h-738q-31 0 -52 21.5t-21 52.5zM74 811q0 31 21 52.5t52 21.5h738q31 0 52 -21.5t21 -52.5t-21 -52.5t-52 -21.5h-738q-31 0 -52 21.5t-21 52.5zM295 221v74q0 31 21.5 52.5t52.5 21.5 t52 -21.5t21 -52.5v-74q0 -31 21.5 -52.5t52.5 -21.5h369q31 0 52 -21t21 -52t-21 -52.5t-52 -21.5h-369q-31 0 -52.5 21.5t-21.5 52.5t-21 52t-52 21t-52.5 21.5t-21.5 52.5zM295 1032v74q0 31 21.5 52.5t52.5 21.5t52 21t21 52t21.5 52.5t52.5 21.5h369q31 0 52 -21.5 t21 -52.5t-21 -52t-52 -21h-369q-31 0 -52.5 -21.5t-21.5 -52.5v-74q0 -31 -21 -52.5t-52 -21.5t-52.5 21.5t-21.5 52.5z" />
<glyph unicode="&#x2122;" horiz-adv-x="1751" d="M74 1401q0 31 21 52.5t52 21.5h461q31 0 52.5 -21.5t21.5 -52.5t-21.5 -52.5t-52.5 -21.5h-461q-31 0 -52 21.5t-21 52.5zM313 793v387q0 31 21.5 52t52.5 21t52.5 -21t21.5 -52v-387q0 -31 -21.5 -52.5t-52.5 -21.5t-52.5 21.5t-21.5 52.5zM719 793v387q0 31 21.5 52 t52.5 21t52 -21t21 -52v-387q0 -31 -21 -52.5t-52 -21.5t-52.5 21.5t-21.5 52.5zM977 1401q0 31 21.5 52.5t52.5 21.5t52 -21.5t21 -52.5t21.5 -52.5t52.5 -21.5t52.5 -21.5t21.5 -52.5v-460q0 -31 -21.5 -52.5t-52.5 -21.5t-52.5 21.5t-21.5 52.5v460q0 31 -21 52.5 t-52 21.5t-52.5 21.5t-21.5 52.5zM1382 1401q0 31 21.5 52.5t52.5 21.5t52.5 -21.5t21.5 -52.5t21.5 -52.5t52.5 -21.5t52 -21.5t21 -52.5v-460q0 -31 -21 -52.5t-52 -21.5t-52.5 21.5t-21.5 52.5v460q0 31 -21.5 52.5t-52.5 21.5t-52.5 21.5t-21.5 52.5z" />
<glyph unicode="&#x25fc;" horiz-adv-x="1034" d="M0 0v1034h1034v-1034h-1034z" />
<glyph unicode="&#xfb01;" horiz-adv-x="1216" d="M37 958q0 31 21.5 52.5t52.5 21.5h73q31 0 52.5 21.5t21.5 52.5v147q0 31 21.5 52.5t52.5 21.5t52.5 21.5t21.5 52.5t21 52.5t52 21.5h221q31 0 52.5 -21.5t21.5 -52.5t-21.5 -52.5t-52.5 -21.5h-221q-31 0 -52 -21.5t-21 -52.5v-1179q0 -31 -21.5 -52.5t-52.5 -21.5 t-52.5 21.5t-21.5 52.5v874q-4 -28 -25 -45.5t-49 -17.5h-73q-31 0 -52.5 21t-21.5 52zM479 958q0 31 21.5 52.5t52.5 21.5h147q31 0 52.5 -21.5t21.5 -52.5t-21.5 -52t-52.5 -21h-147q-31 0 -52.5 21t-21.5 52zM922 74v884q0 31 21 52.5t52 21.5t52.5 -21.5t21.5 -52.5 v-884q0 -31 -21.5 -52.5t-52.5 -21.5t-52 21.5t-21 52.5zM922 1327v74q0 31 21 52.5t52 21.5t52.5 -21.5t21.5 -52.5v-74q0 -31 -21.5 -52.5t-52.5 -21.5t-52 21.5t-21 52.5z" />
<glyph unicode="&#xfb02;" horiz-adv-x="1216" d="M37 958q0 31 21.5 52.5t52.5 21.5h73q31 0 52.5 21.5t21.5 52.5v147q0 31 21.5 52.5t52.5 21.5t52.5 21.5t21.5 52.5t21 52.5t52 21.5h221q31 0 52.5 -21.5t21.5 -52.5t-21.5 -52.5t-52.5 -21.5h-221q-31 0 -52 -21.5t-21 -52.5v-1179q0 -31 -21.5 -52.5t-52.5 -21.5 t-52.5 21.5t-21.5 52.5v874q-4 -28 -25 -45.5t-49 -17.5h-73q-31 0 -52.5 21t-21.5 52zM479 958q0 31 21.5 52.5t52.5 21.5h147q31 0 52.5 -21.5t21.5 -52.5t-21.5 -52t-52.5 -21h-147q-31 0 -52.5 21t-21.5 52zM922 74v1327q0 31 21 52.5t52 21.5t52.5 -21.5t21.5 -52.5 v-1327q0 -31 -21.5 -52.5t-52.5 -21.5t-52 21.5t-21 52.5z" />
</font>
</defs>
</svg>
